G04 #@! TF.GenerationSoftware,KiCad,Pcbnew,(5.1.5-0-10_14)*
G04 #@! TF.CreationDate,2020-05-21T14:15:11-05:00*
G04 #@! TF.ProjectId,esp12e-oven,65737031-3265-42d6-9f76-656e2e6b6963,rev?*
G04 #@! TF.SameCoordinates,Original*
G04 #@! TF.FileFunction,Legend,Top*
G04 #@! TF.FilePolarity,Positive*
%FSLAX46Y46*%
G04 Gerber Fmt 4.6, Leading zero omitted, Abs format (unit mm)*
G04 Created by KiCad (PCBNEW (5.1.5-0-10_14)) date 2020-05-21 14:15:11*
%MOMM*%
%LPD*%
G04 APERTURE LIST*
%ADD10C,0.250000*%
%ADD11C,0.120000*%
%ADD12C,0.150000*%
G04 APERTURE END LIST*
D10*
X48206413Y-54534761D02*
X48343318Y-54582380D01*
X48581413Y-54582380D01*
X48682604Y-54534761D01*
X48736175Y-54487142D01*
X48795699Y-54391904D01*
X48807604Y-54296666D01*
X48771889Y-54201428D01*
X48730223Y-54153809D01*
X48640937Y-54106190D01*
X48456413Y-54058571D01*
X48367127Y-54010952D01*
X48325461Y-53963333D01*
X48289747Y-53868095D01*
X48301651Y-53772857D01*
X48361175Y-53677619D01*
X48414747Y-53630000D01*
X48515937Y-53582380D01*
X48754032Y-53582380D01*
X48890937Y-53630000D01*
X49515937Y-53582380D02*
X49611175Y-53582380D01*
X49700461Y-53630000D01*
X49742127Y-53677619D01*
X49777842Y-53772857D01*
X49801651Y-53963333D01*
X49771889Y-54201428D01*
X49700461Y-54391904D01*
X49640937Y-54487142D01*
X49587366Y-54534761D01*
X49486175Y-54582380D01*
X49390937Y-54582380D01*
X49301651Y-54534761D01*
X49259985Y-54487142D01*
X49224270Y-54391904D01*
X49200461Y-54201428D01*
X49230223Y-53963333D01*
X49301651Y-53772857D01*
X49361175Y-53677619D01*
X49414747Y-53630000D01*
X49515937Y-53582380D01*
X50676651Y-54582380D02*
X50105223Y-54582380D01*
X50390937Y-54582380D02*
X50515937Y-53582380D01*
X50402842Y-53725238D01*
X50295699Y-53820476D01*
X50194508Y-53868095D01*
X51152842Y-54201428D02*
X51914747Y-54201428D01*
X52658794Y-53582380D02*
X52754032Y-53582380D01*
X52843318Y-53630000D01*
X52884985Y-53677619D01*
X52920699Y-53772857D01*
X52944508Y-53963333D01*
X52914747Y-54201428D01*
X52843318Y-54391904D01*
X52783794Y-54487142D01*
X52730223Y-54534761D01*
X52629032Y-54582380D01*
X52533794Y-54582380D01*
X52444508Y-54534761D01*
X52402842Y-54487142D01*
X52367127Y-54391904D01*
X52343318Y-54201428D01*
X52373080Y-53963333D01*
X52444508Y-53772857D01*
X52504032Y-53677619D01*
X52557604Y-53630000D01*
X52658794Y-53582380D01*
X53611175Y-53582380D02*
X53706413Y-53582380D01*
X53795699Y-53630000D01*
X53837366Y-53677619D01*
X53873080Y-53772857D01*
X53896889Y-53963333D01*
X53867127Y-54201428D01*
X53795699Y-54391904D01*
X53736175Y-54487142D01*
X53682604Y-54534761D01*
X53581413Y-54582380D01*
X53486175Y-54582380D01*
X53396889Y-54534761D01*
X53355223Y-54487142D01*
X53319508Y-54391904D01*
X53295699Y-54201428D01*
X53325461Y-53963333D01*
X53396889Y-53772857D01*
X53456413Y-53677619D01*
X53509985Y-53630000D01*
X53611175Y-53582380D01*
X54771889Y-54582380D02*
X54200461Y-54582380D01*
X54486175Y-54582380D02*
X54611175Y-53582380D01*
X54498080Y-53725238D01*
X54390937Y-53820476D01*
X54289747Y-53868095D01*
X56277842Y-53582380D02*
X56373080Y-53582380D01*
X56462366Y-53630000D01*
X56504032Y-53677619D01*
X56539747Y-53772857D01*
X56563556Y-53963333D01*
X56533794Y-54201428D01*
X56462366Y-54391904D01*
X56402842Y-54487142D01*
X56349270Y-54534761D01*
X56248080Y-54582380D01*
X56152842Y-54582380D01*
X56063556Y-54534761D01*
X56021889Y-54487142D01*
X55986175Y-54391904D01*
X55962366Y-54201428D01*
X55992127Y-53963333D01*
X56063556Y-53772857D01*
X56123080Y-53677619D01*
X56176651Y-53630000D01*
X56277842Y-53582380D01*
X57515937Y-53582380D02*
X57039747Y-53582380D01*
X56932604Y-54058571D01*
X56986175Y-54010952D01*
X57087366Y-53963333D01*
X57325461Y-53963333D01*
X57414747Y-54010952D01*
X57456413Y-54058571D01*
X57492127Y-54153809D01*
X57462366Y-54391904D01*
X57402842Y-54487142D01*
X57349270Y-54534761D01*
X57248080Y-54582380D01*
X57009985Y-54582380D01*
X56920699Y-54534761D01*
X56879032Y-54487142D01*
X58712366Y-53534761D02*
X57694508Y-54820476D01*
X58980223Y-53677619D02*
X59033794Y-53630000D01*
X59134985Y-53582380D01*
X59373080Y-53582380D01*
X59462366Y-53630000D01*
X59504032Y-53677619D01*
X59539747Y-53772857D01*
X59527842Y-53868095D01*
X59462366Y-54010952D01*
X58819508Y-54582380D01*
X59438556Y-54582380D01*
X60390937Y-54582380D02*
X59819508Y-54582380D01*
X60105223Y-54582380D02*
X60230223Y-53582380D01*
X60117127Y-53725238D01*
X60009985Y-53820476D01*
X59908794Y-53868095D01*
X61664747Y-53534761D02*
X60646889Y-54820476D01*
X61932604Y-53677619D02*
X61986175Y-53630000D01*
X62087366Y-53582380D01*
X62325461Y-53582380D01*
X62414747Y-53630000D01*
X62456413Y-53677619D01*
X62492127Y-53772857D01*
X62480223Y-53868095D01*
X62414747Y-54010952D01*
X61771889Y-54582380D01*
X62390937Y-54582380D01*
X63134985Y-53582380D02*
X63230223Y-53582380D01*
X63319508Y-53630000D01*
X63361175Y-53677619D01*
X63396889Y-53772857D01*
X63420699Y-53963333D01*
X63390937Y-54201428D01*
X63319508Y-54391904D01*
X63259985Y-54487142D01*
X63206413Y-54534761D01*
X63105223Y-54582380D01*
X63009985Y-54582380D01*
X62920699Y-54534761D01*
X62879032Y-54487142D01*
X62843318Y-54391904D01*
X62819508Y-54201428D01*
X62849270Y-53963333D01*
X62920699Y-53772857D01*
X62980223Y-53677619D01*
X63033794Y-53630000D01*
X63134985Y-53582380D01*
X49325461Y-55332380D02*
X49236175Y-56046666D01*
X49170699Y-56189523D01*
X49063556Y-56284761D01*
X48914747Y-56332380D01*
X48819508Y-56332380D01*
X50063556Y-56284761D02*
X49962366Y-56332380D01*
X49771889Y-56332380D01*
X49682604Y-56284761D01*
X49646889Y-56189523D01*
X49694508Y-55808571D01*
X49754032Y-55713333D01*
X49855223Y-55665714D01*
X50045699Y-55665714D01*
X50134985Y-55713333D01*
X50170699Y-55808571D01*
X50158794Y-55903809D01*
X49670699Y-55999047D01*
X50533794Y-56332380D02*
X50617127Y-55665714D01*
X50593318Y-55856190D02*
X50652842Y-55760952D01*
X50706413Y-55713333D01*
X50807604Y-55665714D01*
X50902842Y-55665714D01*
X51539747Y-56284761D02*
X51438556Y-56332380D01*
X51248080Y-56332380D01*
X51158794Y-56284761D01*
X51123080Y-56189523D01*
X51170699Y-55808571D01*
X51230223Y-55713333D01*
X51331413Y-55665714D01*
X51521889Y-55665714D01*
X51611175Y-55713333D01*
X51646889Y-55808571D01*
X51634985Y-55903809D01*
X51146889Y-55999047D01*
X52009985Y-56332380D02*
X52093318Y-55665714D01*
X52081413Y-55760952D02*
X52134985Y-55713333D01*
X52236175Y-55665714D01*
X52379032Y-55665714D01*
X52468318Y-55713333D01*
X52504032Y-55808571D01*
X52438556Y-56332380D01*
X52504032Y-55808571D02*
X52563556Y-55713333D01*
X52664747Y-55665714D01*
X52807604Y-55665714D01*
X52896889Y-55713333D01*
X52932604Y-55808571D01*
X52867127Y-56332380D01*
X53331413Y-55665714D02*
X53486175Y-56332380D01*
X53807604Y-55665714D02*
X53486175Y-56332380D01*
X53361175Y-56570476D01*
X53307604Y-56618095D01*
X53206413Y-56665714D01*
X55265937Y-55808571D02*
X55402842Y-55856190D01*
X55444508Y-55903809D01*
X55480223Y-55999047D01*
X55462366Y-56141904D01*
X55402842Y-56237142D01*
X55349270Y-56284761D01*
X55248080Y-56332380D01*
X54867127Y-56332380D01*
X54992127Y-55332380D01*
X55325461Y-55332380D01*
X55414747Y-55380000D01*
X55456413Y-55427619D01*
X55492127Y-55522857D01*
X55480223Y-55618095D01*
X55420699Y-55713333D01*
X55367127Y-55760952D01*
X55265937Y-55808571D01*
X54932604Y-55808571D01*
X55879032Y-56237142D02*
X55920699Y-56284761D01*
X55867127Y-56332380D01*
X55825461Y-56284761D01*
X55879032Y-56237142D01*
X55867127Y-56332380D01*
X57676651Y-56332380D02*
X57402842Y-55856190D01*
X57105223Y-56332380D02*
X57230223Y-55332380D01*
X57611175Y-55332380D01*
X57700461Y-55380000D01*
X57742127Y-55427619D01*
X57777842Y-55522857D01*
X57759985Y-55665714D01*
X57700461Y-55760952D01*
X57646889Y-55808571D01*
X57545699Y-55856190D01*
X57164747Y-55856190D01*
X58248080Y-56332380D02*
X58158794Y-56284761D01*
X58117127Y-56237142D01*
X58081413Y-56141904D01*
X58117127Y-55856190D01*
X58176651Y-55760952D01*
X58230223Y-55713333D01*
X58331413Y-55665714D01*
X58474270Y-55665714D01*
X58563556Y-55713333D01*
X58605223Y-55760952D01*
X58640937Y-55856190D01*
X58605223Y-56141904D01*
X58545699Y-56237142D01*
X58492127Y-56284761D01*
X58390937Y-56332380D01*
X58248080Y-56332380D01*
X59438556Y-56332380D02*
X59563556Y-55332380D01*
X59444508Y-56284761D02*
X59343318Y-56332380D01*
X59152842Y-56332380D01*
X59063556Y-56284761D01*
X59021889Y-56237142D01*
X58986175Y-56141904D01*
X59021889Y-55856190D01*
X59081413Y-55760952D01*
X59134985Y-55713333D01*
X59236175Y-55665714D01*
X59426651Y-55665714D01*
X59515937Y-55713333D01*
X60426651Y-55665714D02*
X60325461Y-56475238D01*
X60265937Y-56570476D01*
X60212366Y-56618095D01*
X60111175Y-56665714D01*
X59968318Y-56665714D01*
X59879032Y-56618095D01*
X60349270Y-56284761D02*
X60248080Y-56332380D01*
X60057604Y-56332380D01*
X59968318Y-56284761D01*
X59926651Y-56237142D01*
X59890937Y-56141904D01*
X59926651Y-55856190D01*
X59986175Y-55760952D01*
X60039747Y-55713333D01*
X60140937Y-55665714D01*
X60331413Y-55665714D01*
X60420699Y-55713333D01*
X61206413Y-56284761D02*
X61105223Y-56332380D01*
X60914747Y-56332380D01*
X60825461Y-56284761D01*
X60789747Y-56189523D01*
X60837366Y-55808571D01*
X60896889Y-55713333D01*
X60998080Y-55665714D01*
X61188556Y-55665714D01*
X61277842Y-55713333D01*
X61313556Y-55808571D01*
X61301651Y-55903809D01*
X60813556Y-55999047D01*
X61676651Y-56332380D02*
X61759985Y-55665714D01*
X61736175Y-55856190D02*
X61795699Y-55760952D01*
X61849270Y-55713333D01*
X61950461Y-55665714D01*
X62045699Y-55665714D01*
X62254032Y-56284761D02*
X62343318Y-56332380D01*
X62533794Y-56332380D01*
X62634985Y-56284761D01*
X62694508Y-56189523D01*
X62700461Y-56141904D01*
X62664747Y-56046666D01*
X62575461Y-55999047D01*
X62432604Y-55999047D01*
X62343318Y-55951428D01*
X62307604Y-55856190D01*
X62313556Y-55808571D01*
X62373080Y-55713333D01*
X62474270Y-55665714D01*
X62617127Y-55665714D01*
X62706413Y-55713333D01*
X48402842Y-57415714D02*
X48295699Y-58272857D01*
X48236175Y-58368095D01*
X48134985Y-58415714D01*
X48087366Y-58415714D01*
X48444508Y-57082380D02*
X48390937Y-57130000D01*
X48432604Y-57177619D01*
X48486175Y-57130000D01*
X48444508Y-57082380D01*
X48432604Y-57177619D01*
X48795699Y-58082380D02*
X48879032Y-57415714D01*
X48855223Y-57606190D02*
X48914747Y-57510952D01*
X48968318Y-57463333D01*
X49069508Y-57415714D01*
X49164747Y-57415714D01*
X49730223Y-57082380D02*
X49825461Y-57082380D01*
X49914747Y-57130000D01*
X49956413Y-57177619D01*
X49992127Y-57272857D01*
X50015937Y-57463333D01*
X49986175Y-57701428D01*
X49914747Y-57891904D01*
X49855223Y-57987142D01*
X49801651Y-58034761D01*
X49700461Y-58082380D01*
X49605223Y-58082380D01*
X49515937Y-58034761D01*
X49474270Y-57987142D01*
X49438556Y-57891904D01*
X49414747Y-57701428D01*
X49444508Y-57463333D01*
X49515937Y-57272857D01*
X49575461Y-57177619D01*
X49629032Y-57130000D01*
X49730223Y-57082380D01*
X50795699Y-58082380D02*
X50920699Y-57082380D01*
X50801651Y-58034761D02*
X50700461Y-58082380D01*
X50509985Y-58082380D01*
X50420699Y-58034761D01*
X50379032Y-57987142D01*
X50343318Y-57891904D01*
X50379032Y-57606190D01*
X50438556Y-57510952D01*
X50492127Y-57463333D01*
X50593318Y-57415714D01*
X50783794Y-57415714D01*
X50873080Y-57463333D01*
X51783794Y-57415714D02*
X51682604Y-58225238D01*
X51623080Y-58320476D01*
X51569508Y-58368095D01*
X51468318Y-58415714D01*
X51325461Y-58415714D01*
X51236175Y-58368095D01*
X51706413Y-58034761D02*
X51605223Y-58082380D01*
X51414747Y-58082380D01*
X51325461Y-58034761D01*
X51283794Y-57987142D01*
X51248080Y-57891904D01*
X51283794Y-57606190D01*
X51343318Y-57510952D01*
X51396889Y-57463333D01*
X51498080Y-57415714D01*
X51688556Y-57415714D01*
X51777842Y-57463333D01*
X52206413Y-57082380D02*
X52825461Y-57082380D01*
X52444508Y-57463333D01*
X52587366Y-57463333D01*
X52676651Y-57510952D01*
X52718318Y-57558571D01*
X52754032Y-57653809D01*
X52724270Y-57891904D01*
X52664747Y-57987142D01*
X52611175Y-58034761D01*
X52509985Y-58082380D01*
X52224270Y-58082380D01*
X52134985Y-58034761D01*
X52093318Y-57987142D01*
X53129032Y-58082380D02*
X53212366Y-57415714D01*
X53188556Y-57606190D02*
X53248080Y-57510952D01*
X53301651Y-57463333D01*
X53402842Y-57415714D01*
X53498080Y-57415714D01*
X54349270Y-57082380D02*
X53873080Y-57082380D01*
X53765937Y-57558571D01*
X53819508Y-57510952D01*
X53920699Y-57463333D01*
X54158794Y-57463333D01*
X54248080Y-57510952D01*
X54289747Y-57558571D01*
X54325461Y-57653809D01*
X54295699Y-57891904D01*
X54236175Y-57987142D01*
X54182604Y-58034761D01*
X54081413Y-58082380D01*
X53843318Y-58082380D01*
X53754032Y-58034761D01*
X53712366Y-57987142D01*
X55379032Y-57606190D02*
X55337366Y-57558571D01*
X55248080Y-57510952D01*
X55152842Y-57510952D01*
X55051651Y-57558571D01*
X54998080Y-57606190D01*
X54938556Y-57701428D01*
X54926651Y-57796666D01*
X54962366Y-57891904D01*
X55004032Y-57939523D01*
X55093318Y-57987142D01*
X55188556Y-57987142D01*
X55289747Y-57939523D01*
X55343318Y-57891904D01*
X55390937Y-57510952D02*
X55343318Y-57891904D01*
X55384985Y-57939523D01*
X55432604Y-57939523D01*
X55533794Y-57891904D01*
X55593318Y-57796666D01*
X55623080Y-57558571D01*
X55545699Y-57415714D01*
X55414747Y-57320476D01*
X55230223Y-57272857D01*
X55033794Y-57320476D01*
X54879032Y-57415714D01*
X54765937Y-57558571D01*
X54694508Y-57749047D01*
X54718318Y-57939523D01*
X54795699Y-58082380D01*
X54926651Y-58177619D01*
X55111175Y-58225238D01*
X55307604Y-58177619D01*
X55462366Y-58082380D01*
X56498080Y-57415714D02*
X56396889Y-58225238D01*
X56337366Y-58320476D01*
X56283794Y-58368095D01*
X56182604Y-58415714D01*
X56039747Y-58415714D01*
X55950461Y-58368095D01*
X56420699Y-58034761D02*
X56319508Y-58082380D01*
X56129032Y-58082380D01*
X56039747Y-58034761D01*
X55998080Y-57987142D01*
X55962366Y-57891904D01*
X55998080Y-57606190D01*
X56057604Y-57510952D01*
X56111175Y-57463333D01*
X56212366Y-57415714D01*
X56402842Y-57415714D01*
X56492127Y-57463333D01*
X56890937Y-58082380D02*
X56974270Y-57415714D01*
X56962366Y-57510952D02*
X57015937Y-57463333D01*
X57117127Y-57415714D01*
X57259985Y-57415714D01*
X57349270Y-57463333D01*
X57384985Y-57558571D01*
X57319508Y-58082380D01*
X57384985Y-57558571D02*
X57444508Y-57463333D01*
X57545699Y-57415714D01*
X57688556Y-57415714D01*
X57777842Y-57463333D01*
X57813556Y-57558571D01*
X57748080Y-58082380D01*
X58652842Y-58082380D02*
X58718318Y-57558571D01*
X58682604Y-57463333D01*
X58593318Y-57415714D01*
X58402842Y-57415714D01*
X58301651Y-57463333D01*
X58658794Y-58034761D02*
X58557604Y-58082380D01*
X58319508Y-58082380D01*
X58230223Y-58034761D01*
X58194508Y-57939523D01*
X58206413Y-57844285D01*
X58265937Y-57749047D01*
X58367127Y-57701428D01*
X58605223Y-57701428D01*
X58706413Y-57653809D01*
X59129032Y-58082380D02*
X59212366Y-57415714D01*
X59254032Y-57082380D02*
X59200461Y-57130000D01*
X59242127Y-57177619D01*
X59295699Y-57130000D01*
X59254032Y-57082380D01*
X59242127Y-57177619D01*
X59748080Y-58082380D02*
X59658794Y-58034761D01*
X59623080Y-57939523D01*
X59730223Y-57082380D01*
X60140937Y-57987142D02*
X60182604Y-58034761D01*
X60129032Y-58082380D01*
X60087366Y-58034761D01*
X60140937Y-57987142D01*
X60129032Y-58082380D01*
X61039747Y-58034761D02*
X60938556Y-58082380D01*
X60748080Y-58082380D01*
X60658794Y-58034761D01*
X60617127Y-57987142D01*
X60581413Y-57891904D01*
X60617127Y-57606190D01*
X60676651Y-57510952D01*
X60730223Y-57463333D01*
X60831413Y-57415714D01*
X61021889Y-57415714D01*
X61111175Y-57463333D01*
X61605223Y-58082380D02*
X61515937Y-58034761D01*
X61474270Y-57987142D01*
X61438556Y-57891904D01*
X61474270Y-57606190D01*
X61533794Y-57510952D01*
X61587366Y-57463333D01*
X61688556Y-57415714D01*
X61831413Y-57415714D01*
X61920699Y-57463333D01*
X61962366Y-57510952D01*
X61998080Y-57606190D01*
X61962366Y-57891904D01*
X61902842Y-57987142D01*
X61849270Y-58034761D01*
X61748080Y-58082380D01*
X61605223Y-58082380D01*
X62367127Y-58082380D02*
X62450461Y-57415714D01*
X62438556Y-57510952D02*
X62492127Y-57463333D01*
X62593318Y-57415714D01*
X62736175Y-57415714D01*
X62825461Y-57463333D01*
X62861175Y-57558571D01*
X62795699Y-58082380D01*
X62861175Y-57558571D02*
X62920699Y-57463333D01*
X63021889Y-57415714D01*
X63164747Y-57415714D01*
X63254032Y-57463333D01*
X63289747Y-57558571D01*
X63224270Y-58082380D01*
D11*
X67595000Y-57165000D02*
X67595000Y-53325000D01*
X65755000Y-57165000D02*
X65755000Y-53325000D01*
X88000000Y-47780000D02*
X88000000Y-45180000D01*
X102700000Y-47780000D02*
X88000000Y-47780000D01*
X88000000Y-38580000D02*
X89900000Y-38580000D01*
X88000000Y-41280000D02*
X88000000Y-38580000D01*
X102700000Y-38580000D02*
X102700000Y-47780000D01*
X93900000Y-38580000D02*
X102700000Y-38580000D01*
X88850000Y-47980000D02*
X87800000Y-47980000D01*
X87800000Y-46930000D02*
X87800000Y-47980000D01*
X86570000Y-52495000D02*
X86570000Y-51435000D01*
X87630000Y-52495000D02*
X86570000Y-52495000D01*
X88630000Y-52495000D02*
X88630000Y-50375000D01*
X88630000Y-50375000D02*
X90690000Y-50375000D01*
X88630000Y-52495000D02*
X90690000Y-52495000D01*
X90690000Y-52495000D02*
X90690000Y-50375000D01*
X86570000Y-58210000D02*
X86570000Y-57150000D01*
X87630000Y-58210000D02*
X86570000Y-58210000D01*
X88630000Y-58210000D02*
X88630000Y-56090000D01*
X88630000Y-56090000D02*
X90690000Y-56090000D01*
X88630000Y-58210000D02*
X90690000Y-58210000D01*
X90690000Y-58210000D02*
X90690000Y-56090000D01*
X86570000Y-63925000D02*
X86570000Y-62865000D01*
X87630000Y-63925000D02*
X86570000Y-63925000D01*
X88630000Y-63925000D02*
X88630000Y-61805000D01*
X88630000Y-61805000D02*
X90690000Y-61805000D01*
X88630000Y-63925000D02*
X90690000Y-63925000D01*
X90690000Y-63925000D02*
X90690000Y-61805000D01*
X86570000Y-69640000D02*
X86570000Y-68580000D01*
X87630000Y-69640000D02*
X86570000Y-69640000D01*
X88630000Y-69640000D02*
X88630000Y-67520000D01*
X88630000Y-67520000D02*
X90690000Y-67520000D01*
X88630000Y-69640000D02*
X90690000Y-69640000D01*
X90690000Y-69640000D02*
X90690000Y-67520000D01*
X93980000Y-55670000D02*
X93045000Y-55670000D01*
X93045000Y-55670000D02*
X93045000Y-54610000D01*
X101660000Y-55670000D02*
X101660000Y-49550000D01*
X101660000Y-49550000D02*
X95190000Y-49550000D01*
X95190000Y-55670000D02*
X95190000Y-49550000D01*
X101660000Y-55670000D02*
X95190000Y-55670000D01*
X101660000Y-51610000D02*
X95190000Y-51610000D01*
X101660000Y-53610000D02*
X95190000Y-53610000D01*
X95190000Y-50250000D02*
X94842917Y-50250000D01*
X95190000Y-50970000D02*
X94842917Y-50970000D01*
X95190000Y-52250000D02*
X94842917Y-52250000D01*
X95190000Y-52970000D02*
X94842917Y-52970000D01*
X95190000Y-54250000D02*
X94915000Y-54250000D01*
X95190000Y-54970000D02*
X94915000Y-54970000D01*
X101660000Y-53724112D02*
X95190000Y-53724112D01*
X101660000Y-53838230D02*
X95190000Y-53838230D01*
X101660000Y-53952348D02*
X95190000Y-53952348D01*
X101660000Y-54066466D02*
X95190000Y-54066466D01*
X101660000Y-54180584D02*
X95190000Y-54180584D01*
X101660000Y-54294702D02*
X95190000Y-54294702D01*
X101660000Y-54408820D02*
X95190000Y-54408820D01*
X101660000Y-54522938D02*
X95190000Y-54522938D01*
X101660000Y-54637056D02*
X95190000Y-54637056D01*
X101660000Y-54751174D02*
X95190000Y-54751174D01*
X101660000Y-54865292D02*
X95190000Y-54865292D01*
X101660000Y-54979410D02*
X95190000Y-54979410D01*
X101660000Y-55093528D02*
X95190000Y-55093528D01*
X101660000Y-55207646D02*
X95190000Y-55207646D01*
X101660000Y-55321764D02*
X95190000Y-55321764D01*
X101660000Y-55435882D02*
X95190000Y-55435882D01*
X101660000Y-55550000D02*
X95190000Y-55550000D01*
X93980000Y-63925000D02*
X93045000Y-63925000D01*
X93045000Y-63925000D02*
X93045000Y-62865000D01*
X101660000Y-63925000D02*
X101660000Y-57805000D01*
X101660000Y-57805000D02*
X95190000Y-57805000D01*
X95190000Y-63925000D02*
X95190000Y-57805000D01*
X101660000Y-63925000D02*
X95190000Y-63925000D01*
X101660000Y-59865000D02*
X95190000Y-59865000D01*
X101660000Y-61865000D02*
X95190000Y-61865000D01*
X95190000Y-58505000D02*
X94842917Y-58505000D01*
X95190000Y-59225000D02*
X94842917Y-59225000D01*
X95190000Y-60505000D02*
X94842917Y-60505000D01*
X95190000Y-61225000D02*
X94842917Y-61225000D01*
X95190000Y-62505000D02*
X94915000Y-62505000D01*
X95190000Y-63225000D02*
X94915000Y-63225000D01*
X101660000Y-61979112D02*
X95190000Y-61979112D01*
X101660000Y-62093230D02*
X95190000Y-62093230D01*
X101660000Y-62207348D02*
X95190000Y-62207348D01*
X101660000Y-62321466D02*
X95190000Y-62321466D01*
X101660000Y-62435584D02*
X95190000Y-62435584D01*
X101660000Y-62549702D02*
X95190000Y-62549702D01*
X101660000Y-62663820D02*
X95190000Y-62663820D01*
X101660000Y-62777938D02*
X95190000Y-62777938D01*
X101660000Y-62892056D02*
X95190000Y-62892056D01*
X101660000Y-63006174D02*
X95190000Y-63006174D01*
X101660000Y-63120292D02*
X95190000Y-63120292D01*
X101660000Y-63234410D02*
X95190000Y-63234410D01*
X101660000Y-63348528D02*
X95190000Y-63348528D01*
X101660000Y-63462646D02*
X95190000Y-63462646D01*
X101660000Y-63576764D02*
X95190000Y-63576764D01*
X101660000Y-63690882D02*
X95190000Y-63690882D01*
X101660000Y-63805000D02*
X95190000Y-63805000D01*
X78950000Y-63925000D02*
X78950000Y-62865000D01*
X80010000Y-63925000D02*
X78950000Y-63925000D01*
X81010000Y-63925000D02*
X81010000Y-61805000D01*
X81010000Y-61805000D02*
X83070000Y-61805000D01*
X81010000Y-63925000D02*
X83070000Y-63925000D01*
X83070000Y-63925000D02*
X83070000Y-61805000D01*
X78950000Y-69640000D02*
X78950000Y-68580000D01*
X80010000Y-69640000D02*
X78950000Y-69640000D01*
X81010000Y-69640000D02*
X81010000Y-67520000D01*
X81010000Y-67520000D02*
X83070000Y-67520000D01*
X81010000Y-69640000D02*
X83070000Y-69640000D01*
X83070000Y-69640000D02*
X83070000Y-67520000D01*
X37675000Y-56940000D02*
X37675000Y-55880000D01*
X38735000Y-56940000D02*
X37675000Y-56940000D01*
X39735000Y-56940000D02*
X39735000Y-54820000D01*
X39735000Y-54820000D02*
X45795000Y-54820000D01*
X39735000Y-56940000D02*
X45795000Y-56940000D01*
X45795000Y-56940000D02*
X45795000Y-54820000D01*
X67595000Y-48275000D02*
X67595000Y-44435000D01*
X65755000Y-48275000D02*
X65755000Y-44435000D01*
X45030000Y-50665000D02*
X45030000Y-51275000D01*
X45030000Y-50665000D02*
X37410000Y-50665000D01*
X61650000Y-50665000D02*
X61030000Y-50665000D01*
X61650000Y-48545000D02*
X61650000Y-50665000D01*
X61650000Y-34425000D02*
X61650000Y-36545000D01*
X61030000Y-34425000D02*
X61650000Y-34425000D01*
X37410000Y-34425000D02*
X45030000Y-34425000D01*
X37410000Y-50665000D02*
X37410000Y-34425000D01*
X75614801Y-56005000D02*
X75614801Y-55605000D01*
X75814801Y-55805000D02*
X75414801Y-55805000D01*
X71464000Y-54980000D02*
X71464000Y-54240000D01*
X71504000Y-55147000D02*
X71504000Y-54073000D01*
X71544000Y-55274000D02*
X71544000Y-53946000D01*
X71584000Y-55378000D02*
X71584000Y-53842000D01*
X71624000Y-55469000D02*
X71624000Y-53751000D01*
X71664000Y-55550000D02*
X71664000Y-53670000D01*
X71704000Y-55623000D02*
X71704000Y-53597000D01*
X71744000Y-55690000D02*
X71744000Y-53530000D01*
X71784000Y-55752000D02*
X71784000Y-53468000D01*
X71824000Y-55810000D02*
X71824000Y-53410000D01*
X71864000Y-55864000D02*
X71864000Y-53356000D01*
X71904000Y-55914000D02*
X71904000Y-53306000D01*
X71944000Y-55961000D02*
X71944000Y-53259000D01*
X71984000Y-53770000D02*
X71984000Y-53214000D01*
X71984000Y-56006000D02*
X71984000Y-55450000D01*
X72024000Y-53770000D02*
X72024000Y-53172000D01*
X72024000Y-56048000D02*
X72024000Y-55450000D01*
X72064000Y-53770000D02*
X72064000Y-53132000D01*
X72064000Y-56088000D02*
X72064000Y-55450000D01*
X72104000Y-53770000D02*
X72104000Y-53094000D01*
X72104000Y-56126000D02*
X72104000Y-55450000D01*
X72144000Y-53770000D02*
X72144000Y-53058000D01*
X72144000Y-56162000D02*
X72144000Y-55450000D01*
X72184000Y-53770000D02*
X72184000Y-53023000D01*
X72184000Y-56197000D02*
X72184000Y-55450000D01*
X72224000Y-53770000D02*
X72224000Y-52991000D01*
X72224000Y-56229000D02*
X72224000Y-55450000D01*
X72264000Y-53770000D02*
X72264000Y-52960000D01*
X72264000Y-56260000D02*
X72264000Y-55450000D01*
X72304000Y-53770000D02*
X72304000Y-52930000D01*
X72304000Y-56290000D02*
X72304000Y-55450000D01*
X72344000Y-53770000D02*
X72344000Y-52902000D01*
X72344000Y-56318000D02*
X72344000Y-55450000D01*
X72384000Y-53770000D02*
X72384000Y-52875000D01*
X72384000Y-56345000D02*
X72384000Y-55450000D01*
X72424000Y-53770000D02*
X72424000Y-52850000D01*
X72424000Y-56370000D02*
X72424000Y-55450000D01*
X72464000Y-53770000D02*
X72464000Y-52825000D01*
X72464000Y-56395000D02*
X72464000Y-55450000D01*
X72504000Y-53770000D02*
X72504000Y-52802000D01*
X72504000Y-56418000D02*
X72504000Y-55450000D01*
X72544000Y-53770000D02*
X72544000Y-52780000D01*
X72544000Y-56440000D02*
X72544000Y-55450000D01*
X72584000Y-53770000D02*
X72584000Y-52759000D01*
X72584000Y-56461000D02*
X72584000Y-55450000D01*
X72624000Y-53770000D02*
X72624000Y-52740000D01*
X72624000Y-56480000D02*
X72624000Y-55450000D01*
X72664000Y-53770000D02*
X72664000Y-52721000D01*
X72664000Y-56499000D02*
X72664000Y-55450000D01*
X72704000Y-53770000D02*
X72704000Y-52703000D01*
X72704000Y-56517000D02*
X72704000Y-55450000D01*
X72744000Y-53770000D02*
X72744000Y-52686000D01*
X72744000Y-56534000D02*
X72744000Y-55450000D01*
X72784000Y-53770000D02*
X72784000Y-52670000D01*
X72784000Y-56550000D02*
X72784000Y-55450000D01*
X72824000Y-53770000D02*
X72824000Y-52656000D01*
X72824000Y-56564000D02*
X72824000Y-55450000D01*
X72865000Y-53770000D02*
X72865000Y-52642000D01*
X72865000Y-56578000D02*
X72865000Y-55450000D01*
X72905000Y-53770000D02*
X72905000Y-52628000D01*
X72905000Y-56592000D02*
X72905000Y-55450000D01*
X72945000Y-53770000D02*
X72945000Y-52616000D01*
X72945000Y-56604000D02*
X72945000Y-55450000D01*
X72985000Y-53770000D02*
X72985000Y-52605000D01*
X72985000Y-56615000D02*
X72985000Y-55450000D01*
X73025000Y-53770000D02*
X73025000Y-52594000D01*
X73025000Y-56626000D02*
X73025000Y-55450000D01*
X73065000Y-53770000D02*
X73065000Y-52585000D01*
X73065000Y-56635000D02*
X73065000Y-55450000D01*
X73105000Y-53770000D02*
X73105000Y-52576000D01*
X73105000Y-56644000D02*
X73105000Y-55450000D01*
X73145000Y-53770000D02*
X73145000Y-52568000D01*
X73145000Y-56652000D02*
X73145000Y-55450000D01*
X73185000Y-53770000D02*
X73185000Y-52560000D01*
X73185000Y-56660000D02*
X73185000Y-55450000D01*
X73225000Y-53770000D02*
X73225000Y-52554000D01*
X73225000Y-56666000D02*
X73225000Y-55450000D01*
X73265000Y-53770000D02*
X73265000Y-52548000D01*
X73265000Y-56672000D02*
X73265000Y-55450000D01*
X73305000Y-53770000D02*
X73305000Y-52543000D01*
X73305000Y-56677000D02*
X73305000Y-55450000D01*
X73345000Y-53770000D02*
X73345000Y-52539000D01*
X73345000Y-56681000D02*
X73345000Y-55450000D01*
X73385000Y-53770000D02*
X73385000Y-52536000D01*
X73385000Y-56684000D02*
X73385000Y-55450000D01*
X73425000Y-53770000D02*
X73425000Y-52533000D01*
X73425000Y-56687000D02*
X73425000Y-55450000D01*
X73465000Y-56689000D02*
X73465000Y-55450000D01*
X73465000Y-53770000D02*
X73465000Y-52531000D01*
X73505000Y-56690000D02*
X73505000Y-55450000D01*
X73505000Y-53770000D02*
X73505000Y-52530000D01*
X73545000Y-56690000D02*
X73545000Y-55450000D01*
X73545000Y-53770000D02*
X73545000Y-52530000D01*
X75665000Y-54610000D02*
G75*
G03X75665000Y-54610000I-2120000J0D01*
G01*
X81329801Y-51560000D02*
X81329801Y-51160000D01*
X81529801Y-51360000D02*
X81129801Y-51360000D01*
X77179000Y-50535000D02*
X77179000Y-49795000D01*
X77219000Y-50702000D02*
X77219000Y-49628000D01*
X77259000Y-50829000D02*
X77259000Y-49501000D01*
X77299000Y-50933000D02*
X77299000Y-49397000D01*
X77339000Y-51024000D02*
X77339000Y-49306000D01*
X77379000Y-51105000D02*
X77379000Y-49225000D01*
X77419000Y-51178000D02*
X77419000Y-49152000D01*
X77459000Y-51245000D02*
X77459000Y-49085000D01*
X77499000Y-51307000D02*
X77499000Y-49023000D01*
X77539000Y-51365000D02*
X77539000Y-48965000D01*
X77579000Y-51419000D02*
X77579000Y-48911000D01*
X77619000Y-51469000D02*
X77619000Y-48861000D01*
X77659000Y-51516000D02*
X77659000Y-48814000D01*
X77699000Y-49325000D02*
X77699000Y-48769000D01*
X77699000Y-51561000D02*
X77699000Y-51005000D01*
X77739000Y-49325000D02*
X77739000Y-48727000D01*
X77739000Y-51603000D02*
X77739000Y-51005000D01*
X77779000Y-49325000D02*
X77779000Y-48687000D01*
X77779000Y-51643000D02*
X77779000Y-51005000D01*
X77819000Y-49325000D02*
X77819000Y-48649000D01*
X77819000Y-51681000D02*
X77819000Y-51005000D01*
X77859000Y-49325000D02*
X77859000Y-48613000D01*
X77859000Y-51717000D02*
X77859000Y-51005000D01*
X77899000Y-49325000D02*
X77899000Y-48578000D01*
X77899000Y-51752000D02*
X77899000Y-51005000D01*
X77939000Y-49325000D02*
X77939000Y-48546000D01*
X77939000Y-51784000D02*
X77939000Y-51005000D01*
X77979000Y-49325000D02*
X77979000Y-48515000D01*
X77979000Y-51815000D02*
X77979000Y-51005000D01*
X78019000Y-49325000D02*
X78019000Y-48485000D01*
X78019000Y-51845000D02*
X78019000Y-51005000D01*
X78059000Y-49325000D02*
X78059000Y-48457000D01*
X78059000Y-51873000D02*
X78059000Y-51005000D01*
X78099000Y-49325000D02*
X78099000Y-48430000D01*
X78099000Y-51900000D02*
X78099000Y-51005000D01*
X78139000Y-49325000D02*
X78139000Y-48405000D01*
X78139000Y-51925000D02*
X78139000Y-51005000D01*
X78179000Y-49325000D02*
X78179000Y-48380000D01*
X78179000Y-51950000D02*
X78179000Y-51005000D01*
X78219000Y-49325000D02*
X78219000Y-48357000D01*
X78219000Y-51973000D02*
X78219000Y-51005000D01*
X78259000Y-49325000D02*
X78259000Y-48335000D01*
X78259000Y-51995000D02*
X78259000Y-51005000D01*
X78299000Y-49325000D02*
X78299000Y-48314000D01*
X78299000Y-52016000D02*
X78299000Y-51005000D01*
X78339000Y-49325000D02*
X78339000Y-48295000D01*
X78339000Y-52035000D02*
X78339000Y-51005000D01*
X78379000Y-49325000D02*
X78379000Y-48276000D01*
X78379000Y-52054000D02*
X78379000Y-51005000D01*
X78419000Y-49325000D02*
X78419000Y-48258000D01*
X78419000Y-52072000D02*
X78419000Y-51005000D01*
X78459000Y-49325000D02*
X78459000Y-48241000D01*
X78459000Y-52089000D02*
X78459000Y-51005000D01*
X78499000Y-49325000D02*
X78499000Y-48225000D01*
X78499000Y-52105000D02*
X78499000Y-51005000D01*
X78539000Y-49325000D02*
X78539000Y-48211000D01*
X78539000Y-52119000D02*
X78539000Y-51005000D01*
X78580000Y-49325000D02*
X78580000Y-48197000D01*
X78580000Y-52133000D02*
X78580000Y-51005000D01*
X78620000Y-49325000D02*
X78620000Y-48183000D01*
X78620000Y-52147000D02*
X78620000Y-51005000D01*
X78660000Y-49325000D02*
X78660000Y-48171000D01*
X78660000Y-52159000D02*
X78660000Y-51005000D01*
X78700000Y-49325000D02*
X78700000Y-48160000D01*
X78700000Y-52170000D02*
X78700000Y-51005000D01*
X78740000Y-49325000D02*
X78740000Y-48149000D01*
X78740000Y-52181000D02*
X78740000Y-51005000D01*
X78780000Y-49325000D02*
X78780000Y-48140000D01*
X78780000Y-52190000D02*
X78780000Y-51005000D01*
X78820000Y-49325000D02*
X78820000Y-48131000D01*
X78820000Y-52199000D02*
X78820000Y-51005000D01*
X78860000Y-49325000D02*
X78860000Y-48123000D01*
X78860000Y-52207000D02*
X78860000Y-51005000D01*
X78900000Y-49325000D02*
X78900000Y-48115000D01*
X78900000Y-52215000D02*
X78900000Y-51005000D01*
X78940000Y-49325000D02*
X78940000Y-48109000D01*
X78940000Y-52221000D02*
X78940000Y-51005000D01*
X78980000Y-49325000D02*
X78980000Y-48103000D01*
X78980000Y-52227000D02*
X78980000Y-51005000D01*
X79020000Y-49325000D02*
X79020000Y-48098000D01*
X79020000Y-52232000D02*
X79020000Y-51005000D01*
X79060000Y-49325000D02*
X79060000Y-48094000D01*
X79060000Y-52236000D02*
X79060000Y-51005000D01*
X79100000Y-49325000D02*
X79100000Y-48091000D01*
X79100000Y-52239000D02*
X79100000Y-51005000D01*
X79140000Y-49325000D02*
X79140000Y-48088000D01*
X79140000Y-52242000D02*
X79140000Y-51005000D01*
X79180000Y-52244000D02*
X79180000Y-51005000D01*
X79180000Y-49325000D02*
X79180000Y-48086000D01*
X79220000Y-52245000D02*
X79220000Y-51005000D01*
X79220000Y-49325000D02*
X79220000Y-48085000D01*
X79260000Y-52245000D02*
X79260000Y-51005000D01*
X79260000Y-49325000D02*
X79260000Y-48085000D01*
X81380000Y-50165000D02*
G75*
G03X81380000Y-50165000I-2120000J0D01*
G01*
X75614801Y-47115000D02*
X75614801Y-46715000D01*
X75814801Y-46915000D02*
X75414801Y-46915000D01*
X71464000Y-46090000D02*
X71464000Y-45350000D01*
X71504000Y-46257000D02*
X71504000Y-45183000D01*
X71544000Y-46384000D02*
X71544000Y-45056000D01*
X71584000Y-46488000D02*
X71584000Y-44952000D01*
X71624000Y-46579000D02*
X71624000Y-44861000D01*
X71664000Y-46660000D02*
X71664000Y-44780000D01*
X71704000Y-46733000D02*
X71704000Y-44707000D01*
X71744000Y-46800000D02*
X71744000Y-44640000D01*
X71784000Y-46862000D02*
X71784000Y-44578000D01*
X71824000Y-46920000D02*
X71824000Y-44520000D01*
X71864000Y-46974000D02*
X71864000Y-44466000D01*
X71904000Y-47024000D02*
X71904000Y-44416000D01*
X71944000Y-47071000D02*
X71944000Y-44369000D01*
X71984000Y-44880000D02*
X71984000Y-44324000D01*
X71984000Y-47116000D02*
X71984000Y-46560000D01*
X72024000Y-44880000D02*
X72024000Y-44282000D01*
X72024000Y-47158000D02*
X72024000Y-46560000D01*
X72064000Y-44880000D02*
X72064000Y-44242000D01*
X72064000Y-47198000D02*
X72064000Y-46560000D01*
X72104000Y-44880000D02*
X72104000Y-44204000D01*
X72104000Y-47236000D02*
X72104000Y-46560000D01*
X72144000Y-44880000D02*
X72144000Y-44168000D01*
X72144000Y-47272000D02*
X72144000Y-46560000D01*
X72184000Y-44880000D02*
X72184000Y-44133000D01*
X72184000Y-47307000D02*
X72184000Y-46560000D01*
X72224000Y-44880000D02*
X72224000Y-44101000D01*
X72224000Y-47339000D02*
X72224000Y-46560000D01*
X72264000Y-44880000D02*
X72264000Y-44070000D01*
X72264000Y-47370000D02*
X72264000Y-46560000D01*
X72304000Y-44880000D02*
X72304000Y-44040000D01*
X72304000Y-47400000D02*
X72304000Y-46560000D01*
X72344000Y-44880000D02*
X72344000Y-44012000D01*
X72344000Y-47428000D02*
X72344000Y-46560000D01*
X72384000Y-44880000D02*
X72384000Y-43985000D01*
X72384000Y-47455000D02*
X72384000Y-46560000D01*
X72424000Y-44880000D02*
X72424000Y-43960000D01*
X72424000Y-47480000D02*
X72424000Y-46560000D01*
X72464000Y-44880000D02*
X72464000Y-43935000D01*
X72464000Y-47505000D02*
X72464000Y-46560000D01*
X72504000Y-44880000D02*
X72504000Y-43912000D01*
X72504000Y-47528000D02*
X72504000Y-46560000D01*
X72544000Y-44880000D02*
X72544000Y-43890000D01*
X72544000Y-47550000D02*
X72544000Y-46560000D01*
X72584000Y-44880000D02*
X72584000Y-43869000D01*
X72584000Y-47571000D02*
X72584000Y-46560000D01*
X72624000Y-44880000D02*
X72624000Y-43850000D01*
X72624000Y-47590000D02*
X72624000Y-46560000D01*
X72664000Y-44880000D02*
X72664000Y-43831000D01*
X72664000Y-47609000D02*
X72664000Y-46560000D01*
X72704000Y-44880000D02*
X72704000Y-43813000D01*
X72704000Y-47627000D02*
X72704000Y-46560000D01*
X72744000Y-44880000D02*
X72744000Y-43796000D01*
X72744000Y-47644000D02*
X72744000Y-46560000D01*
X72784000Y-44880000D02*
X72784000Y-43780000D01*
X72784000Y-47660000D02*
X72784000Y-46560000D01*
X72824000Y-44880000D02*
X72824000Y-43766000D01*
X72824000Y-47674000D02*
X72824000Y-46560000D01*
X72865000Y-44880000D02*
X72865000Y-43752000D01*
X72865000Y-47688000D02*
X72865000Y-46560000D01*
X72905000Y-44880000D02*
X72905000Y-43738000D01*
X72905000Y-47702000D02*
X72905000Y-46560000D01*
X72945000Y-44880000D02*
X72945000Y-43726000D01*
X72945000Y-47714000D02*
X72945000Y-46560000D01*
X72985000Y-44880000D02*
X72985000Y-43715000D01*
X72985000Y-47725000D02*
X72985000Y-46560000D01*
X73025000Y-44880000D02*
X73025000Y-43704000D01*
X73025000Y-47736000D02*
X73025000Y-46560000D01*
X73065000Y-44880000D02*
X73065000Y-43695000D01*
X73065000Y-47745000D02*
X73065000Y-46560000D01*
X73105000Y-44880000D02*
X73105000Y-43686000D01*
X73105000Y-47754000D02*
X73105000Y-46560000D01*
X73145000Y-44880000D02*
X73145000Y-43678000D01*
X73145000Y-47762000D02*
X73145000Y-46560000D01*
X73185000Y-44880000D02*
X73185000Y-43670000D01*
X73185000Y-47770000D02*
X73185000Y-46560000D01*
X73225000Y-44880000D02*
X73225000Y-43664000D01*
X73225000Y-47776000D02*
X73225000Y-46560000D01*
X73265000Y-44880000D02*
X73265000Y-43658000D01*
X73265000Y-47782000D02*
X73265000Y-46560000D01*
X73305000Y-44880000D02*
X73305000Y-43653000D01*
X73305000Y-47787000D02*
X73305000Y-46560000D01*
X73345000Y-44880000D02*
X73345000Y-43649000D01*
X73345000Y-47791000D02*
X73345000Y-46560000D01*
X73385000Y-44880000D02*
X73385000Y-43646000D01*
X73385000Y-47794000D02*
X73385000Y-46560000D01*
X73425000Y-44880000D02*
X73425000Y-43643000D01*
X73425000Y-47797000D02*
X73425000Y-46560000D01*
X73465000Y-47799000D02*
X73465000Y-46560000D01*
X73465000Y-44880000D02*
X73465000Y-43641000D01*
X73505000Y-47800000D02*
X73505000Y-46560000D01*
X73505000Y-44880000D02*
X73505000Y-43640000D01*
X73545000Y-47800000D02*
X73545000Y-46560000D01*
X73545000Y-44880000D02*
X73545000Y-43640000D01*
X75665000Y-45720000D02*
G75*
G03X75665000Y-45720000I-2120000J0D01*
G01*
X47565000Y-62120000D02*
X47565000Y-63770000D01*
X68005000Y-62120000D02*
X47565000Y-62120000D01*
X68005000Y-67420000D02*
X68005000Y-62120000D01*
X47565000Y-67420000D02*
X68005000Y-67420000D01*
X47565000Y-65770000D02*
X47565000Y-67420000D01*
X47565000Y-63770000D02*
G75*
G02X47565000Y-65770000I0J-1000000D01*
G01*
X80591000Y-34195000D02*
X80591000Y-35705000D01*
X76890000Y-34195000D02*
X76890000Y-35705000D01*
X73620000Y-35705000D02*
X83860000Y-35705000D01*
X83860000Y-34195000D02*
X83860000Y-38836000D01*
X73620000Y-34195000D02*
X73620000Y-38836000D01*
X73620000Y-38836000D02*
X83860000Y-38836000D01*
X73620000Y-34195000D02*
X83860000Y-34195000D01*
X43275000Y-64770000D02*
G75*
G03X43275000Y-64770000I-2000000J0D01*
G01*
X37465000Y-69850000D02*
X45085000Y-69850000D01*
X37465000Y-59690000D02*
X37465000Y-69850000D01*
X37465000Y-59690000D02*
X45085000Y-59690000D01*
X45085000Y-69850000D02*
X45085000Y-59690000D01*
X75450000Y-69640000D02*
X75450000Y-67520000D01*
X73390000Y-69640000D02*
X75450000Y-69640000D01*
X73390000Y-67520000D02*
X75450000Y-67520000D01*
X73390000Y-69640000D02*
X73390000Y-67520000D01*
X72390000Y-69640000D02*
X71330000Y-69640000D01*
X71330000Y-69640000D02*
X71330000Y-68580000D01*
X71330000Y-63925000D02*
X71330000Y-62865000D01*
X72390000Y-63925000D02*
X71330000Y-63925000D01*
X73390000Y-63925000D02*
X73390000Y-61805000D01*
X73390000Y-61805000D02*
X75450000Y-61805000D01*
X73390000Y-63925000D02*
X75450000Y-63925000D01*
X75450000Y-63925000D02*
X75450000Y-61805000D01*
X65755000Y-39385000D02*
X65755000Y-35545000D01*
X67595000Y-39385000D02*
X67595000Y-35545000D01*
D12*
X65207380Y-55411666D02*
X64731190Y-55745000D01*
X65207380Y-55983095D02*
X64207380Y-55983095D01*
X64207380Y-55602142D01*
X64255000Y-55506904D01*
X64302619Y-55459285D01*
X64397857Y-55411666D01*
X64540714Y-55411666D01*
X64635952Y-55459285D01*
X64683571Y-55506904D01*
X64731190Y-55602142D01*
X64731190Y-55983095D01*
X64207380Y-55078333D02*
X64207380Y-54459285D01*
X64588333Y-54792619D01*
X64588333Y-54649761D01*
X64635952Y-54554523D01*
X64683571Y-54506904D01*
X64778809Y-54459285D01*
X65016904Y-54459285D01*
X65112142Y-54506904D01*
X65159761Y-54554523D01*
X65207380Y-54649761D01*
X65207380Y-54935476D01*
X65159761Y-55030714D01*
X65112142Y-55078333D01*
X87447380Y-40608095D02*
X86447380Y-40608095D01*
X86447380Y-40370000D01*
X86495000Y-40227142D01*
X86590238Y-40131904D01*
X86685476Y-40084285D01*
X86875952Y-40036666D01*
X87018809Y-40036666D01*
X87209285Y-40084285D01*
X87304523Y-40131904D01*
X87399761Y-40227142D01*
X87447380Y-40370000D01*
X87447380Y-40608095D01*
X87352142Y-39036666D02*
X87399761Y-39084285D01*
X87447380Y-39227142D01*
X87447380Y-39322380D01*
X87399761Y-39465238D01*
X87304523Y-39560476D01*
X87209285Y-39608095D01*
X87018809Y-39655714D01*
X86875952Y-39655714D01*
X86685476Y-39608095D01*
X86590238Y-39560476D01*
X86495000Y-39465238D01*
X86447380Y-39322380D01*
X86447380Y-39227142D01*
X86495000Y-39084285D01*
X86542619Y-39036666D01*
X87447380Y-38084285D02*
X87447380Y-38655714D01*
X87447380Y-38370000D02*
X86447380Y-38370000D01*
X86590238Y-38465238D01*
X86685476Y-38560476D01*
X86733095Y-38655714D01*
X86022380Y-52173095D02*
X85022380Y-52173095D01*
X85022380Y-51792142D01*
X85070000Y-51696904D01*
X85117619Y-51649285D01*
X85212857Y-51601666D01*
X85355714Y-51601666D01*
X85450952Y-51649285D01*
X85498571Y-51696904D01*
X85546190Y-51792142D01*
X85546190Y-52173095D01*
X85022380Y-51268333D02*
X85022380Y-50601666D01*
X86022380Y-51030238D01*
X86022380Y-57888095D02*
X85022380Y-57888095D01*
X85022380Y-57507142D01*
X85070000Y-57411904D01*
X85117619Y-57364285D01*
X85212857Y-57316666D01*
X85355714Y-57316666D01*
X85450952Y-57364285D01*
X85498571Y-57411904D01*
X85546190Y-57507142D01*
X85546190Y-57888095D01*
X85022380Y-56459523D02*
X85022380Y-56650000D01*
X85070000Y-56745238D01*
X85117619Y-56792857D01*
X85260476Y-56888095D01*
X85450952Y-56935714D01*
X85831904Y-56935714D01*
X85927142Y-56888095D01*
X85974761Y-56840476D01*
X86022380Y-56745238D01*
X86022380Y-56554761D01*
X85974761Y-56459523D01*
X85927142Y-56411904D01*
X85831904Y-56364285D01*
X85593809Y-56364285D01*
X85498571Y-56411904D01*
X85450952Y-56459523D01*
X85403333Y-56554761D01*
X85403333Y-56745238D01*
X85450952Y-56840476D01*
X85498571Y-56888095D01*
X85593809Y-56935714D01*
X86022380Y-63603095D02*
X85022380Y-63603095D01*
X85022380Y-63222142D01*
X85070000Y-63126904D01*
X85117619Y-63079285D01*
X85212857Y-63031666D01*
X85355714Y-63031666D01*
X85450952Y-63079285D01*
X85498571Y-63126904D01*
X85546190Y-63222142D01*
X85546190Y-63603095D01*
X85022380Y-62126904D02*
X85022380Y-62603095D01*
X85498571Y-62650714D01*
X85450952Y-62603095D01*
X85403333Y-62507857D01*
X85403333Y-62269761D01*
X85450952Y-62174523D01*
X85498571Y-62126904D01*
X85593809Y-62079285D01*
X85831904Y-62079285D01*
X85927142Y-62126904D01*
X85974761Y-62174523D01*
X86022380Y-62269761D01*
X86022380Y-62507857D01*
X85974761Y-62603095D01*
X85927142Y-62650714D01*
X86022380Y-69318095D02*
X85022380Y-69318095D01*
X85022380Y-68937142D01*
X85070000Y-68841904D01*
X85117619Y-68794285D01*
X85212857Y-68746666D01*
X85355714Y-68746666D01*
X85450952Y-68794285D01*
X85498571Y-68841904D01*
X85546190Y-68937142D01*
X85546190Y-69318095D01*
X85355714Y-67889523D02*
X86022380Y-67889523D01*
X84974761Y-68127619D02*
X85689047Y-68365714D01*
X85689047Y-67746666D01*
X103322380Y-54585952D02*
X102846190Y-54919285D01*
X103322380Y-55157380D02*
X102322380Y-55157380D01*
X102322380Y-54776428D01*
X102370000Y-54681190D01*
X102417619Y-54633571D01*
X102512857Y-54585952D01*
X102655714Y-54585952D01*
X102750952Y-54633571D01*
X102798571Y-54681190D01*
X102846190Y-54776428D01*
X102846190Y-55157380D01*
X102798571Y-54157380D02*
X102798571Y-53824047D01*
X103322380Y-53681190D02*
X103322380Y-54157380D01*
X102322380Y-54157380D01*
X102322380Y-53681190D01*
X103322380Y-52776428D02*
X103322380Y-53252619D01*
X102322380Y-53252619D01*
X103036666Y-52490714D02*
X103036666Y-52014523D01*
X103322380Y-52585952D02*
X102322380Y-52252619D01*
X103322380Y-51919285D01*
X102846190Y-51395476D02*
X103322380Y-51395476D01*
X102322380Y-51728809D02*
X102846190Y-51395476D01*
X102322380Y-51062142D01*
X102322380Y-50538333D02*
X102322380Y-50443095D01*
X102370000Y-50347857D01*
X102417619Y-50300238D01*
X102512857Y-50252619D01*
X102703333Y-50205000D01*
X102941428Y-50205000D01*
X103131904Y-50252619D01*
X103227142Y-50300238D01*
X103274761Y-50347857D01*
X103322380Y-50443095D01*
X103322380Y-50538333D01*
X103274761Y-50633571D01*
X103227142Y-50681190D01*
X103131904Y-50728809D01*
X102941428Y-50776428D01*
X102703333Y-50776428D01*
X102512857Y-50728809D01*
X102417619Y-50681190D01*
X102370000Y-50633571D01*
X102322380Y-50538333D01*
X103322380Y-62840952D02*
X102846190Y-63174285D01*
X103322380Y-63412380D02*
X102322380Y-63412380D01*
X102322380Y-63031428D01*
X102370000Y-62936190D01*
X102417619Y-62888571D01*
X102512857Y-62840952D01*
X102655714Y-62840952D01*
X102750952Y-62888571D01*
X102798571Y-62936190D01*
X102846190Y-63031428D01*
X102846190Y-63412380D01*
X102798571Y-62412380D02*
X102798571Y-62079047D01*
X103322380Y-61936190D02*
X103322380Y-62412380D01*
X102322380Y-62412380D01*
X102322380Y-61936190D01*
X103322380Y-61031428D02*
X103322380Y-61507619D01*
X102322380Y-61507619D01*
X103036666Y-60745714D02*
X103036666Y-60269523D01*
X103322380Y-60840952D02*
X102322380Y-60507619D01*
X103322380Y-60174285D01*
X102846190Y-59650476D02*
X103322380Y-59650476D01*
X102322380Y-59983809D02*
X102846190Y-59650476D01*
X102322380Y-59317142D01*
X103322380Y-58460000D02*
X103322380Y-59031428D01*
X103322380Y-58745714D02*
X102322380Y-58745714D01*
X102465238Y-58840952D01*
X102560476Y-58936190D01*
X102608095Y-59031428D01*
X78402380Y-63603095D02*
X77402380Y-63603095D01*
X77402380Y-63222142D01*
X77450000Y-63126904D01*
X77497619Y-63079285D01*
X77592857Y-63031666D01*
X77735714Y-63031666D01*
X77830952Y-63079285D01*
X77878571Y-63126904D01*
X77926190Y-63222142D01*
X77926190Y-63603095D01*
X77402380Y-62698333D02*
X77402380Y-62079285D01*
X77783333Y-62412619D01*
X77783333Y-62269761D01*
X77830952Y-62174523D01*
X77878571Y-62126904D01*
X77973809Y-62079285D01*
X78211904Y-62079285D01*
X78307142Y-62126904D01*
X78354761Y-62174523D01*
X78402380Y-62269761D01*
X78402380Y-62555476D01*
X78354761Y-62650714D01*
X78307142Y-62698333D01*
X78402380Y-69318095D02*
X77402380Y-69318095D01*
X77402380Y-68937142D01*
X77450000Y-68841904D01*
X77497619Y-68794285D01*
X77592857Y-68746666D01*
X77735714Y-68746666D01*
X77830952Y-68794285D01*
X77878571Y-68841904D01*
X77926190Y-68937142D01*
X77926190Y-69318095D01*
X77497619Y-68365714D02*
X77450000Y-68318095D01*
X77402380Y-68222857D01*
X77402380Y-67984761D01*
X77450000Y-67889523D01*
X77497619Y-67841904D01*
X77592857Y-67794285D01*
X77688095Y-67794285D01*
X77830952Y-67841904D01*
X78402380Y-68413333D01*
X78402380Y-67794285D01*
X39671666Y-52792380D02*
X39671666Y-53506666D01*
X39624047Y-53649523D01*
X39528809Y-53744761D01*
X39385952Y-53792380D01*
X39290714Y-53792380D01*
X40100238Y-52887619D02*
X40147857Y-52840000D01*
X40243095Y-52792380D01*
X40481190Y-52792380D01*
X40576428Y-52840000D01*
X40624047Y-52887619D01*
X40671666Y-52982857D01*
X40671666Y-53078095D01*
X40624047Y-53220952D01*
X40052619Y-53792380D01*
X40671666Y-53792380D01*
X65207380Y-46521666D02*
X64731190Y-46855000D01*
X65207380Y-47093095D02*
X64207380Y-47093095D01*
X64207380Y-46712142D01*
X64255000Y-46616904D01*
X64302619Y-46569285D01*
X64397857Y-46521666D01*
X64540714Y-46521666D01*
X64635952Y-46569285D01*
X64683571Y-46616904D01*
X64731190Y-46712142D01*
X64731190Y-47093095D01*
X64302619Y-46140714D02*
X64255000Y-46093095D01*
X64207380Y-45997857D01*
X64207380Y-45759761D01*
X64255000Y-45664523D01*
X64302619Y-45616904D01*
X64397857Y-45569285D01*
X64493095Y-45569285D01*
X64635952Y-45616904D01*
X65207380Y-46188333D01*
X65207380Y-45569285D01*
X50038095Y-32472380D02*
X50038095Y-33281904D01*
X50085714Y-33377142D01*
X50133333Y-33424761D01*
X50228571Y-33472380D01*
X50419047Y-33472380D01*
X50514285Y-33424761D01*
X50561904Y-33377142D01*
X50609523Y-33281904D01*
X50609523Y-32472380D01*
X51038095Y-32567619D02*
X51085714Y-32520000D01*
X51180952Y-32472380D01*
X51419047Y-32472380D01*
X51514285Y-32520000D01*
X51561904Y-32567619D01*
X51609523Y-32662857D01*
X51609523Y-32758095D01*
X51561904Y-32900952D01*
X50990476Y-33472380D01*
X51609523Y-33472380D01*
X73378333Y-58217142D02*
X73330714Y-58264761D01*
X73187857Y-58312380D01*
X73092619Y-58312380D01*
X72949761Y-58264761D01*
X72854523Y-58169523D01*
X72806904Y-58074285D01*
X72759285Y-57883809D01*
X72759285Y-57740952D01*
X72806904Y-57550476D01*
X72854523Y-57455238D01*
X72949761Y-57360000D01*
X73092619Y-57312380D01*
X73187857Y-57312380D01*
X73330714Y-57360000D01*
X73378333Y-57407619D01*
X73711666Y-57312380D02*
X74330714Y-57312380D01*
X73997380Y-57693333D01*
X74140238Y-57693333D01*
X74235476Y-57740952D01*
X74283095Y-57788571D01*
X74330714Y-57883809D01*
X74330714Y-58121904D01*
X74283095Y-58217142D01*
X74235476Y-58264761D01*
X74140238Y-58312380D01*
X73854523Y-58312380D01*
X73759285Y-58264761D01*
X73711666Y-58217142D01*
X79093333Y-53772142D02*
X79045714Y-53819761D01*
X78902857Y-53867380D01*
X78807619Y-53867380D01*
X78664761Y-53819761D01*
X78569523Y-53724523D01*
X78521904Y-53629285D01*
X78474285Y-53438809D01*
X78474285Y-53295952D01*
X78521904Y-53105476D01*
X78569523Y-53010238D01*
X78664761Y-52915000D01*
X78807619Y-52867380D01*
X78902857Y-52867380D01*
X79045714Y-52915000D01*
X79093333Y-52962619D01*
X79474285Y-52962619D02*
X79521904Y-52915000D01*
X79617142Y-52867380D01*
X79855238Y-52867380D01*
X79950476Y-52915000D01*
X79998095Y-52962619D01*
X80045714Y-53057857D01*
X80045714Y-53153095D01*
X79998095Y-53295952D01*
X79426666Y-53867380D01*
X80045714Y-53867380D01*
X73378333Y-49327142D02*
X73330714Y-49374761D01*
X73187857Y-49422380D01*
X73092619Y-49422380D01*
X72949761Y-49374761D01*
X72854523Y-49279523D01*
X72806904Y-49184285D01*
X72759285Y-48993809D01*
X72759285Y-48850952D01*
X72806904Y-48660476D01*
X72854523Y-48565238D01*
X72949761Y-48470000D01*
X73092619Y-48422380D01*
X73187857Y-48422380D01*
X73330714Y-48470000D01*
X73378333Y-48517619D01*
X74330714Y-49422380D02*
X73759285Y-49422380D01*
X74045000Y-49422380D02*
X74045000Y-48422380D01*
X73949761Y-48565238D01*
X73854523Y-48660476D01*
X73759285Y-48708095D01*
X46017380Y-65531904D02*
X46826904Y-65531904D01*
X46922142Y-65484285D01*
X46969761Y-65436666D01*
X47017380Y-65341428D01*
X47017380Y-65150952D01*
X46969761Y-65055714D01*
X46922142Y-65008095D01*
X46826904Y-64960476D01*
X46017380Y-64960476D01*
X46017380Y-64579523D02*
X46017380Y-63960476D01*
X46398333Y-64293809D01*
X46398333Y-64150952D01*
X46445952Y-64055714D01*
X46493571Y-64008095D01*
X46588809Y-63960476D01*
X46826904Y-63960476D01*
X46922142Y-64008095D01*
X46969761Y-64055714D01*
X47017380Y-64150952D01*
X47017380Y-64436666D01*
X46969761Y-64531904D01*
X46922142Y-64579523D01*
X84328095Y-34377380D02*
X84328095Y-35186904D01*
X84375714Y-35282142D01*
X84423333Y-35329761D01*
X84518571Y-35377380D01*
X84709047Y-35377380D01*
X84804285Y-35329761D01*
X84851904Y-35282142D01*
X84899523Y-35186904D01*
X84899523Y-34377380D01*
X85899523Y-35377380D02*
X85328095Y-35377380D01*
X85613809Y-35377380D02*
X85613809Y-34377380D01*
X85518571Y-34520238D01*
X85423333Y-34615476D01*
X85328095Y-34663095D01*
X39346428Y-59412380D02*
X39013095Y-58936190D01*
X38775000Y-59412380D02*
X38775000Y-58412380D01*
X39155952Y-58412380D01*
X39251190Y-58460000D01*
X39298809Y-58507619D01*
X39346428Y-58602857D01*
X39346428Y-58745714D01*
X39298809Y-58840952D01*
X39251190Y-58888571D01*
X39155952Y-58936190D01*
X38775000Y-58936190D01*
X39775000Y-58888571D02*
X40108333Y-58888571D01*
X40251190Y-59412380D02*
X39775000Y-59412380D01*
X39775000Y-58412380D01*
X40251190Y-58412380D01*
X40632142Y-59364761D02*
X40775000Y-59412380D01*
X41013095Y-59412380D01*
X41108333Y-59364761D01*
X41155952Y-59317142D01*
X41203571Y-59221904D01*
X41203571Y-59126666D01*
X41155952Y-59031428D01*
X41108333Y-58983809D01*
X41013095Y-58936190D01*
X40822619Y-58888571D01*
X40727380Y-58840952D01*
X40679761Y-58793333D01*
X40632142Y-58698095D01*
X40632142Y-58602857D01*
X40679761Y-58507619D01*
X40727380Y-58460000D01*
X40822619Y-58412380D01*
X41060714Y-58412380D01*
X41203571Y-58460000D01*
X41632142Y-58888571D02*
X41965476Y-58888571D01*
X42108333Y-59412380D02*
X41632142Y-59412380D01*
X41632142Y-58412380D01*
X42108333Y-58412380D01*
X42394047Y-58412380D02*
X42965476Y-58412380D01*
X42679761Y-59412380D02*
X42679761Y-58412380D01*
X43822619Y-59412380D02*
X43251190Y-59412380D01*
X43536904Y-59412380D02*
X43536904Y-58412380D01*
X43441666Y-58555238D01*
X43346428Y-58650476D01*
X43251190Y-58698095D01*
X70782380Y-69318095D02*
X69782380Y-69318095D01*
X69782380Y-68937142D01*
X69830000Y-68841904D01*
X69877619Y-68794285D01*
X69972857Y-68746666D01*
X70115714Y-68746666D01*
X70210952Y-68794285D01*
X70258571Y-68841904D01*
X70306190Y-68937142D01*
X70306190Y-69318095D01*
X69782380Y-68127619D02*
X69782380Y-68032380D01*
X69830000Y-67937142D01*
X69877619Y-67889523D01*
X69972857Y-67841904D01*
X70163333Y-67794285D01*
X70401428Y-67794285D01*
X70591904Y-67841904D01*
X70687142Y-67889523D01*
X70734761Y-67937142D01*
X70782380Y-68032380D01*
X70782380Y-68127619D01*
X70734761Y-68222857D01*
X70687142Y-68270476D01*
X70591904Y-68318095D01*
X70401428Y-68365714D01*
X70163333Y-68365714D01*
X69972857Y-68318095D01*
X69877619Y-68270476D01*
X69830000Y-68222857D01*
X69782380Y-68127619D01*
X70782380Y-63603095D02*
X69782380Y-63603095D01*
X69782380Y-63222142D01*
X69830000Y-63126904D01*
X69877619Y-63079285D01*
X69972857Y-63031666D01*
X70115714Y-63031666D01*
X70210952Y-63079285D01*
X70258571Y-63126904D01*
X70306190Y-63222142D01*
X70306190Y-63603095D01*
X70782380Y-62079285D02*
X70782380Y-62650714D01*
X70782380Y-62365000D02*
X69782380Y-62365000D01*
X69925238Y-62460238D01*
X70020476Y-62555476D01*
X70068095Y-62650714D01*
X65207380Y-37631666D02*
X64731190Y-37965000D01*
X65207380Y-38203095D02*
X64207380Y-38203095D01*
X64207380Y-37822142D01*
X64255000Y-37726904D01*
X64302619Y-37679285D01*
X64397857Y-37631666D01*
X64540714Y-37631666D01*
X64635952Y-37679285D01*
X64683571Y-37726904D01*
X64731190Y-37822142D01*
X64731190Y-38203095D01*
X65207380Y-36679285D02*
X65207380Y-37250714D01*
X65207380Y-36965000D02*
X64207380Y-36965000D01*
X64350238Y-37060238D01*
X64445476Y-37155476D01*
X64493095Y-37250714D01*
M02*
