G04 #@! TF.GenerationSoftware,KiCad,Pcbnew,(5.1.5-0-10_14)*
G04 #@! TF.CreationDate,2020-05-21T12:23:14-05:00*
G04 #@! TF.ProjectId,esp12e-oven,65737031-3265-42d6-9f76-656e2e6b6963,rev?*
G04 #@! TF.SameCoordinates,Original*
G04 #@! TF.FileFunction,Copper,L2,Bot*
G04 #@! TF.FilePolarity,Positive*
%FSLAX46Y46*%
G04 Gerber Fmt 4.6, Leading zero omitted, Abs format (unit mm)*
G04 Created by KiCad (PCBNEW (5.1.5-0-10_14)) date 2020-05-21 12:23:14*
%MOMM*%
%LPD*%
G04 APERTURE LIST*
%ADD10C,0.100000*%
%ADD11R,3.500000X3.500000*%
%ADD12O,1.350000X1.350000*%
%ADD13R,1.350000X1.350000*%
%ADD14O,1.400000X1.400000*%
%ADD15C,1.400000*%
%ADD16C,1.200000*%
%ADD17R,1.200000X1.200000*%
%ADD18O,1.600000X1.600000*%
%ADD19R,1.600000X1.600000*%
%ADD20O,1.905000X2.000000*%
%ADD21R,1.905000X2.000000*%
%ADD22C,1.778000*%
%ADD23C,0.250000*%
G04 APERTURE END LIST*
G04 #@! TA.AperFunction,ComponentPad*
D10*
G36*
X92860765Y-36734213D02*
G01*
X92945704Y-36746813D01*
X93028999Y-36767677D01*
X93109848Y-36796605D01*
X93187472Y-36833319D01*
X93261124Y-36877464D01*
X93330094Y-36928616D01*
X93393718Y-36986282D01*
X93451384Y-37049906D01*
X93502536Y-37118876D01*
X93546681Y-37192528D01*
X93583395Y-37270152D01*
X93612323Y-37351001D01*
X93633187Y-37434296D01*
X93645787Y-37519235D01*
X93650000Y-37605000D01*
X93650000Y-39355000D01*
X93645787Y-39440765D01*
X93633187Y-39525704D01*
X93612323Y-39608999D01*
X93583395Y-39689848D01*
X93546681Y-39767472D01*
X93502536Y-39841124D01*
X93451384Y-39910094D01*
X93393718Y-39973718D01*
X93330094Y-40031384D01*
X93261124Y-40082536D01*
X93187472Y-40126681D01*
X93109848Y-40163395D01*
X93028999Y-40192323D01*
X92945704Y-40213187D01*
X92860765Y-40225787D01*
X92775000Y-40230000D01*
X91025000Y-40230000D01*
X90939235Y-40225787D01*
X90854296Y-40213187D01*
X90771001Y-40192323D01*
X90690152Y-40163395D01*
X90612528Y-40126681D01*
X90538876Y-40082536D01*
X90469906Y-40031384D01*
X90406282Y-39973718D01*
X90348616Y-39910094D01*
X90297464Y-39841124D01*
X90253319Y-39767472D01*
X90216605Y-39689848D01*
X90187677Y-39608999D01*
X90166813Y-39525704D01*
X90154213Y-39440765D01*
X90150000Y-39355000D01*
X90150000Y-37605000D01*
X90154213Y-37519235D01*
X90166813Y-37434296D01*
X90187677Y-37351001D01*
X90216605Y-37270152D01*
X90253319Y-37192528D01*
X90297464Y-37118876D01*
X90348616Y-37049906D01*
X90406282Y-36986282D01*
X90469906Y-36928616D01*
X90538876Y-36877464D01*
X90612528Y-36833319D01*
X90690152Y-36796605D01*
X90771001Y-36767677D01*
X90854296Y-36746813D01*
X90939235Y-36734213D01*
X91025000Y-36730000D01*
X92775000Y-36730000D01*
X92860765Y-36734213D01*
G37*
G04 #@! TD.AperFunction*
G04 #@! TA.AperFunction,ComponentPad*
G36*
X95723513Y-41433611D02*
G01*
X95796318Y-41444411D01*
X95867714Y-41462295D01*
X95937013Y-41487090D01*
X96003548Y-41518559D01*
X96066678Y-41556398D01*
X96125795Y-41600242D01*
X96180330Y-41649670D01*
X96229758Y-41704205D01*
X96273602Y-41763322D01*
X96311441Y-41826452D01*
X96342910Y-41892987D01*
X96367705Y-41962286D01*
X96385589Y-42033682D01*
X96396389Y-42106487D01*
X96400000Y-42180000D01*
X96400000Y-44180000D01*
X96396389Y-44253513D01*
X96385589Y-44326318D01*
X96367705Y-44397714D01*
X96342910Y-44467013D01*
X96311441Y-44533548D01*
X96273602Y-44596678D01*
X96229758Y-44655795D01*
X96180330Y-44710330D01*
X96125795Y-44759758D01*
X96066678Y-44803602D01*
X96003548Y-44841441D01*
X95937013Y-44872910D01*
X95867714Y-44897705D01*
X95796318Y-44915589D01*
X95723513Y-44926389D01*
X95650000Y-44930000D01*
X94150000Y-44930000D01*
X94076487Y-44926389D01*
X94003682Y-44915589D01*
X93932286Y-44897705D01*
X93862987Y-44872910D01*
X93796452Y-44841441D01*
X93733322Y-44803602D01*
X93674205Y-44759758D01*
X93619670Y-44710330D01*
X93570242Y-44655795D01*
X93526398Y-44596678D01*
X93488559Y-44533548D01*
X93457090Y-44467013D01*
X93432295Y-44397714D01*
X93414411Y-44326318D01*
X93403611Y-44253513D01*
X93400000Y-44180000D01*
X93400000Y-42180000D01*
X93403611Y-42106487D01*
X93414411Y-42033682D01*
X93432295Y-41962286D01*
X93457090Y-41892987D01*
X93488559Y-41826452D01*
X93526398Y-41763322D01*
X93570242Y-41704205D01*
X93619670Y-41649670D01*
X93674205Y-41600242D01*
X93733322Y-41556398D01*
X93796452Y-41518559D01*
X93862987Y-41487090D01*
X93932286Y-41462295D01*
X94003682Y-41444411D01*
X94076487Y-41433611D01*
X94150000Y-41430000D01*
X95650000Y-41430000D01*
X95723513Y-41433611D01*
G37*
G04 #@! TD.AperFunction*
D11*
X88900000Y-43180000D03*
D12*
X89630000Y-51435000D03*
D13*
X87630000Y-51435000D03*
D12*
X89630000Y-57150000D03*
D13*
X87630000Y-57150000D03*
D12*
X89630000Y-62865000D03*
D13*
X87630000Y-62865000D03*
D12*
X89630000Y-68580000D03*
D13*
X87630000Y-68580000D03*
D12*
X93980000Y-50610000D03*
X93980000Y-52610000D03*
D13*
X93980000Y-54610000D03*
D12*
X93980000Y-58865000D03*
X93980000Y-60865000D03*
D13*
X93980000Y-62865000D03*
D12*
X82010000Y-62865000D03*
D13*
X80010000Y-62865000D03*
D12*
X82010000Y-68580000D03*
D13*
X80010000Y-68580000D03*
D12*
X44735000Y-55880000D03*
X42735000Y-55880000D03*
X40735000Y-55880000D03*
D13*
X38735000Y-55880000D03*
D14*
X66675000Y-44450000D03*
D15*
X66675000Y-49530000D03*
D16*
X72795000Y-54610000D03*
D17*
X74295000Y-54610000D03*
D16*
X78510000Y-50165000D03*
D17*
X80010000Y-50165000D03*
D16*
X72795000Y-45720000D03*
D17*
X74295000Y-45720000D03*
D18*
X48895000Y-60960000D03*
X66675000Y-68580000D03*
X51435000Y-60960000D03*
X64135000Y-68580000D03*
X53975000Y-60960000D03*
X61595000Y-68580000D03*
X56515000Y-60960000D03*
X59055000Y-68580000D03*
X59055000Y-60960000D03*
X56515000Y-68580000D03*
X61595000Y-60960000D03*
X53975000Y-68580000D03*
X64135000Y-60960000D03*
X51435000Y-68580000D03*
X66675000Y-60960000D03*
D19*
X48895000Y-68580000D03*
D20*
X81280000Y-37465000D03*
X78740000Y-37465000D03*
D21*
X76200000Y-37465000D03*
D22*
X38735000Y-68580000D03*
X41275000Y-68580000D03*
X43815000Y-68580000D03*
X43815000Y-60960000D03*
X38735000Y-60960000D03*
D13*
X73025000Y-68580000D03*
D12*
X75025000Y-68580000D03*
X75025000Y-62865000D03*
D13*
X73025000Y-62865000D03*
D15*
X66675000Y-40640000D03*
D14*
X66675000Y-35560000D03*
D23*
X74295000Y-48140500D02*
X74295000Y-46645300D01*
X72795000Y-49530000D02*
X74184500Y-48140500D01*
X74184500Y-48140500D02*
X74295000Y-48140500D01*
X74295000Y-48140500D02*
X76144100Y-49989600D01*
X76144100Y-49989600D02*
X78510000Y-49989600D01*
X78510000Y-49989600D02*
X78510000Y-50165000D01*
X89630000Y-51435000D02*
X87434600Y-49239600D01*
X87434600Y-49239600D02*
X79260000Y-49239600D01*
X79260000Y-49239600D02*
X78510000Y-49989600D01*
X84515000Y-66575200D02*
X84515000Y-67075300D01*
X84515000Y-67075300D02*
X83010300Y-68580000D01*
X82010000Y-63865300D02*
X84515000Y-66370300D01*
X84515000Y-66370300D02*
X84515000Y-66575200D01*
X88625500Y-66575100D02*
X88625400Y-66575200D01*
X88625400Y-66575200D02*
X84515000Y-66575200D01*
X89630000Y-62865000D02*
X89630000Y-65570600D01*
X89630000Y-65570600D02*
X88625500Y-66575100D01*
X88625500Y-66575100D02*
X89630000Y-67579700D01*
X89630000Y-68580000D02*
X89630000Y-67579700D01*
X89630000Y-62865000D02*
X92979700Y-62865000D01*
X75025000Y-63865300D02*
X75025000Y-62865000D01*
X75025000Y-68580000D02*
X75025000Y-63865300D01*
X75025000Y-63865300D02*
X82010000Y-63865300D01*
X82010000Y-62865000D02*
X82010000Y-63865300D01*
X48895000Y-60960000D02*
X48895000Y-58590300D01*
X48895000Y-58590300D02*
X45135600Y-54830900D01*
X45135600Y-54830900D02*
X43784100Y-54830900D01*
X43784100Y-54830900D02*
X42735000Y-55880000D01*
X93980000Y-62865000D02*
X92979700Y-62865000D01*
X82010000Y-68580000D02*
X83010300Y-68580000D01*
X72795000Y-54610000D02*
X72795000Y-49530000D01*
X72795000Y-49530000D02*
X66675000Y-49530000D01*
X74295000Y-45257300D02*
X74295000Y-45720000D01*
X74295000Y-45720000D02*
X74295000Y-46645300D01*
X74295000Y-45257300D02*
X74295000Y-44794700D01*
X78740000Y-37465000D02*
X78740000Y-40349700D01*
X78740000Y-40349700D02*
X74295000Y-44794700D01*
X74295000Y-54610000D02*
X75220300Y-54610000D01*
X80010000Y-50165000D02*
X75565000Y-54610000D01*
X75565000Y-54610000D02*
X75220300Y-54610000D01*
X44735000Y-58653200D02*
X50020400Y-63938600D01*
X50020400Y-63938600D02*
X50020400Y-68760300D01*
X50020400Y-68760300D02*
X51450400Y-70190300D01*
X51450400Y-70190300D02*
X59984700Y-70190300D01*
X59984700Y-70190300D02*
X61595000Y-68580000D01*
X44735000Y-58653200D02*
X44735000Y-55880000D01*
X38735000Y-60960000D02*
X41041800Y-58653200D01*
X41041800Y-58653200D02*
X44735000Y-58653200D01*
X76200000Y-37465000D02*
X74922200Y-37465000D01*
X66675000Y-35560000D02*
X73017200Y-35560000D01*
X73017200Y-35560000D02*
X74922200Y-37465000D01*
X92920400Y-56805100D02*
X92920400Y-51669600D01*
X92920400Y-51669600D02*
X93980000Y-50610000D01*
X93980000Y-57864700D02*
X92920400Y-56805100D01*
X92920400Y-56805100D02*
X87860800Y-61864700D01*
X87860800Y-61864700D02*
X72207600Y-61864700D01*
X72207600Y-61864700D02*
X66675000Y-67397300D01*
X66675000Y-67397300D02*
X66675000Y-68580000D01*
X93980000Y-50610000D02*
X93980000Y-49609700D01*
X93980000Y-49609700D02*
X94900000Y-48689700D01*
X94900000Y-48689700D02*
X94900000Y-43180000D01*
X93980000Y-58865000D02*
X93980000Y-57864700D01*
X88900000Y-43180000D02*
X86824700Y-43180000D01*
X81280000Y-37465000D02*
X82557800Y-37465000D01*
X82557800Y-37465000D02*
X86824700Y-41731900D01*
X86824700Y-41731900D02*
X86824700Y-43180000D01*
X52560300Y-68580000D02*
X52560300Y-68861300D01*
X52560300Y-68861300D02*
X53414200Y-69715200D01*
X53414200Y-69715200D02*
X59512900Y-69715200D01*
X59512900Y-69715200D02*
X60325000Y-68903100D01*
X60325000Y-68903100D02*
X60325000Y-68178800D01*
X60325000Y-68178800D02*
X61049200Y-67454600D01*
X61049200Y-67454600D02*
X65717400Y-67454600D01*
X65717400Y-67454600D02*
X76022000Y-57150000D01*
X76022000Y-57150000D02*
X87630000Y-57150000D01*
X51435000Y-68580000D02*
X52560300Y-68580000D01*
X57640300Y-68580000D02*
X57640300Y-68298700D01*
X57640300Y-68298700D02*
X62497600Y-63441400D01*
X62497600Y-63441400D02*
X67819200Y-63441400D01*
X67819200Y-63441400D02*
X79825600Y-51435000D01*
X79825600Y-51435000D02*
X86629700Y-51435000D01*
X87630000Y-51435000D02*
X86629700Y-51435000D01*
X56515000Y-68580000D02*
X57640300Y-68580000D01*
X53975000Y-68580000D02*
X53975000Y-67454700D01*
X66675000Y-40640000D02*
X55100300Y-52214700D01*
X55100300Y-52214700D02*
X55100300Y-66329400D01*
X55100300Y-66329400D02*
X53975000Y-67454700D01*
M02*
