G04 #@! TF.GenerationSoftware,KiCad,Pcbnew,(5.1.5-0-10_14)*
G04 #@! TF.CreationDate,2020-05-21T12:23:14-05:00*
G04 #@! TF.ProjectId,esp12e-oven,65737031-3265-42d6-9f76-656e2e6b6963,rev?*
G04 #@! TF.SameCoordinates,Original*
G04 #@! TF.FileFunction,Legend,Bot*
G04 #@! TF.FilePolarity,Positive*
%FSLAX46Y46*%
G04 Gerber Fmt 4.6, Leading zero omitted, Abs format (unit mm)*
G04 Created by KiCad (PCBNEW (5.1.5-0-10_14)) date 2020-05-21 12:23:14*
%MOMM*%
%LPD*%
G04 APERTURE LIST*
%ADD10C,0.150000*%
G04 APERTURE END LIST*
D10*
X61672857Y-41268571D02*
X61339523Y-41268571D01*
X61196666Y-41792380D02*
X61672857Y-41792380D01*
X61672857Y-40792380D01*
X61196666Y-40792380D01*
X60815714Y-41744761D02*
X60672857Y-41792380D01*
X60434761Y-41792380D01*
X60339523Y-41744761D01*
X60291904Y-41697142D01*
X60244285Y-41601904D01*
X60244285Y-41506666D01*
X60291904Y-41411428D01*
X60339523Y-41363809D01*
X60434761Y-41316190D01*
X60625238Y-41268571D01*
X60720476Y-41220952D01*
X60768095Y-41173333D01*
X60815714Y-41078095D01*
X60815714Y-40982857D01*
X60768095Y-40887619D01*
X60720476Y-40840000D01*
X60625238Y-40792380D01*
X60387142Y-40792380D01*
X60244285Y-40840000D01*
X59815714Y-41792380D02*
X59815714Y-40792380D01*
X59434761Y-40792380D01*
X59339523Y-40840000D01*
X59291904Y-40887619D01*
X59244285Y-40982857D01*
X59244285Y-41125714D01*
X59291904Y-41220952D01*
X59339523Y-41268571D01*
X59434761Y-41316190D01*
X59815714Y-41316190D01*
X58815714Y-41411428D02*
X58053809Y-41411428D01*
X57053809Y-41792380D02*
X57625238Y-41792380D01*
X57339523Y-41792380D02*
X57339523Y-40792380D01*
X57434761Y-40935238D01*
X57530000Y-41030476D01*
X57625238Y-41078095D01*
X56672857Y-40887619D02*
X56625238Y-40840000D01*
X56530000Y-40792380D01*
X56291904Y-40792380D01*
X56196666Y-40840000D01*
X56149047Y-40887619D01*
X56101428Y-40982857D01*
X56101428Y-41078095D01*
X56149047Y-41220952D01*
X56720476Y-41792380D01*
X56101428Y-41792380D01*
X55339523Y-41268571D02*
X55672857Y-41268571D01*
X55672857Y-41792380D02*
X55672857Y-40792380D01*
X55196666Y-40792380D01*
X54101428Y-41744761D02*
X53958571Y-41792380D01*
X53720476Y-41792380D01*
X53625238Y-41744761D01*
X53577619Y-41697142D01*
X53530000Y-41601904D01*
X53530000Y-41506666D01*
X53577619Y-41411428D01*
X53625238Y-41363809D01*
X53720476Y-41316190D01*
X53910952Y-41268571D01*
X54006190Y-41220952D01*
X54053809Y-41173333D01*
X54101428Y-41078095D01*
X54101428Y-40982857D01*
X54053809Y-40887619D01*
X54006190Y-40840000D01*
X53910952Y-40792380D01*
X53672857Y-40792380D01*
X53530000Y-40840000D01*
X53101428Y-41792380D02*
X53101428Y-41125714D01*
X53101428Y-41220952D02*
X53053809Y-41173333D01*
X52958571Y-41125714D01*
X52815714Y-41125714D01*
X52720476Y-41173333D01*
X52672857Y-41268571D01*
X52672857Y-41792380D01*
X52672857Y-41268571D02*
X52625238Y-41173333D01*
X52530000Y-41125714D01*
X52387142Y-41125714D01*
X52291904Y-41173333D01*
X52244285Y-41268571D01*
X52244285Y-41792380D01*
X51625238Y-41792380D02*
X51720476Y-41744761D01*
X51768095Y-41697142D01*
X51815714Y-41601904D01*
X51815714Y-41316190D01*
X51768095Y-41220952D01*
X51720476Y-41173333D01*
X51625238Y-41125714D01*
X51482380Y-41125714D01*
X51387142Y-41173333D01*
X51339523Y-41220952D01*
X51291904Y-41316190D01*
X51291904Y-41601904D01*
X51339523Y-41697142D01*
X51387142Y-41744761D01*
X51482380Y-41792380D01*
X51625238Y-41792380D01*
X50863333Y-41792380D02*
X50863333Y-40792380D01*
X50768095Y-41411428D02*
X50482380Y-41792380D01*
X50482380Y-41125714D02*
X50863333Y-41506666D01*
X49672857Y-41744761D02*
X49768095Y-41792380D01*
X49958571Y-41792380D01*
X50053809Y-41744761D01*
X50101428Y-41649523D01*
X50101428Y-41268571D01*
X50053809Y-41173333D01*
X49958571Y-41125714D01*
X49768095Y-41125714D01*
X49672857Y-41173333D01*
X49625238Y-41268571D01*
X49625238Y-41363809D01*
X50101428Y-41459047D01*
X49196666Y-41792380D02*
X49196666Y-41125714D01*
X49196666Y-41316190D02*
X49149047Y-41220952D01*
X49101428Y-41173333D01*
X49006190Y-41125714D01*
X48910952Y-41125714D01*
X47958571Y-40792380D02*
X47387142Y-40792380D01*
X47672857Y-41792380D02*
X47672857Y-40792380D01*
X46672857Y-41744761D02*
X46768095Y-41792380D01*
X46958571Y-41792380D01*
X47053809Y-41744761D01*
X47101428Y-41649523D01*
X47101428Y-41268571D01*
X47053809Y-41173333D01*
X46958571Y-41125714D01*
X46768095Y-41125714D01*
X46672857Y-41173333D01*
X46625238Y-41268571D01*
X46625238Y-41363809D01*
X47101428Y-41459047D01*
X46053809Y-41792380D02*
X46149047Y-41744761D01*
X46196666Y-41649523D01*
X46196666Y-40792380D01*
X45291904Y-41744761D02*
X45387142Y-41792380D01*
X45577619Y-41792380D01*
X45672857Y-41744761D01*
X45720476Y-41649523D01*
X45720476Y-41268571D01*
X45672857Y-41173333D01*
X45577619Y-41125714D01*
X45387142Y-41125714D01*
X45291904Y-41173333D01*
X45244285Y-41268571D01*
X45244285Y-41363809D01*
X45720476Y-41459047D01*
X44815714Y-41792380D02*
X44815714Y-41125714D01*
X44815714Y-41220952D02*
X44768095Y-41173333D01*
X44672857Y-41125714D01*
X44530000Y-41125714D01*
X44434761Y-41173333D01*
X44387142Y-41268571D01*
X44387142Y-41792380D01*
X44387142Y-41268571D02*
X44339523Y-41173333D01*
X44244285Y-41125714D01*
X44101428Y-41125714D01*
X44006190Y-41173333D01*
X43958571Y-41268571D01*
X43958571Y-41792380D01*
X43101428Y-41744761D02*
X43196666Y-41792380D01*
X43387142Y-41792380D01*
X43482380Y-41744761D01*
X43530000Y-41649523D01*
X43530000Y-41268571D01*
X43482380Y-41173333D01*
X43387142Y-41125714D01*
X43196666Y-41125714D01*
X43101428Y-41173333D01*
X43053809Y-41268571D01*
X43053809Y-41363809D01*
X43530000Y-41459047D01*
X42768095Y-41125714D02*
X42387142Y-41125714D01*
X42625238Y-40792380D02*
X42625238Y-41649523D01*
X42577619Y-41744761D01*
X42482380Y-41792380D01*
X42387142Y-41792380D01*
X42053809Y-41792380D02*
X42053809Y-41125714D01*
X42053809Y-41316190D02*
X42006190Y-41220952D01*
X41958571Y-41173333D01*
X41863333Y-41125714D01*
X41768095Y-41125714D01*
X41530000Y-41125714D02*
X41291904Y-41792380D01*
X41053809Y-41125714D02*
X41291904Y-41792380D01*
X41387142Y-42030476D01*
X41434761Y-42078095D01*
X41530000Y-42125714D01*
X39910952Y-40792380D02*
X39910952Y-41601904D01*
X39863333Y-41697142D01*
X39815714Y-41744761D01*
X39720476Y-41792380D01*
X39530000Y-41792380D01*
X39434761Y-41744761D01*
X39387142Y-41697142D01*
X39339523Y-41601904D01*
X39339523Y-40792380D01*
X38863333Y-41125714D02*
X38863333Y-41792380D01*
X38863333Y-41220952D02*
X38815714Y-41173333D01*
X38720476Y-41125714D01*
X38577619Y-41125714D01*
X38482380Y-41173333D01*
X38434761Y-41268571D01*
X38434761Y-41792380D01*
X37958571Y-41792380D02*
X37958571Y-41125714D01*
X37958571Y-40792380D02*
X38006190Y-40840000D01*
X37958571Y-40887619D01*
X37910952Y-40840000D01*
X37958571Y-40792380D01*
X37958571Y-40887619D01*
X37625238Y-41125714D02*
X37244285Y-41125714D01*
X37482380Y-40792380D02*
X37482380Y-41649523D01*
X37434761Y-41744761D01*
X37339523Y-41792380D01*
X37244285Y-41792380D01*
X62482380Y-42870952D02*
X62577619Y-42823333D01*
X62625238Y-42775714D01*
X62672857Y-42680476D01*
X62672857Y-42632857D01*
X62625238Y-42537619D01*
X62577619Y-42490000D01*
X62482380Y-42442380D01*
X62291904Y-42442380D01*
X62196666Y-42490000D01*
X62149047Y-42537619D01*
X62101428Y-42632857D01*
X62101428Y-42680476D01*
X62149047Y-42775714D01*
X62196666Y-42823333D01*
X62291904Y-42870952D01*
X62482380Y-42870952D01*
X62577619Y-42918571D01*
X62625238Y-42966190D01*
X62672857Y-43061428D01*
X62672857Y-43251904D01*
X62625238Y-43347142D01*
X62577619Y-43394761D01*
X62482380Y-43442380D01*
X62291904Y-43442380D01*
X62196666Y-43394761D01*
X62149047Y-43347142D01*
X62101428Y-43251904D01*
X62101428Y-43061428D01*
X62149047Y-42966190D01*
X62196666Y-42918571D01*
X62291904Y-42870952D01*
X61006190Y-43442380D02*
X60482380Y-42775714D01*
X61006190Y-42775714D02*
X60482380Y-43442380D01*
X59482380Y-42442380D02*
X58910952Y-42442380D01*
X59196666Y-43442380D02*
X59196666Y-42442380D01*
X58577619Y-43442380D02*
X58577619Y-42442380D01*
X58149047Y-43442380D02*
X58149047Y-42918571D01*
X58196666Y-42823333D01*
X58291904Y-42775714D01*
X58434761Y-42775714D01*
X58530000Y-42823333D01*
X58577619Y-42870952D01*
X57291904Y-43394761D02*
X57387142Y-43442380D01*
X57577619Y-43442380D01*
X57672857Y-43394761D01*
X57720476Y-43299523D01*
X57720476Y-42918571D01*
X57672857Y-42823333D01*
X57577619Y-42775714D01*
X57387142Y-42775714D01*
X57291904Y-42823333D01*
X57244285Y-42918571D01*
X57244285Y-43013809D01*
X57720476Y-43109047D01*
X56815714Y-43442380D02*
X56815714Y-42775714D01*
X56815714Y-42966190D02*
X56768095Y-42870952D01*
X56720476Y-42823333D01*
X56625238Y-42775714D01*
X56530000Y-42775714D01*
X56196666Y-43442380D02*
X56196666Y-42775714D01*
X56196666Y-42870952D02*
X56149047Y-42823333D01*
X56053809Y-42775714D01*
X55910952Y-42775714D01*
X55815714Y-42823333D01*
X55768095Y-42918571D01*
X55768095Y-43442380D01*
X55768095Y-42918571D02*
X55720476Y-42823333D01*
X55625238Y-42775714D01*
X55482380Y-42775714D01*
X55387142Y-42823333D01*
X55339523Y-42918571D01*
X55339523Y-43442380D01*
X54863333Y-43442380D02*
X54863333Y-42775714D01*
X54863333Y-42442380D02*
X54910952Y-42490000D01*
X54863333Y-42537619D01*
X54815714Y-42490000D01*
X54863333Y-42442380D01*
X54863333Y-42537619D01*
X54434761Y-43394761D02*
X54339523Y-43442380D01*
X54149047Y-43442380D01*
X54053809Y-43394761D01*
X54006190Y-43299523D01*
X54006190Y-43251904D01*
X54053809Y-43156666D01*
X54149047Y-43109047D01*
X54291904Y-43109047D01*
X54387142Y-43061428D01*
X54434761Y-42966190D01*
X54434761Y-42918571D01*
X54387142Y-42823333D01*
X54291904Y-42775714D01*
X54149047Y-42775714D01*
X54053809Y-42823333D01*
X53720476Y-42775714D02*
X53339523Y-42775714D01*
X53577619Y-42442380D02*
X53577619Y-43299523D01*
X53530000Y-43394761D01*
X53434761Y-43442380D01*
X53339523Y-43442380D01*
X52863333Y-43442380D02*
X52958571Y-43394761D01*
X53006190Y-43347142D01*
X53053809Y-43251904D01*
X53053809Y-42966190D01*
X53006190Y-42870952D01*
X52958571Y-42823333D01*
X52863333Y-42775714D01*
X52720476Y-42775714D01*
X52625238Y-42823333D01*
X52577619Y-42870952D01*
X52530000Y-42966190D01*
X52530000Y-43251904D01*
X52577619Y-43347142D01*
X52625238Y-43394761D01*
X52720476Y-43442380D01*
X52863333Y-43442380D01*
X52101428Y-43442380D02*
X52101428Y-42775714D01*
X52101428Y-42966190D02*
X52053809Y-42870952D01*
X52006190Y-42823333D01*
X51910952Y-42775714D01*
X51815714Y-42775714D01*
X50720476Y-43061428D02*
X49958571Y-43061428D01*
X50339523Y-43442380D02*
X50339523Y-42680476D01*
X48768095Y-42537619D02*
X48720476Y-42490000D01*
X48625238Y-42442380D01*
X48387142Y-42442380D01*
X48291904Y-42490000D01*
X48244285Y-42537619D01*
X48196666Y-42632857D01*
X48196666Y-42728095D01*
X48244285Y-42870952D01*
X48815714Y-43442380D01*
X48196666Y-43442380D01*
X46434761Y-43347142D02*
X46482380Y-43394761D01*
X46625238Y-43442380D01*
X46720476Y-43442380D01*
X46863333Y-43394761D01*
X46958571Y-43299523D01*
X47006190Y-43204285D01*
X47053809Y-43013809D01*
X47053809Y-42870952D01*
X47006190Y-42680476D01*
X46958571Y-42585238D01*
X46863333Y-42490000D01*
X46720476Y-42442380D01*
X46625238Y-42442380D01*
X46482380Y-42490000D01*
X46434761Y-42537619D01*
X45863333Y-43442380D02*
X45958571Y-43394761D01*
X46006190Y-43347142D01*
X46053809Y-43251904D01*
X46053809Y-42966190D01*
X46006190Y-42870952D01*
X45958571Y-42823333D01*
X45863333Y-42775714D01*
X45720476Y-42775714D01*
X45625238Y-42823333D01*
X45577619Y-42870952D01*
X45530000Y-42966190D01*
X45530000Y-43251904D01*
X45577619Y-43347142D01*
X45625238Y-43394761D01*
X45720476Y-43442380D01*
X45863333Y-43442380D01*
X45101428Y-42775714D02*
X45101428Y-43442380D01*
X45101428Y-42870952D02*
X45053809Y-42823333D01*
X44958571Y-42775714D01*
X44815714Y-42775714D01*
X44720476Y-42823333D01*
X44672857Y-42918571D01*
X44672857Y-43442380D01*
X44339523Y-42775714D02*
X43958571Y-42775714D01*
X44196666Y-42442380D02*
X44196666Y-43299523D01*
X44149047Y-43394761D01*
X44053809Y-43442380D01*
X43958571Y-43442380D01*
X43625238Y-43442380D02*
X43625238Y-42775714D01*
X43625238Y-42966190D02*
X43577619Y-42870952D01*
X43530000Y-42823333D01*
X43434761Y-42775714D01*
X43339523Y-42775714D01*
X42863333Y-43442380D02*
X42958571Y-43394761D01*
X43006190Y-43347142D01*
X43053809Y-43251904D01*
X43053809Y-42966190D01*
X43006190Y-42870952D01*
X42958571Y-42823333D01*
X42863333Y-42775714D01*
X42720476Y-42775714D01*
X42625238Y-42823333D01*
X42577619Y-42870952D01*
X42530000Y-42966190D01*
X42530000Y-43251904D01*
X42577619Y-43347142D01*
X42625238Y-43394761D01*
X42720476Y-43442380D01*
X42863333Y-43442380D01*
X41958571Y-43442380D02*
X42053809Y-43394761D01*
X42101428Y-43299523D01*
X42101428Y-42442380D01*
X40244285Y-43442380D02*
X40577619Y-42966190D01*
X40815714Y-43442380D02*
X40815714Y-42442380D01*
X40434761Y-42442380D01*
X40339523Y-42490000D01*
X40291904Y-42537619D01*
X40244285Y-42632857D01*
X40244285Y-42775714D01*
X40291904Y-42870952D01*
X40339523Y-42918571D01*
X40434761Y-42966190D01*
X40815714Y-42966190D01*
X39434761Y-43394761D02*
X39530000Y-43442380D01*
X39720476Y-43442380D01*
X39815714Y-43394761D01*
X39863333Y-43299523D01*
X39863333Y-42918571D01*
X39815714Y-42823333D01*
X39720476Y-42775714D01*
X39530000Y-42775714D01*
X39434761Y-42823333D01*
X39387142Y-42918571D01*
X39387142Y-43013809D01*
X39863333Y-43109047D01*
X38815714Y-43442380D02*
X38910952Y-43394761D01*
X38958571Y-43299523D01*
X38958571Y-42442380D01*
X38006190Y-43442380D02*
X38006190Y-42918571D01*
X38053809Y-42823333D01*
X38149047Y-42775714D01*
X38339523Y-42775714D01*
X38434761Y-42823333D01*
X38006190Y-43394761D02*
X38101428Y-43442380D01*
X38339523Y-43442380D01*
X38434761Y-43394761D01*
X38482380Y-43299523D01*
X38482380Y-43204285D01*
X38434761Y-43109047D01*
X38339523Y-43061428D01*
X38101428Y-43061428D01*
X38006190Y-43013809D01*
X37625238Y-42775714D02*
X37387142Y-43442380D01*
X37149047Y-42775714D02*
X37387142Y-43442380D01*
X37482380Y-43680476D01*
X37530000Y-43728095D01*
X37625238Y-43775714D01*
X36815714Y-43394761D02*
X36720476Y-43442380D01*
X36530000Y-43442380D01*
X36434761Y-43394761D01*
X36387142Y-43299523D01*
X36387142Y-43251904D01*
X36434761Y-43156666D01*
X36530000Y-43109047D01*
X36672857Y-43109047D01*
X36768095Y-43061428D01*
X36815714Y-42966190D01*
X36815714Y-42918571D01*
X36768095Y-42823333D01*
X36672857Y-42775714D01*
X36530000Y-42775714D01*
X36434761Y-42823333D01*
X62030000Y-44092380D02*
X61791904Y-45092380D01*
X61601428Y-44378095D01*
X61410952Y-45092380D01*
X61172857Y-44092380D01*
X60791904Y-45092380D02*
X60791904Y-44425714D01*
X60791904Y-44092380D02*
X60839523Y-44140000D01*
X60791904Y-44187619D01*
X60744285Y-44140000D01*
X60791904Y-44092380D01*
X60791904Y-44187619D01*
X59982380Y-44568571D02*
X60315714Y-44568571D01*
X60315714Y-45092380D02*
X60315714Y-44092380D01*
X59839523Y-44092380D01*
X59458571Y-45092380D02*
X59458571Y-44425714D01*
X59458571Y-44092380D02*
X59506190Y-44140000D01*
X59458571Y-44187619D01*
X59410952Y-44140000D01*
X59458571Y-44092380D01*
X59458571Y-44187619D01*
X57649047Y-44997142D02*
X57696666Y-45044761D01*
X57839523Y-45092380D01*
X57934761Y-45092380D01*
X58077619Y-45044761D01*
X58172857Y-44949523D01*
X58220476Y-44854285D01*
X58268095Y-44663809D01*
X58268095Y-44520952D01*
X58220476Y-44330476D01*
X58172857Y-44235238D01*
X58077619Y-44140000D01*
X57934761Y-44092380D01*
X57839523Y-44092380D01*
X57696666Y-44140000D01*
X57649047Y-44187619D01*
X56791904Y-45092380D02*
X56791904Y-44568571D01*
X56839523Y-44473333D01*
X56934761Y-44425714D01*
X57125238Y-44425714D01*
X57220476Y-44473333D01*
X56791904Y-45044761D02*
X56887142Y-45092380D01*
X57125238Y-45092380D01*
X57220476Y-45044761D01*
X57268095Y-44949523D01*
X57268095Y-44854285D01*
X57220476Y-44759047D01*
X57125238Y-44711428D01*
X56887142Y-44711428D01*
X56791904Y-44663809D01*
X56315714Y-44425714D02*
X56315714Y-45425714D01*
X56315714Y-44473333D02*
X56220476Y-44425714D01*
X56030000Y-44425714D01*
X55934761Y-44473333D01*
X55887142Y-44520952D01*
X55839523Y-44616190D01*
X55839523Y-44901904D01*
X55887142Y-44997142D01*
X55934761Y-45044761D01*
X56030000Y-45092380D01*
X56220476Y-45092380D01*
X56315714Y-45044761D01*
X55553809Y-44425714D02*
X55172857Y-44425714D01*
X55410952Y-44092380D02*
X55410952Y-44949523D01*
X55363333Y-45044761D01*
X55268095Y-45092380D01*
X55172857Y-45092380D01*
X54839523Y-45092380D02*
X54839523Y-44425714D01*
X54839523Y-44092380D02*
X54887142Y-44140000D01*
X54839523Y-44187619D01*
X54791904Y-44140000D01*
X54839523Y-44092380D01*
X54839523Y-44187619D01*
X54458571Y-44425714D02*
X54220476Y-45092380D01*
X53982380Y-44425714D01*
X53220476Y-45044761D02*
X53315714Y-45092380D01*
X53506190Y-45092380D01*
X53601428Y-45044761D01*
X53649047Y-44949523D01*
X53649047Y-44568571D01*
X53601428Y-44473333D01*
X53506190Y-44425714D01*
X53315714Y-44425714D01*
X53220476Y-44473333D01*
X53172857Y-44568571D01*
X53172857Y-44663809D01*
X53649047Y-44759047D01*
X51982380Y-45092380D02*
X51982380Y-44092380D01*
X51601428Y-44092380D01*
X51506190Y-44140000D01*
X51458571Y-44187619D01*
X51410952Y-44282857D01*
X51410952Y-44425714D01*
X51458571Y-44520952D01*
X51506190Y-44568571D01*
X51601428Y-44616190D01*
X51982380Y-44616190D01*
X50839523Y-45092380D02*
X50934761Y-45044761D01*
X50982380Y-44997142D01*
X51030000Y-44901904D01*
X51030000Y-44616190D01*
X50982380Y-44520952D01*
X50934761Y-44473333D01*
X50839523Y-44425714D01*
X50696666Y-44425714D01*
X50601428Y-44473333D01*
X50553809Y-44520952D01*
X50506190Y-44616190D01*
X50506190Y-44901904D01*
X50553809Y-44997142D01*
X50601428Y-45044761D01*
X50696666Y-45092380D01*
X50839523Y-45092380D01*
X50077619Y-45092380D02*
X50077619Y-44425714D01*
X50077619Y-44616190D02*
X50030000Y-44520952D01*
X49982380Y-44473333D01*
X49887142Y-44425714D01*
X49791904Y-44425714D01*
X49601428Y-44425714D02*
X49220476Y-44425714D01*
X49458571Y-44092380D02*
X49458571Y-44949523D01*
X49410952Y-45044761D01*
X49315714Y-45092380D01*
X49220476Y-45092380D01*
X48458571Y-45092380D02*
X48458571Y-44568571D01*
X48506190Y-44473333D01*
X48601428Y-44425714D01*
X48791904Y-44425714D01*
X48887142Y-44473333D01*
X48458571Y-45044761D02*
X48553809Y-45092380D01*
X48791904Y-45092380D01*
X48887142Y-45044761D01*
X48934761Y-44949523D01*
X48934761Y-44854285D01*
X48887142Y-44759047D01*
X48791904Y-44711428D01*
X48553809Y-44711428D01*
X48458571Y-44663809D01*
X47839523Y-45092380D02*
X47934761Y-45044761D01*
X47982380Y-44949523D01*
X47982380Y-44092380D01*
X46125238Y-44997142D02*
X46172857Y-45044761D01*
X46315714Y-45092380D01*
X46410952Y-45092380D01*
X46553809Y-45044761D01*
X46649047Y-44949523D01*
X46696666Y-44854285D01*
X46744285Y-44663809D01*
X46744285Y-44520952D01*
X46696666Y-44330476D01*
X46649047Y-44235238D01*
X46553809Y-44140000D01*
X46410952Y-44092380D01*
X46315714Y-44092380D01*
X46172857Y-44140000D01*
X46125238Y-44187619D01*
X45553809Y-45092380D02*
X45649047Y-45044761D01*
X45696666Y-44997142D01*
X45744285Y-44901904D01*
X45744285Y-44616190D01*
X45696666Y-44520952D01*
X45649047Y-44473333D01*
X45553809Y-44425714D01*
X45410952Y-44425714D01*
X45315714Y-44473333D01*
X45268095Y-44520952D01*
X45220476Y-44616190D01*
X45220476Y-44901904D01*
X45268095Y-44997142D01*
X45315714Y-45044761D01*
X45410952Y-45092380D01*
X45553809Y-45092380D01*
X44791904Y-44425714D02*
X44791904Y-45092380D01*
X44791904Y-44520952D02*
X44744285Y-44473333D01*
X44649047Y-44425714D01*
X44506190Y-44425714D01*
X44410952Y-44473333D01*
X44363333Y-44568571D01*
X44363333Y-45092380D01*
X44030000Y-44425714D02*
X43649047Y-44425714D01*
X43887142Y-45092380D02*
X43887142Y-44235238D01*
X43839523Y-44140000D01*
X43744285Y-44092380D01*
X43649047Y-44092380D01*
X43315714Y-45092380D02*
X43315714Y-44425714D01*
X43315714Y-44092380D02*
X43363333Y-44140000D01*
X43315714Y-44187619D01*
X43268095Y-44140000D01*
X43315714Y-44092380D01*
X43315714Y-44187619D01*
X42410952Y-44425714D02*
X42410952Y-45235238D01*
X42458571Y-45330476D01*
X42506190Y-45378095D01*
X42601428Y-45425714D01*
X42744285Y-45425714D01*
X42839523Y-45378095D01*
X42410952Y-45044761D02*
X42506190Y-45092380D01*
X42696666Y-45092380D01*
X42791904Y-45044761D01*
X42839523Y-44997142D01*
X42887142Y-44901904D01*
X42887142Y-44616190D01*
X42839523Y-44520952D01*
X42791904Y-44473333D01*
X42696666Y-44425714D01*
X42506190Y-44425714D01*
X42410952Y-44473333D01*
X41506190Y-44425714D02*
X41506190Y-45092380D01*
X41934761Y-44425714D02*
X41934761Y-44949523D01*
X41887142Y-45044761D01*
X41791904Y-45092380D01*
X41649047Y-45092380D01*
X41553809Y-45044761D01*
X41506190Y-44997142D01*
X41030000Y-45092380D02*
X41030000Y-44425714D01*
X41030000Y-44616190D02*
X40982380Y-44520952D01*
X40934761Y-44473333D01*
X40839523Y-44425714D01*
X40744285Y-44425714D01*
X39982380Y-45092380D02*
X39982380Y-44568571D01*
X40030000Y-44473333D01*
X40125238Y-44425714D01*
X40315714Y-44425714D01*
X40410952Y-44473333D01*
X39982380Y-45044761D02*
X40077619Y-45092380D01*
X40315714Y-45092380D01*
X40410952Y-45044761D01*
X40458571Y-44949523D01*
X40458571Y-44854285D01*
X40410952Y-44759047D01*
X40315714Y-44711428D01*
X40077619Y-44711428D01*
X39982380Y-44663809D01*
X39649047Y-44425714D02*
X39268095Y-44425714D01*
X39506190Y-44092380D02*
X39506190Y-44949523D01*
X39458571Y-45044761D01*
X39363333Y-45092380D01*
X39268095Y-45092380D01*
X38934761Y-45092380D02*
X38934761Y-44425714D01*
X38934761Y-44092380D02*
X38982380Y-44140000D01*
X38934761Y-44187619D01*
X38887142Y-44140000D01*
X38934761Y-44092380D01*
X38934761Y-44187619D01*
X38315714Y-45092380D02*
X38410952Y-45044761D01*
X38458571Y-44997142D01*
X38506190Y-44901904D01*
X38506190Y-44616190D01*
X38458571Y-44520952D01*
X38410952Y-44473333D01*
X38315714Y-44425714D01*
X38172857Y-44425714D01*
X38077619Y-44473333D01*
X38030000Y-44520952D01*
X37982380Y-44616190D01*
X37982380Y-44901904D01*
X38030000Y-44997142D01*
X38077619Y-45044761D01*
X38172857Y-45092380D01*
X38315714Y-45092380D01*
X37553809Y-44425714D02*
X37553809Y-45092380D01*
X37553809Y-44520952D02*
X37506190Y-44473333D01*
X37410952Y-44425714D01*
X37268095Y-44425714D01*
X37172857Y-44473333D01*
X37125238Y-44568571D01*
X37125238Y-45092380D01*
X58125238Y-45742380D02*
X57506190Y-45742380D01*
X57839523Y-46123333D01*
X57696666Y-46123333D01*
X57601428Y-46170952D01*
X57553809Y-46218571D01*
X57506190Y-46313809D01*
X57506190Y-46551904D01*
X57553809Y-46647142D01*
X57601428Y-46694761D01*
X57696666Y-46742380D01*
X57982380Y-46742380D01*
X58077619Y-46694761D01*
X58125238Y-46647142D01*
X57077619Y-46647142D02*
X57030000Y-46694761D01*
X57077619Y-46742380D01*
X57125238Y-46694761D01*
X57077619Y-46647142D01*
X57077619Y-46742380D01*
X56696666Y-45742380D02*
X56077619Y-45742380D01*
X56410952Y-46123333D01*
X56268095Y-46123333D01*
X56172857Y-46170952D01*
X56125238Y-46218571D01*
X56077619Y-46313809D01*
X56077619Y-46551904D01*
X56125238Y-46647142D01*
X56172857Y-46694761D01*
X56268095Y-46742380D01*
X56553809Y-46742380D01*
X56649047Y-46694761D01*
X56696666Y-46647142D01*
X55791904Y-45742380D02*
X55458571Y-46742380D01*
X55125238Y-45742380D01*
X54172857Y-45742380D02*
X53839523Y-46742380D01*
X53506190Y-45742380D01*
X53030000Y-46742380D02*
X53125238Y-46694761D01*
X53172857Y-46647142D01*
X53220476Y-46551904D01*
X53220476Y-46266190D01*
X53172857Y-46170952D01*
X53125238Y-46123333D01*
X53030000Y-46075714D01*
X52887142Y-46075714D01*
X52791904Y-46123333D01*
X52744285Y-46170952D01*
X52696666Y-46266190D01*
X52696666Y-46551904D01*
X52744285Y-46647142D01*
X52791904Y-46694761D01*
X52887142Y-46742380D01*
X53030000Y-46742380D01*
X52125238Y-46742380D02*
X52220476Y-46694761D01*
X52268095Y-46599523D01*
X52268095Y-45742380D01*
X51887142Y-46075714D02*
X51506190Y-46075714D01*
X51744285Y-45742380D02*
X51744285Y-46599523D01*
X51696666Y-46694761D01*
X51601428Y-46742380D01*
X51506190Y-46742380D01*
X50744285Y-46742380D02*
X50744285Y-46218571D01*
X50791904Y-46123333D01*
X50887142Y-46075714D01*
X51077619Y-46075714D01*
X51172857Y-46123333D01*
X50744285Y-46694761D02*
X50839523Y-46742380D01*
X51077619Y-46742380D01*
X51172857Y-46694761D01*
X51220476Y-46599523D01*
X51220476Y-46504285D01*
X51172857Y-46409047D01*
X51077619Y-46361428D01*
X50839523Y-46361428D01*
X50744285Y-46313809D01*
X49839523Y-46075714D02*
X49839523Y-46885238D01*
X49887142Y-46980476D01*
X49934761Y-47028095D01*
X50030000Y-47075714D01*
X50172857Y-47075714D01*
X50268095Y-47028095D01*
X49839523Y-46694761D02*
X49934761Y-46742380D01*
X50125238Y-46742380D01*
X50220476Y-46694761D01*
X50268095Y-46647142D01*
X50315714Y-46551904D01*
X50315714Y-46266190D01*
X50268095Y-46170952D01*
X50220476Y-46123333D01*
X50125238Y-46075714D01*
X49934761Y-46075714D01*
X49839523Y-46123333D01*
X48982380Y-46694761D02*
X49077619Y-46742380D01*
X49268095Y-46742380D01*
X49363333Y-46694761D01*
X49410952Y-46599523D01*
X49410952Y-46218571D01*
X49363333Y-46123333D01*
X49268095Y-46075714D01*
X49077619Y-46075714D01*
X48982380Y-46123333D01*
X48934761Y-46218571D01*
X48934761Y-46313809D01*
X49410952Y-46409047D01*
X47172857Y-46742380D02*
X47506190Y-46266190D01*
X47744285Y-46742380D02*
X47744285Y-45742380D01*
X47363333Y-45742380D01*
X47268095Y-45790000D01*
X47220476Y-45837619D01*
X47172857Y-45932857D01*
X47172857Y-46075714D01*
X47220476Y-46170952D01*
X47268095Y-46218571D01*
X47363333Y-46266190D01*
X47744285Y-46266190D01*
X46363333Y-46694761D02*
X46458571Y-46742380D01*
X46649047Y-46742380D01*
X46744285Y-46694761D01*
X46791904Y-46599523D01*
X46791904Y-46218571D01*
X46744285Y-46123333D01*
X46649047Y-46075714D01*
X46458571Y-46075714D01*
X46363333Y-46123333D01*
X46315714Y-46218571D01*
X46315714Y-46313809D01*
X46791904Y-46409047D01*
X45458571Y-46075714D02*
X45458571Y-46885238D01*
X45506190Y-46980476D01*
X45553809Y-47028095D01*
X45649047Y-47075714D01*
X45791904Y-47075714D01*
X45887142Y-47028095D01*
X45458571Y-46694761D02*
X45553809Y-46742380D01*
X45744285Y-46742380D01*
X45839523Y-46694761D01*
X45887142Y-46647142D01*
X45934761Y-46551904D01*
X45934761Y-46266190D01*
X45887142Y-46170952D01*
X45839523Y-46123333D01*
X45744285Y-46075714D01*
X45553809Y-46075714D01*
X45458571Y-46123333D01*
X44553809Y-46075714D02*
X44553809Y-46742380D01*
X44982380Y-46075714D02*
X44982380Y-46599523D01*
X44934761Y-46694761D01*
X44839523Y-46742380D01*
X44696666Y-46742380D01*
X44601428Y-46694761D01*
X44553809Y-46647142D01*
X43934761Y-46742380D02*
X44030000Y-46694761D01*
X44077619Y-46599523D01*
X44077619Y-45742380D01*
X43125238Y-46742380D02*
X43125238Y-46218571D01*
X43172857Y-46123333D01*
X43268095Y-46075714D01*
X43458571Y-46075714D01*
X43553809Y-46123333D01*
X43125238Y-46694761D02*
X43220476Y-46742380D01*
X43458571Y-46742380D01*
X43553809Y-46694761D01*
X43601428Y-46599523D01*
X43601428Y-46504285D01*
X43553809Y-46409047D01*
X43458571Y-46361428D01*
X43220476Y-46361428D01*
X43125238Y-46313809D01*
X42791904Y-46075714D02*
X42410952Y-46075714D01*
X42649047Y-45742380D02*
X42649047Y-46599523D01*
X42601428Y-46694761D01*
X42506190Y-46742380D01*
X42410952Y-46742380D01*
X41934761Y-46742380D02*
X42030000Y-46694761D01*
X42077619Y-46647142D01*
X42125238Y-46551904D01*
X42125238Y-46266190D01*
X42077619Y-46170952D01*
X42030000Y-46123333D01*
X41934761Y-46075714D01*
X41791904Y-46075714D01*
X41696666Y-46123333D01*
X41649047Y-46170952D01*
X41601428Y-46266190D01*
X41601428Y-46551904D01*
X41649047Y-46647142D01*
X41696666Y-46694761D01*
X41791904Y-46742380D01*
X41934761Y-46742380D01*
X41172857Y-46742380D02*
X41172857Y-46075714D01*
X41172857Y-46266190D02*
X41125238Y-46170952D01*
X41077619Y-46123333D01*
X40982380Y-46075714D01*
X40887142Y-46075714D01*
M02*
