G04 #@! TF.GenerationSoftware,KiCad,Pcbnew,(5.1.5-0-10_14)*
G04 #@! TF.CreationDate,2020-05-21T12:23:14-05:00*
G04 #@! TF.ProjectId,esp12e-oven,65737031-3265-42d6-9f76-656e2e6b6963,rev?*
G04 #@! TF.SameCoordinates,Original*
G04 #@! TF.FileFunction,Legend,Top*
G04 #@! TF.FilePolarity,Positive*
%FSLAX46Y46*%
G04 Gerber Fmt 4.6, Leading zero omitted, Abs format (unit mm)*
G04 Created by KiCad (PCBNEW (5.1.5-0-10_14)) date 2020-05-21 12:23:14*
%MOMM*%
%LPD*%
G04 APERTURE LIST*
%ADD10C,0.250000*%
%ADD11C,0.120000*%
%ADD12C,0.150000*%
G04 APERTURE END LIST*
D10*
X50111413Y-54534761D02*
X50248318Y-54582380D01*
X50486413Y-54582380D01*
X50587604Y-54534761D01*
X50641175Y-54487142D01*
X50700699Y-54391904D01*
X50712604Y-54296666D01*
X50676889Y-54201428D01*
X50635223Y-54153809D01*
X50545937Y-54106190D01*
X50361413Y-54058571D01*
X50272127Y-54010952D01*
X50230461Y-53963333D01*
X50194747Y-53868095D01*
X50206651Y-53772857D01*
X50266175Y-53677619D01*
X50319747Y-53630000D01*
X50420937Y-53582380D01*
X50659032Y-53582380D01*
X50795937Y-53630000D01*
X51420937Y-53582380D02*
X51516175Y-53582380D01*
X51605461Y-53630000D01*
X51647127Y-53677619D01*
X51682842Y-53772857D01*
X51706651Y-53963333D01*
X51676889Y-54201428D01*
X51605461Y-54391904D01*
X51545937Y-54487142D01*
X51492366Y-54534761D01*
X51391175Y-54582380D01*
X51295937Y-54582380D01*
X51206651Y-54534761D01*
X51164985Y-54487142D01*
X51129270Y-54391904D01*
X51105461Y-54201428D01*
X51135223Y-53963333D01*
X51206651Y-53772857D01*
X51266175Y-53677619D01*
X51319747Y-53630000D01*
X51420937Y-53582380D01*
X52581651Y-54582380D02*
X52010223Y-54582380D01*
X52295937Y-54582380D02*
X52420937Y-53582380D01*
X52307842Y-53725238D01*
X52200699Y-53820476D01*
X52099508Y-53868095D01*
X53057842Y-54201428D02*
X53819747Y-54201428D01*
X54563794Y-53582380D02*
X54659032Y-53582380D01*
X54748318Y-53630000D01*
X54789985Y-53677619D01*
X54825699Y-53772857D01*
X54849508Y-53963333D01*
X54819747Y-54201428D01*
X54748318Y-54391904D01*
X54688794Y-54487142D01*
X54635223Y-54534761D01*
X54534032Y-54582380D01*
X54438794Y-54582380D01*
X54349508Y-54534761D01*
X54307842Y-54487142D01*
X54272127Y-54391904D01*
X54248318Y-54201428D01*
X54278080Y-53963333D01*
X54349508Y-53772857D01*
X54409032Y-53677619D01*
X54462604Y-53630000D01*
X54563794Y-53582380D01*
X55516175Y-53582380D02*
X55611413Y-53582380D01*
X55700699Y-53630000D01*
X55742366Y-53677619D01*
X55778080Y-53772857D01*
X55801889Y-53963333D01*
X55772127Y-54201428D01*
X55700699Y-54391904D01*
X55641175Y-54487142D01*
X55587604Y-54534761D01*
X55486413Y-54582380D01*
X55391175Y-54582380D01*
X55301889Y-54534761D01*
X55260223Y-54487142D01*
X55224508Y-54391904D01*
X55200699Y-54201428D01*
X55230461Y-53963333D01*
X55301889Y-53772857D01*
X55361413Y-53677619D01*
X55414985Y-53630000D01*
X55516175Y-53582380D01*
X56676889Y-54582380D02*
X56105461Y-54582380D01*
X56391175Y-54582380D02*
X56516175Y-53582380D01*
X56403080Y-53725238D01*
X56295937Y-53820476D01*
X56194747Y-53868095D01*
X58182842Y-53582380D02*
X58278080Y-53582380D01*
X58367366Y-53630000D01*
X58409032Y-53677619D01*
X58444747Y-53772857D01*
X58468556Y-53963333D01*
X58438794Y-54201428D01*
X58367366Y-54391904D01*
X58307842Y-54487142D01*
X58254270Y-54534761D01*
X58153080Y-54582380D01*
X58057842Y-54582380D01*
X57968556Y-54534761D01*
X57926889Y-54487142D01*
X57891175Y-54391904D01*
X57867366Y-54201428D01*
X57897127Y-53963333D01*
X57968556Y-53772857D01*
X58028080Y-53677619D01*
X58081651Y-53630000D01*
X58182842Y-53582380D01*
X59420937Y-53582380D02*
X58944747Y-53582380D01*
X58837604Y-54058571D01*
X58891175Y-54010952D01*
X58992366Y-53963333D01*
X59230461Y-53963333D01*
X59319747Y-54010952D01*
X59361413Y-54058571D01*
X59397127Y-54153809D01*
X59367366Y-54391904D01*
X59307842Y-54487142D01*
X59254270Y-54534761D01*
X59153080Y-54582380D01*
X58914985Y-54582380D01*
X58825699Y-54534761D01*
X58784032Y-54487142D01*
X60617366Y-53534761D02*
X59599508Y-54820476D01*
X60885223Y-53677619D02*
X60938794Y-53630000D01*
X61039985Y-53582380D01*
X61278080Y-53582380D01*
X61367366Y-53630000D01*
X61409032Y-53677619D01*
X61444747Y-53772857D01*
X61432842Y-53868095D01*
X61367366Y-54010952D01*
X60724508Y-54582380D01*
X61343556Y-54582380D01*
X62295937Y-54582380D02*
X61724508Y-54582380D01*
X62010223Y-54582380D02*
X62135223Y-53582380D01*
X62022127Y-53725238D01*
X61914985Y-53820476D01*
X61813794Y-53868095D01*
X63569747Y-53534761D02*
X62551889Y-54820476D01*
X63837604Y-53677619D02*
X63891175Y-53630000D01*
X63992366Y-53582380D01*
X64230461Y-53582380D01*
X64319747Y-53630000D01*
X64361413Y-53677619D01*
X64397127Y-53772857D01*
X64385223Y-53868095D01*
X64319747Y-54010952D01*
X63676889Y-54582380D01*
X64295937Y-54582380D01*
X65039985Y-53582380D02*
X65135223Y-53582380D01*
X65224508Y-53630000D01*
X65266175Y-53677619D01*
X65301889Y-53772857D01*
X65325699Y-53963333D01*
X65295937Y-54201428D01*
X65224508Y-54391904D01*
X65164985Y-54487142D01*
X65111413Y-54534761D01*
X65010223Y-54582380D01*
X64914985Y-54582380D01*
X64825699Y-54534761D01*
X64784032Y-54487142D01*
X64748318Y-54391904D01*
X64724508Y-54201428D01*
X64754270Y-53963333D01*
X64825699Y-53772857D01*
X64885223Y-53677619D01*
X64938794Y-53630000D01*
X65039985Y-53582380D01*
X51230461Y-55332380D02*
X51141175Y-56046666D01*
X51075699Y-56189523D01*
X50968556Y-56284761D01*
X50819747Y-56332380D01*
X50724508Y-56332380D01*
X51968556Y-56284761D02*
X51867366Y-56332380D01*
X51676889Y-56332380D01*
X51587604Y-56284761D01*
X51551889Y-56189523D01*
X51599508Y-55808571D01*
X51659032Y-55713333D01*
X51760223Y-55665714D01*
X51950699Y-55665714D01*
X52039985Y-55713333D01*
X52075699Y-55808571D01*
X52063794Y-55903809D01*
X51575699Y-55999047D01*
X52438794Y-56332380D02*
X52522127Y-55665714D01*
X52498318Y-55856190D02*
X52557842Y-55760952D01*
X52611413Y-55713333D01*
X52712604Y-55665714D01*
X52807842Y-55665714D01*
X53444747Y-56284761D02*
X53343556Y-56332380D01*
X53153080Y-56332380D01*
X53063794Y-56284761D01*
X53028080Y-56189523D01*
X53075699Y-55808571D01*
X53135223Y-55713333D01*
X53236413Y-55665714D01*
X53426889Y-55665714D01*
X53516175Y-55713333D01*
X53551889Y-55808571D01*
X53539985Y-55903809D01*
X53051889Y-55999047D01*
X53914985Y-56332380D02*
X53998318Y-55665714D01*
X53986413Y-55760952D02*
X54039985Y-55713333D01*
X54141175Y-55665714D01*
X54284032Y-55665714D01*
X54373318Y-55713333D01*
X54409032Y-55808571D01*
X54343556Y-56332380D01*
X54409032Y-55808571D02*
X54468556Y-55713333D01*
X54569747Y-55665714D01*
X54712604Y-55665714D01*
X54801889Y-55713333D01*
X54837604Y-55808571D01*
X54772127Y-56332380D01*
X55236413Y-55665714D02*
X55391175Y-56332380D01*
X55712604Y-55665714D02*
X55391175Y-56332380D01*
X55266175Y-56570476D01*
X55212604Y-56618095D01*
X55111413Y-56665714D01*
X57170937Y-55808571D02*
X57307842Y-55856190D01*
X57349508Y-55903809D01*
X57385223Y-55999047D01*
X57367366Y-56141904D01*
X57307842Y-56237142D01*
X57254270Y-56284761D01*
X57153080Y-56332380D01*
X56772127Y-56332380D01*
X56897127Y-55332380D01*
X57230461Y-55332380D01*
X57319747Y-55380000D01*
X57361413Y-55427619D01*
X57397127Y-55522857D01*
X57385223Y-55618095D01*
X57325699Y-55713333D01*
X57272127Y-55760952D01*
X57170937Y-55808571D01*
X56837604Y-55808571D01*
X57784032Y-56237142D02*
X57825699Y-56284761D01*
X57772127Y-56332380D01*
X57730461Y-56284761D01*
X57784032Y-56237142D01*
X57772127Y-56332380D01*
X59581651Y-56332380D02*
X59307842Y-55856190D01*
X59010223Y-56332380D02*
X59135223Y-55332380D01*
X59516175Y-55332380D01*
X59605461Y-55380000D01*
X59647127Y-55427619D01*
X59682842Y-55522857D01*
X59664985Y-55665714D01*
X59605461Y-55760952D01*
X59551889Y-55808571D01*
X59450699Y-55856190D01*
X59069747Y-55856190D01*
X60153080Y-56332380D02*
X60063794Y-56284761D01*
X60022127Y-56237142D01*
X59986413Y-56141904D01*
X60022127Y-55856190D01*
X60081651Y-55760952D01*
X60135223Y-55713333D01*
X60236413Y-55665714D01*
X60379270Y-55665714D01*
X60468556Y-55713333D01*
X60510223Y-55760952D01*
X60545937Y-55856190D01*
X60510223Y-56141904D01*
X60450699Y-56237142D01*
X60397127Y-56284761D01*
X60295937Y-56332380D01*
X60153080Y-56332380D01*
X61343556Y-56332380D02*
X61468556Y-55332380D01*
X61349508Y-56284761D02*
X61248318Y-56332380D01*
X61057842Y-56332380D01*
X60968556Y-56284761D01*
X60926889Y-56237142D01*
X60891175Y-56141904D01*
X60926889Y-55856190D01*
X60986413Y-55760952D01*
X61039985Y-55713333D01*
X61141175Y-55665714D01*
X61331651Y-55665714D01*
X61420937Y-55713333D01*
X62331651Y-55665714D02*
X62230461Y-56475238D01*
X62170937Y-56570476D01*
X62117366Y-56618095D01*
X62016175Y-56665714D01*
X61873318Y-56665714D01*
X61784032Y-56618095D01*
X62254270Y-56284761D02*
X62153080Y-56332380D01*
X61962604Y-56332380D01*
X61873318Y-56284761D01*
X61831651Y-56237142D01*
X61795937Y-56141904D01*
X61831651Y-55856190D01*
X61891175Y-55760952D01*
X61944747Y-55713333D01*
X62045937Y-55665714D01*
X62236413Y-55665714D01*
X62325699Y-55713333D01*
X63111413Y-56284761D02*
X63010223Y-56332380D01*
X62819747Y-56332380D01*
X62730461Y-56284761D01*
X62694747Y-56189523D01*
X62742366Y-55808571D01*
X62801889Y-55713333D01*
X62903080Y-55665714D01*
X63093556Y-55665714D01*
X63182842Y-55713333D01*
X63218556Y-55808571D01*
X63206651Y-55903809D01*
X62718556Y-55999047D01*
X63581651Y-56332380D02*
X63664985Y-55665714D01*
X63641175Y-55856190D02*
X63700699Y-55760952D01*
X63754270Y-55713333D01*
X63855461Y-55665714D01*
X63950699Y-55665714D01*
X64159032Y-56284761D02*
X64248318Y-56332380D01*
X64438794Y-56332380D01*
X64539985Y-56284761D01*
X64599508Y-56189523D01*
X64605461Y-56141904D01*
X64569747Y-56046666D01*
X64480461Y-55999047D01*
X64337604Y-55999047D01*
X64248318Y-55951428D01*
X64212604Y-55856190D01*
X64218556Y-55808571D01*
X64278080Y-55713333D01*
X64379270Y-55665714D01*
X64522127Y-55665714D01*
X64611413Y-55713333D01*
X50307842Y-57415714D02*
X50200699Y-58272857D01*
X50141175Y-58368095D01*
X50039985Y-58415714D01*
X49992366Y-58415714D01*
X50349508Y-57082380D02*
X50295937Y-57130000D01*
X50337604Y-57177619D01*
X50391175Y-57130000D01*
X50349508Y-57082380D01*
X50337604Y-57177619D01*
X50700699Y-58082380D02*
X50784032Y-57415714D01*
X50760223Y-57606190D02*
X50819747Y-57510952D01*
X50873318Y-57463333D01*
X50974508Y-57415714D01*
X51069747Y-57415714D01*
X51635223Y-57082380D02*
X51730461Y-57082380D01*
X51819747Y-57130000D01*
X51861413Y-57177619D01*
X51897127Y-57272857D01*
X51920937Y-57463333D01*
X51891175Y-57701428D01*
X51819747Y-57891904D01*
X51760223Y-57987142D01*
X51706651Y-58034761D01*
X51605461Y-58082380D01*
X51510223Y-58082380D01*
X51420937Y-58034761D01*
X51379270Y-57987142D01*
X51343556Y-57891904D01*
X51319747Y-57701428D01*
X51349508Y-57463333D01*
X51420937Y-57272857D01*
X51480461Y-57177619D01*
X51534032Y-57130000D01*
X51635223Y-57082380D01*
X52700699Y-58082380D02*
X52825699Y-57082380D01*
X52706651Y-58034761D02*
X52605461Y-58082380D01*
X52414985Y-58082380D01*
X52325699Y-58034761D01*
X52284032Y-57987142D01*
X52248318Y-57891904D01*
X52284032Y-57606190D01*
X52343556Y-57510952D01*
X52397127Y-57463333D01*
X52498318Y-57415714D01*
X52688794Y-57415714D01*
X52778080Y-57463333D01*
X53688794Y-57415714D02*
X53587604Y-58225238D01*
X53528080Y-58320476D01*
X53474508Y-58368095D01*
X53373318Y-58415714D01*
X53230461Y-58415714D01*
X53141175Y-58368095D01*
X53611413Y-58034761D02*
X53510223Y-58082380D01*
X53319747Y-58082380D01*
X53230461Y-58034761D01*
X53188794Y-57987142D01*
X53153080Y-57891904D01*
X53188794Y-57606190D01*
X53248318Y-57510952D01*
X53301889Y-57463333D01*
X53403080Y-57415714D01*
X53593556Y-57415714D01*
X53682842Y-57463333D01*
X54111413Y-57082380D02*
X54730461Y-57082380D01*
X54349508Y-57463333D01*
X54492366Y-57463333D01*
X54581651Y-57510952D01*
X54623318Y-57558571D01*
X54659032Y-57653809D01*
X54629270Y-57891904D01*
X54569747Y-57987142D01*
X54516175Y-58034761D01*
X54414985Y-58082380D01*
X54129270Y-58082380D01*
X54039985Y-58034761D01*
X53998318Y-57987142D01*
X55034032Y-58082380D02*
X55117366Y-57415714D01*
X55093556Y-57606190D02*
X55153080Y-57510952D01*
X55206651Y-57463333D01*
X55307842Y-57415714D01*
X55403080Y-57415714D01*
X56254270Y-57082380D02*
X55778080Y-57082380D01*
X55670937Y-57558571D01*
X55724508Y-57510952D01*
X55825699Y-57463333D01*
X56063794Y-57463333D01*
X56153080Y-57510952D01*
X56194747Y-57558571D01*
X56230461Y-57653809D01*
X56200699Y-57891904D01*
X56141175Y-57987142D01*
X56087604Y-58034761D01*
X55986413Y-58082380D01*
X55748318Y-58082380D01*
X55659032Y-58034761D01*
X55617366Y-57987142D01*
X57284032Y-57606190D02*
X57242366Y-57558571D01*
X57153080Y-57510952D01*
X57057842Y-57510952D01*
X56956651Y-57558571D01*
X56903080Y-57606190D01*
X56843556Y-57701428D01*
X56831651Y-57796666D01*
X56867366Y-57891904D01*
X56909032Y-57939523D01*
X56998318Y-57987142D01*
X57093556Y-57987142D01*
X57194747Y-57939523D01*
X57248318Y-57891904D01*
X57295937Y-57510952D02*
X57248318Y-57891904D01*
X57289985Y-57939523D01*
X57337604Y-57939523D01*
X57438794Y-57891904D01*
X57498318Y-57796666D01*
X57528080Y-57558571D01*
X57450699Y-57415714D01*
X57319747Y-57320476D01*
X57135223Y-57272857D01*
X56938794Y-57320476D01*
X56784032Y-57415714D01*
X56670937Y-57558571D01*
X56599508Y-57749047D01*
X56623318Y-57939523D01*
X56700699Y-58082380D01*
X56831651Y-58177619D01*
X57016175Y-58225238D01*
X57212604Y-58177619D01*
X57367366Y-58082380D01*
X58403080Y-57415714D02*
X58301889Y-58225238D01*
X58242366Y-58320476D01*
X58188794Y-58368095D01*
X58087604Y-58415714D01*
X57944747Y-58415714D01*
X57855461Y-58368095D01*
X58325699Y-58034761D02*
X58224508Y-58082380D01*
X58034032Y-58082380D01*
X57944747Y-58034761D01*
X57903080Y-57987142D01*
X57867366Y-57891904D01*
X57903080Y-57606190D01*
X57962604Y-57510952D01*
X58016175Y-57463333D01*
X58117366Y-57415714D01*
X58307842Y-57415714D01*
X58397127Y-57463333D01*
X58795937Y-58082380D02*
X58879270Y-57415714D01*
X58867366Y-57510952D02*
X58920937Y-57463333D01*
X59022127Y-57415714D01*
X59164985Y-57415714D01*
X59254270Y-57463333D01*
X59289985Y-57558571D01*
X59224508Y-58082380D01*
X59289985Y-57558571D02*
X59349508Y-57463333D01*
X59450699Y-57415714D01*
X59593556Y-57415714D01*
X59682842Y-57463333D01*
X59718556Y-57558571D01*
X59653080Y-58082380D01*
X60557842Y-58082380D02*
X60623318Y-57558571D01*
X60587604Y-57463333D01*
X60498318Y-57415714D01*
X60307842Y-57415714D01*
X60206651Y-57463333D01*
X60563794Y-58034761D02*
X60462604Y-58082380D01*
X60224508Y-58082380D01*
X60135223Y-58034761D01*
X60099508Y-57939523D01*
X60111413Y-57844285D01*
X60170937Y-57749047D01*
X60272127Y-57701428D01*
X60510223Y-57701428D01*
X60611413Y-57653809D01*
X61034032Y-58082380D02*
X61117366Y-57415714D01*
X61159032Y-57082380D02*
X61105461Y-57130000D01*
X61147127Y-57177619D01*
X61200699Y-57130000D01*
X61159032Y-57082380D01*
X61147127Y-57177619D01*
X61653080Y-58082380D02*
X61563794Y-58034761D01*
X61528080Y-57939523D01*
X61635223Y-57082380D01*
X62045937Y-57987142D02*
X62087604Y-58034761D01*
X62034032Y-58082380D01*
X61992366Y-58034761D01*
X62045937Y-57987142D01*
X62034032Y-58082380D01*
X62944747Y-58034761D02*
X62843556Y-58082380D01*
X62653080Y-58082380D01*
X62563794Y-58034761D01*
X62522127Y-57987142D01*
X62486413Y-57891904D01*
X62522127Y-57606190D01*
X62581651Y-57510952D01*
X62635223Y-57463333D01*
X62736413Y-57415714D01*
X62926889Y-57415714D01*
X63016175Y-57463333D01*
X63510223Y-58082380D02*
X63420937Y-58034761D01*
X63379270Y-57987142D01*
X63343556Y-57891904D01*
X63379270Y-57606190D01*
X63438794Y-57510952D01*
X63492366Y-57463333D01*
X63593556Y-57415714D01*
X63736413Y-57415714D01*
X63825699Y-57463333D01*
X63867366Y-57510952D01*
X63903080Y-57606190D01*
X63867366Y-57891904D01*
X63807842Y-57987142D01*
X63754270Y-58034761D01*
X63653080Y-58082380D01*
X63510223Y-58082380D01*
X64272127Y-58082380D02*
X64355461Y-57415714D01*
X64343556Y-57510952D02*
X64397127Y-57463333D01*
X64498318Y-57415714D01*
X64641175Y-57415714D01*
X64730461Y-57463333D01*
X64766175Y-57558571D01*
X64700699Y-58082380D01*
X64766175Y-57558571D02*
X64825699Y-57463333D01*
X64926889Y-57415714D01*
X65069747Y-57415714D01*
X65159032Y-57463333D01*
X65194747Y-57558571D01*
X65129270Y-58082380D01*
D11*
X88000000Y-47780000D02*
X88000000Y-45180000D01*
X102700000Y-47780000D02*
X88000000Y-47780000D01*
X88000000Y-38580000D02*
X89900000Y-38580000D01*
X88000000Y-41280000D02*
X88000000Y-38580000D01*
X102700000Y-38580000D02*
X102700000Y-47780000D01*
X93900000Y-38580000D02*
X102700000Y-38580000D01*
X88850000Y-47980000D02*
X87800000Y-47980000D01*
X87800000Y-46930000D02*
X87800000Y-47980000D01*
X86570000Y-52495000D02*
X86570000Y-51435000D01*
X87630000Y-52495000D02*
X86570000Y-52495000D01*
X88630000Y-52495000D02*
X88630000Y-50375000D01*
X88630000Y-50375000D02*
X90690000Y-50375000D01*
X88630000Y-52495000D02*
X90690000Y-52495000D01*
X90690000Y-52495000D02*
X90690000Y-50375000D01*
X86570000Y-58210000D02*
X86570000Y-57150000D01*
X87630000Y-58210000D02*
X86570000Y-58210000D01*
X88630000Y-58210000D02*
X88630000Y-56090000D01*
X88630000Y-56090000D02*
X90690000Y-56090000D01*
X88630000Y-58210000D02*
X90690000Y-58210000D01*
X90690000Y-58210000D02*
X90690000Y-56090000D01*
X86570000Y-63925000D02*
X86570000Y-62865000D01*
X87630000Y-63925000D02*
X86570000Y-63925000D01*
X88630000Y-63925000D02*
X88630000Y-61805000D01*
X88630000Y-61805000D02*
X90690000Y-61805000D01*
X88630000Y-63925000D02*
X90690000Y-63925000D01*
X90690000Y-63925000D02*
X90690000Y-61805000D01*
X86570000Y-69640000D02*
X86570000Y-68580000D01*
X87630000Y-69640000D02*
X86570000Y-69640000D01*
X88630000Y-69640000D02*
X88630000Y-67520000D01*
X88630000Y-67520000D02*
X90690000Y-67520000D01*
X88630000Y-69640000D02*
X90690000Y-69640000D01*
X90690000Y-69640000D02*
X90690000Y-67520000D01*
X93980000Y-55670000D02*
X93045000Y-55670000D01*
X93045000Y-55670000D02*
X93045000Y-54610000D01*
X101660000Y-55670000D02*
X101660000Y-49550000D01*
X101660000Y-49550000D02*
X95190000Y-49550000D01*
X95190000Y-55670000D02*
X95190000Y-49550000D01*
X101660000Y-55670000D02*
X95190000Y-55670000D01*
X101660000Y-51610000D02*
X95190000Y-51610000D01*
X101660000Y-53610000D02*
X95190000Y-53610000D01*
X95190000Y-50250000D02*
X94842917Y-50250000D01*
X95190000Y-50970000D02*
X94842917Y-50970000D01*
X95190000Y-52250000D02*
X94842917Y-52250000D01*
X95190000Y-52970000D02*
X94842917Y-52970000D01*
X95190000Y-54250000D02*
X94915000Y-54250000D01*
X95190000Y-54970000D02*
X94915000Y-54970000D01*
X101660000Y-53724112D02*
X95190000Y-53724112D01*
X101660000Y-53838230D02*
X95190000Y-53838230D01*
X101660000Y-53952348D02*
X95190000Y-53952348D01*
X101660000Y-54066466D02*
X95190000Y-54066466D01*
X101660000Y-54180584D02*
X95190000Y-54180584D01*
X101660000Y-54294702D02*
X95190000Y-54294702D01*
X101660000Y-54408820D02*
X95190000Y-54408820D01*
X101660000Y-54522938D02*
X95190000Y-54522938D01*
X101660000Y-54637056D02*
X95190000Y-54637056D01*
X101660000Y-54751174D02*
X95190000Y-54751174D01*
X101660000Y-54865292D02*
X95190000Y-54865292D01*
X101660000Y-54979410D02*
X95190000Y-54979410D01*
X101660000Y-55093528D02*
X95190000Y-55093528D01*
X101660000Y-55207646D02*
X95190000Y-55207646D01*
X101660000Y-55321764D02*
X95190000Y-55321764D01*
X101660000Y-55435882D02*
X95190000Y-55435882D01*
X101660000Y-55550000D02*
X95190000Y-55550000D01*
X93980000Y-63925000D02*
X93045000Y-63925000D01*
X93045000Y-63925000D02*
X93045000Y-62865000D01*
X101660000Y-63925000D02*
X101660000Y-57805000D01*
X101660000Y-57805000D02*
X95190000Y-57805000D01*
X95190000Y-63925000D02*
X95190000Y-57805000D01*
X101660000Y-63925000D02*
X95190000Y-63925000D01*
X101660000Y-59865000D02*
X95190000Y-59865000D01*
X101660000Y-61865000D02*
X95190000Y-61865000D01*
X95190000Y-58505000D02*
X94842917Y-58505000D01*
X95190000Y-59225000D02*
X94842917Y-59225000D01*
X95190000Y-60505000D02*
X94842917Y-60505000D01*
X95190000Y-61225000D02*
X94842917Y-61225000D01*
X95190000Y-62505000D02*
X94915000Y-62505000D01*
X95190000Y-63225000D02*
X94915000Y-63225000D01*
X101660000Y-61979112D02*
X95190000Y-61979112D01*
X101660000Y-62093230D02*
X95190000Y-62093230D01*
X101660000Y-62207348D02*
X95190000Y-62207348D01*
X101660000Y-62321466D02*
X95190000Y-62321466D01*
X101660000Y-62435584D02*
X95190000Y-62435584D01*
X101660000Y-62549702D02*
X95190000Y-62549702D01*
X101660000Y-62663820D02*
X95190000Y-62663820D01*
X101660000Y-62777938D02*
X95190000Y-62777938D01*
X101660000Y-62892056D02*
X95190000Y-62892056D01*
X101660000Y-63006174D02*
X95190000Y-63006174D01*
X101660000Y-63120292D02*
X95190000Y-63120292D01*
X101660000Y-63234410D02*
X95190000Y-63234410D01*
X101660000Y-63348528D02*
X95190000Y-63348528D01*
X101660000Y-63462646D02*
X95190000Y-63462646D01*
X101660000Y-63576764D02*
X95190000Y-63576764D01*
X101660000Y-63690882D02*
X95190000Y-63690882D01*
X101660000Y-63805000D02*
X95190000Y-63805000D01*
X78950000Y-63925000D02*
X78950000Y-62865000D01*
X80010000Y-63925000D02*
X78950000Y-63925000D01*
X81010000Y-63925000D02*
X81010000Y-61805000D01*
X81010000Y-61805000D02*
X83070000Y-61805000D01*
X81010000Y-63925000D02*
X83070000Y-63925000D01*
X83070000Y-63925000D02*
X83070000Y-61805000D01*
X78950000Y-69640000D02*
X78950000Y-68580000D01*
X80010000Y-69640000D02*
X78950000Y-69640000D01*
X81010000Y-69640000D02*
X81010000Y-67520000D01*
X81010000Y-67520000D02*
X83070000Y-67520000D01*
X81010000Y-69640000D02*
X83070000Y-69640000D01*
X83070000Y-69640000D02*
X83070000Y-67520000D01*
X37675000Y-56940000D02*
X37675000Y-55880000D01*
X38735000Y-56940000D02*
X37675000Y-56940000D01*
X39735000Y-56940000D02*
X39735000Y-54820000D01*
X39735000Y-54820000D02*
X45795000Y-54820000D01*
X39735000Y-56940000D02*
X45795000Y-56940000D01*
X45795000Y-56940000D02*
X45795000Y-54820000D01*
X67595000Y-48910000D02*
X67595000Y-45070000D01*
X65755000Y-48910000D02*
X65755000Y-45070000D01*
X45030000Y-50665000D02*
X45030000Y-51275000D01*
X45030000Y-50665000D02*
X37410000Y-50665000D01*
X61650000Y-50665000D02*
X61030000Y-50665000D01*
X61650000Y-48545000D02*
X61650000Y-50665000D01*
X61650000Y-34425000D02*
X61650000Y-36545000D01*
X61030000Y-34425000D02*
X61650000Y-34425000D01*
X37410000Y-34425000D02*
X45030000Y-34425000D01*
X37410000Y-50665000D02*
X37410000Y-34425000D01*
X75614801Y-56005000D02*
X75614801Y-55605000D01*
X75814801Y-55805000D02*
X75414801Y-55805000D01*
X71464000Y-54980000D02*
X71464000Y-54240000D01*
X71504000Y-55147000D02*
X71504000Y-54073000D01*
X71544000Y-55274000D02*
X71544000Y-53946000D01*
X71584000Y-55378000D02*
X71584000Y-53842000D01*
X71624000Y-55469000D02*
X71624000Y-53751000D01*
X71664000Y-55550000D02*
X71664000Y-53670000D01*
X71704000Y-55623000D02*
X71704000Y-53597000D01*
X71744000Y-55690000D02*
X71744000Y-53530000D01*
X71784000Y-55752000D02*
X71784000Y-53468000D01*
X71824000Y-55810000D02*
X71824000Y-53410000D01*
X71864000Y-55864000D02*
X71864000Y-53356000D01*
X71904000Y-55914000D02*
X71904000Y-53306000D01*
X71944000Y-55961000D02*
X71944000Y-53259000D01*
X71984000Y-53770000D02*
X71984000Y-53214000D01*
X71984000Y-56006000D02*
X71984000Y-55450000D01*
X72024000Y-53770000D02*
X72024000Y-53172000D01*
X72024000Y-56048000D02*
X72024000Y-55450000D01*
X72064000Y-53770000D02*
X72064000Y-53132000D01*
X72064000Y-56088000D02*
X72064000Y-55450000D01*
X72104000Y-53770000D02*
X72104000Y-53094000D01*
X72104000Y-56126000D02*
X72104000Y-55450000D01*
X72144000Y-53770000D02*
X72144000Y-53058000D01*
X72144000Y-56162000D02*
X72144000Y-55450000D01*
X72184000Y-53770000D02*
X72184000Y-53023000D01*
X72184000Y-56197000D02*
X72184000Y-55450000D01*
X72224000Y-53770000D02*
X72224000Y-52991000D01*
X72224000Y-56229000D02*
X72224000Y-55450000D01*
X72264000Y-53770000D02*
X72264000Y-52960000D01*
X72264000Y-56260000D02*
X72264000Y-55450000D01*
X72304000Y-53770000D02*
X72304000Y-52930000D01*
X72304000Y-56290000D02*
X72304000Y-55450000D01*
X72344000Y-53770000D02*
X72344000Y-52902000D01*
X72344000Y-56318000D02*
X72344000Y-55450000D01*
X72384000Y-53770000D02*
X72384000Y-52875000D01*
X72384000Y-56345000D02*
X72384000Y-55450000D01*
X72424000Y-53770000D02*
X72424000Y-52850000D01*
X72424000Y-56370000D02*
X72424000Y-55450000D01*
X72464000Y-53770000D02*
X72464000Y-52825000D01*
X72464000Y-56395000D02*
X72464000Y-55450000D01*
X72504000Y-53770000D02*
X72504000Y-52802000D01*
X72504000Y-56418000D02*
X72504000Y-55450000D01*
X72544000Y-53770000D02*
X72544000Y-52780000D01*
X72544000Y-56440000D02*
X72544000Y-55450000D01*
X72584000Y-53770000D02*
X72584000Y-52759000D01*
X72584000Y-56461000D02*
X72584000Y-55450000D01*
X72624000Y-53770000D02*
X72624000Y-52740000D01*
X72624000Y-56480000D02*
X72624000Y-55450000D01*
X72664000Y-53770000D02*
X72664000Y-52721000D01*
X72664000Y-56499000D02*
X72664000Y-55450000D01*
X72704000Y-53770000D02*
X72704000Y-52703000D01*
X72704000Y-56517000D02*
X72704000Y-55450000D01*
X72744000Y-53770000D02*
X72744000Y-52686000D01*
X72744000Y-56534000D02*
X72744000Y-55450000D01*
X72784000Y-53770000D02*
X72784000Y-52670000D01*
X72784000Y-56550000D02*
X72784000Y-55450000D01*
X72824000Y-53770000D02*
X72824000Y-52656000D01*
X72824000Y-56564000D02*
X72824000Y-55450000D01*
X72865000Y-53770000D02*
X72865000Y-52642000D01*
X72865000Y-56578000D02*
X72865000Y-55450000D01*
X72905000Y-53770000D02*
X72905000Y-52628000D01*
X72905000Y-56592000D02*
X72905000Y-55450000D01*
X72945000Y-53770000D02*
X72945000Y-52616000D01*
X72945000Y-56604000D02*
X72945000Y-55450000D01*
X72985000Y-53770000D02*
X72985000Y-52605000D01*
X72985000Y-56615000D02*
X72985000Y-55450000D01*
X73025000Y-53770000D02*
X73025000Y-52594000D01*
X73025000Y-56626000D02*
X73025000Y-55450000D01*
X73065000Y-53770000D02*
X73065000Y-52585000D01*
X73065000Y-56635000D02*
X73065000Y-55450000D01*
X73105000Y-53770000D02*
X73105000Y-52576000D01*
X73105000Y-56644000D02*
X73105000Y-55450000D01*
X73145000Y-53770000D02*
X73145000Y-52568000D01*
X73145000Y-56652000D02*
X73145000Y-55450000D01*
X73185000Y-53770000D02*
X73185000Y-52560000D01*
X73185000Y-56660000D02*
X73185000Y-55450000D01*
X73225000Y-53770000D02*
X73225000Y-52554000D01*
X73225000Y-56666000D02*
X73225000Y-55450000D01*
X73265000Y-53770000D02*
X73265000Y-52548000D01*
X73265000Y-56672000D02*
X73265000Y-55450000D01*
X73305000Y-53770000D02*
X73305000Y-52543000D01*
X73305000Y-56677000D02*
X73305000Y-55450000D01*
X73345000Y-53770000D02*
X73345000Y-52539000D01*
X73345000Y-56681000D02*
X73345000Y-55450000D01*
X73385000Y-53770000D02*
X73385000Y-52536000D01*
X73385000Y-56684000D02*
X73385000Y-55450000D01*
X73425000Y-53770000D02*
X73425000Y-52533000D01*
X73425000Y-56687000D02*
X73425000Y-55450000D01*
X73465000Y-56689000D02*
X73465000Y-55450000D01*
X73465000Y-53770000D02*
X73465000Y-52531000D01*
X73505000Y-56690000D02*
X73505000Y-55450000D01*
X73505000Y-53770000D02*
X73505000Y-52530000D01*
X73545000Y-56690000D02*
X73545000Y-55450000D01*
X73545000Y-53770000D02*
X73545000Y-52530000D01*
X75665000Y-54610000D02*
G75*
G03X75665000Y-54610000I-2120000J0D01*
G01*
X81329801Y-51560000D02*
X81329801Y-51160000D01*
X81529801Y-51360000D02*
X81129801Y-51360000D01*
X77179000Y-50535000D02*
X77179000Y-49795000D01*
X77219000Y-50702000D02*
X77219000Y-49628000D01*
X77259000Y-50829000D02*
X77259000Y-49501000D01*
X77299000Y-50933000D02*
X77299000Y-49397000D01*
X77339000Y-51024000D02*
X77339000Y-49306000D01*
X77379000Y-51105000D02*
X77379000Y-49225000D01*
X77419000Y-51178000D02*
X77419000Y-49152000D01*
X77459000Y-51245000D02*
X77459000Y-49085000D01*
X77499000Y-51307000D02*
X77499000Y-49023000D01*
X77539000Y-51365000D02*
X77539000Y-48965000D01*
X77579000Y-51419000D02*
X77579000Y-48911000D01*
X77619000Y-51469000D02*
X77619000Y-48861000D01*
X77659000Y-51516000D02*
X77659000Y-48814000D01*
X77699000Y-49325000D02*
X77699000Y-48769000D01*
X77699000Y-51561000D02*
X77699000Y-51005000D01*
X77739000Y-49325000D02*
X77739000Y-48727000D01*
X77739000Y-51603000D02*
X77739000Y-51005000D01*
X77779000Y-49325000D02*
X77779000Y-48687000D01*
X77779000Y-51643000D02*
X77779000Y-51005000D01*
X77819000Y-49325000D02*
X77819000Y-48649000D01*
X77819000Y-51681000D02*
X77819000Y-51005000D01*
X77859000Y-49325000D02*
X77859000Y-48613000D01*
X77859000Y-51717000D02*
X77859000Y-51005000D01*
X77899000Y-49325000D02*
X77899000Y-48578000D01*
X77899000Y-51752000D02*
X77899000Y-51005000D01*
X77939000Y-49325000D02*
X77939000Y-48546000D01*
X77939000Y-51784000D02*
X77939000Y-51005000D01*
X77979000Y-49325000D02*
X77979000Y-48515000D01*
X77979000Y-51815000D02*
X77979000Y-51005000D01*
X78019000Y-49325000D02*
X78019000Y-48485000D01*
X78019000Y-51845000D02*
X78019000Y-51005000D01*
X78059000Y-49325000D02*
X78059000Y-48457000D01*
X78059000Y-51873000D02*
X78059000Y-51005000D01*
X78099000Y-49325000D02*
X78099000Y-48430000D01*
X78099000Y-51900000D02*
X78099000Y-51005000D01*
X78139000Y-49325000D02*
X78139000Y-48405000D01*
X78139000Y-51925000D02*
X78139000Y-51005000D01*
X78179000Y-49325000D02*
X78179000Y-48380000D01*
X78179000Y-51950000D02*
X78179000Y-51005000D01*
X78219000Y-49325000D02*
X78219000Y-48357000D01*
X78219000Y-51973000D02*
X78219000Y-51005000D01*
X78259000Y-49325000D02*
X78259000Y-48335000D01*
X78259000Y-51995000D02*
X78259000Y-51005000D01*
X78299000Y-49325000D02*
X78299000Y-48314000D01*
X78299000Y-52016000D02*
X78299000Y-51005000D01*
X78339000Y-49325000D02*
X78339000Y-48295000D01*
X78339000Y-52035000D02*
X78339000Y-51005000D01*
X78379000Y-49325000D02*
X78379000Y-48276000D01*
X78379000Y-52054000D02*
X78379000Y-51005000D01*
X78419000Y-49325000D02*
X78419000Y-48258000D01*
X78419000Y-52072000D02*
X78419000Y-51005000D01*
X78459000Y-49325000D02*
X78459000Y-48241000D01*
X78459000Y-52089000D02*
X78459000Y-51005000D01*
X78499000Y-49325000D02*
X78499000Y-48225000D01*
X78499000Y-52105000D02*
X78499000Y-51005000D01*
X78539000Y-49325000D02*
X78539000Y-48211000D01*
X78539000Y-52119000D02*
X78539000Y-51005000D01*
X78580000Y-49325000D02*
X78580000Y-48197000D01*
X78580000Y-52133000D02*
X78580000Y-51005000D01*
X78620000Y-49325000D02*
X78620000Y-48183000D01*
X78620000Y-52147000D02*
X78620000Y-51005000D01*
X78660000Y-49325000D02*
X78660000Y-48171000D01*
X78660000Y-52159000D02*
X78660000Y-51005000D01*
X78700000Y-49325000D02*
X78700000Y-48160000D01*
X78700000Y-52170000D02*
X78700000Y-51005000D01*
X78740000Y-49325000D02*
X78740000Y-48149000D01*
X78740000Y-52181000D02*
X78740000Y-51005000D01*
X78780000Y-49325000D02*
X78780000Y-48140000D01*
X78780000Y-52190000D02*
X78780000Y-51005000D01*
X78820000Y-49325000D02*
X78820000Y-48131000D01*
X78820000Y-52199000D02*
X78820000Y-51005000D01*
X78860000Y-49325000D02*
X78860000Y-48123000D01*
X78860000Y-52207000D02*
X78860000Y-51005000D01*
X78900000Y-49325000D02*
X78900000Y-48115000D01*
X78900000Y-52215000D02*
X78900000Y-51005000D01*
X78940000Y-49325000D02*
X78940000Y-48109000D01*
X78940000Y-52221000D02*
X78940000Y-51005000D01*
X78980000Y-49325000D02*
X78980000Y-48103000D01*
X78980000Y-52227000D02*
X78980000Y-51005000D01*
X79020000Y-49325000D02*
X79020000Y-48098000D01*
X79020000Y-52232000D02*
X79020000Y-51005000D01*
X79060000Y-49325000D02*
X79060000Y-48094000D01*
X79060000Y-52236000D02*
X79060000Y-51005000D01*
X79100000Y-49325000D02*
X79100000Y-48091000D01*
X79100000Y-52239000D02*
X79100000Y-51005000D01*
X79140000Y-49325000D02*
X79140000Y-48088000D01*
X79140000Y-52242000D02*
X79140000Y-51005000D01*
X79180000Y-52244000D02*
X79180000Y-51005000D01*
X79180000Y-49325000D02*
X79180000Y-48086000D01*
X79220000Y-52245000D02*
X79220000Y-51005000D01*
X79220000Y-49325000D02*
X79220000Y-48085000D01*
X79260000Y-52245000D02*
X79260000Y-51005000D01*
X79260000Y-49325000D02*
X79260000Y-48085000D01*
X81380000Y-50165000D02*
G75*
G03X81380000Y-50165000I-2120000J0D01*
G01*
X75614801Y-47115000D02*
X75614801Y-46715000D01*
X75814801Y-46915000D02*
X75414801Y-46915000D01*
X71464000Y-46090000D02*
X71464000Y-45350000D01*
X71504000Y-46257000D02*
X71504000Y-45183000D01*
X71544000Y-46384000D02*
X71544000Y-45056000D01*
X71584000Y-46488000D02*
X71584000Y-44952000D01*
X71624000Y-46579000D02*
X71624000Y-44861000D01*
X71664000Y-46660000D02*
X71664000Y-44780000D01*
X71704000Y-46733000D02*
X71704000Y-44707000D01*
X71744000Y-46800000D02*
X71744000Y-44640000D01*
X71784000Y-46862000D02*
X71784000Y-44578000D01*
X71824000Y-46920000D02*
X71824000Y-44520000D01*
X71864000Y-46974000D02*
X71864000Y-44466000D01*
X71904000Y-47024000D02*
X71904000Y-44416000D01*
X71944000Y-47071000D02*
X71944000Y-44369000D01*
X71984000Y-44880000D02*
X71984000Y-44324000D01*
X71984000Y-47116000D02*
X71984000Y-46560000D01*
X72024000Y-44880000D02*
X72024000Y-44282000D01*
X72024000Y-47158000D02*
X72024000Y-46560000D01*
X72064000Y-44880000D02*
X72064000Y-44242000D01*
X72064000Y-47198000D02*
X72064000Y-46560000D01*
X72104000Y-44880000D02*
X72104000Y-44204000D01*
X72104000Y-47236000D02*
X72104000Y-46560000D01*
X72144000Y-44880000D02*
X72144000Y-44168000D01*
X72144000Y-47272000D02*
X72144000Y-46560000D01*
X72184000Y-44880000D02*
X72184000Y-44133000D01*
X72184000Y-47307000D02*
X72184000Y-46560000D01*
X72224000Y-44880000D02*
X72224000Y-44101000D01*
X72224000Y-47339000D02*
X72224000Y-46560000D01*
X72264000Y-44880000D02*
X72264000Y-44070000D01*
X72264000Y-47370000D02*
X72264000Y-46560000D01*
X72304000Y-44880000D02*
X72304000Y-44040000D01*
X72304000Y-47400000D02*
X72304000Y-46560000D01*
X72344000Y-44880000D02*
X72344000Y-44012000D01*
X72344000Y-47428000D02*
X72344000Y-46560000D01*
X72384000Y-44880000D02*
X72384000Y-43985000D01*
X72384000Y-47455000D02*
X72384000Y-46560000D01*
X72424000Y-44880000D02*
X72424000Y-43960000D01*
X72424000Y-47480000D02*
X72424000Y-46560000D01*
X72464000Y-44880000D02*
X72464000Y-43935000D01*
X72464000Y-47505000D02*
X72464000Y-46560000D01*
X72504000Y-44880000D02*
X72504000Y-43912000D01*
X72504000Y-47528000D02*
X72504000Y-46560000D01*
X72544000Y-44880000D02*
X72544000Y-43890000D01*
X72544000Y-47550000D02*
X72544000Y-46560000D01*
X72584000Y-44880000D02*
X72584000Y-43869000D01*
X72584000Y-47571000D02*
X72584000Y-46560000D01*
X72624000Y-44880000D02*
X72624000Y-43850000D01*
X72624000Y-47590000D02*
X72624000Y-46560000D01*
X72664000Y-44880000D02*
X72664000Y-43831000D01*
X72664000Y-47609000D02*
X72664000Y-46560000D01*
X72704000Y-44880000D02*
X72704000Y-43813000D01*
X72704000Y-47627000D02*
X72704000Y-46560000D01*
X72744000Y-44880000D02*
X72744000Y-43796000D01*
X72744000Y-47644000D02*
X72744000Y-46560000D01*
X72784000Y-44880000D02*
X72784000Y-43780000D01*
X72784000Y-47660000D02*
X72784000Y-46560000D01*
X72824000Y-44880000D02*
X72824000Y-43766000D01*
X72824000Y-47674000D02*
X72824000Y-46560000D01*
X72865000Y-44880000D02*
X72865000Y-43752000D01*
X72865000Y-47688000D02*
X72865000Y-46560000D01*
X72905000Y-44880000D02*
X72905000Y-43738000D01*
X72905000Y-47702000D02*
X72905000Y-46560000D01*
X72945000Y-44880000D02*
X72945000Y-43726000D01*
X72945000Y-47714000D02*
X72945000Y-46560000D01*
X72985000Y-44880000D02*
X72985000Y-43715000D01*
X72985000Y-47725000D02*
X72985000Y-46560000D01*
X73025000Y-44880000D02*
X73025000Y-43704000D01*
X73025000Y-47736000D02*
X73025000Y-46560000D01*
X73065000Y-44880000D02*
X73065000Y-43695000D01*
X73065000Y-47745000D02*
X73065000Y-46560000D01*
X73105000Y-44880000D02*
X73105000Y-43686000D01*
X73105000Y-47754000D02*
X73105000Y-46560000D01*
X73145000Y-44880000D02*
X73145000Y-43678000D01*
X73145000Y-47762000D02*
X73145000Y-46560000D01*
X73185000Y-44880000D02*
X73185000Y-43670000D01*
X73185000Y-47770000D02*
X73185000Y-46560000D01*
X73225000Y-44880000D02*
X73225000Y-43664000D01*
X73225000Y-47776000D02*
X73225000Y-46560000D01*
X73265000Y-44880000D02*
X73265000Y-43658000D01*
X73265000Y-47782000D02*
X73265000Y-46560000D01*
X73305000Y-44880000D02*
X73305000Y-43653000D01*
X73305000Y-47787000D02*
X73305000Y-46560000D01*
X73345000Y-44880000D02*
X73345000Y-43649000D01*
X73345000Y-47791000D02*
X73345000Y-46560000D01*
X73385000Y-44880000D02*
X73385000Y-43646000D01*
X73385000Y-47794000D02*
X73385000Y-46560000D01*
X73425000Y-44880000D02*
X73425000Y-43643000D01*
X73425000Y-47797000D02*
X73425000Y-46560000D01*
X73465000Y-47799000D02*
X73465000Y-46560000D01*
X73465000Y-44880000D02*
X73465000Y-43641000D01*
X73505000Y-47800000D02*
X73505000Y-46560000D01*
X73505000Y-44880000D02*
X73505000Y-43640000D01*
X73545000Y-47800000D02*
X73545000Y-46560000D01*
X73545000Y-44880000D02*
X73545000Y-43640000D01*
X75665000Y-45720000D02*
G75*
G03X75665000Y-45720000I-2120000J0D01*
G01*
X47565000Y-62120000D02*
X47565000Y-63770000D01*
X68005000Y-62120000D02*
X47565000Y-62120000D01*
X68005000Y-67420000D02*
X68005000Y-62120000D01*
X47565000Y-67420000D02*
X68005000Y-67420000D01*
X47565000Y-65770000D02*
X47565000Y-67420000D01*
X47565000Y-63770000D02*
G75*
G02X47565000Y-65770000I0J-1000000D01*
G01*
X80591000Y-34195000D02*
X80591000Y-35705000D01*
X76890000Y-34195000D02*
X76890000Y-35705000D01*
X73620000Y-35705000D02*
X83860000Y-35705000D01*
X83860000Y-34195000D02*
X83860000Y-38836000D01*
X73620000Y-34195000D02*
X73620000Y-38836000D01*
X73620000Y-38836000D02*
X83860000Y-38836000D01*
X73620000Y-34195000D02*
X83860000Y-34195000D01*
X43275000Y-64770000D02*
G75*
G03X43275000Y-64770000I-2000000J0D01*
G01*
X37465000Y-69850000D02*
X45085000Y-69850000D01*
X37465000Y-59690000D02*
X37465000Y-69850000D01*
X37465000Y-59690000D02*
X45085000Y-59690000D01*
X45085000Y-69850000D02*
X45085000Y-59690000D01*
X76085000Y-69640000D02*
X76085000Y-67520000D01*
X74025000Y-69640000D02*
X76085000Y-69640000D01*
X74025000Y-67520000D02*
X76085000Y-67520000D01*
X74025000Y-69640000D02*
X74025000Y-67520000D01*
X73025000Y-69640000D02*
X71965000Y-69640000D01*
X71965000Y-69640000D02*
X71965000Y-68580000D01*
X71965000Y-63925000D02*
X71965000Y-62865000D01*
X73025000Y-63925000D02*
X71965000Y-63925000D01*
X74025000Y-63925000D02*
X74025000Y-61805000D01*
X74025000Y-61805000D02*
X76085000Y-61805000D01*
X74025000Y-63925000D02*
X76085000Y-63925000D01*
X76085000Y-63925000D02*
X76085000Y-61805000D01*
X65755000Y-40020000D02*
X65755000Y-36180000D01*
X67595000Y-40020000D02*
X67595000Y-36180000D01*
D12*
X87447380Y-40131904D02*
X86447380Y-40131904D01*
X86447380Y-39893809D01*
X86495000Y-39750952D01*
X86590238Y-39655714D01*
X86685476Y-39608095D01*
X86875952Y-39560476D01*
X87018809Y-39560476D01*
X87209285Y-39608095D01*
X87304523Y-39655714D01*
X87399761Y-39750952D01*
X87447380Y-39893809D01*
X87447380Y-40131904D01*
X87352142Y-38560476D02*
X87399761Y-38608095D01*
X87447380Y-38750952D01*
X87447380Y-38846190D01*
X87399761Y-38989047D01*
X87304523Y-39084285D01*
X87209285Y-39131904D01*
X87018809Y-39179523D01*
X86875952Y-39179523D01*
X86685476Y-39131904D01*
X86590238Y-39084285D01*
X86495000Y-38989047D01*
X86447380Y-38846190D01*
X86447380Y-38750952D01*
X86495000Y-38608095D01*
X86542619Y-38560476D01*
X86022380Y-52173095D02*
X85022380Y-52173095D01*
X85022380Y-51792142D01*
X85070000Y-51696904D01*
X85117619Y-51649285D01*
X85212857Y-51601666D01*
X85355714Y-51601666D01*
X85450952Y-51649285D01*
X85498571Y-51696904D01*
X85546190Y-51792142D01*
X85546190Y-52173095D01*
X85022380Y-51268333D02*
X85022380Y-50601666D01*
X86022380Y-51030238D01*
X86022380Y-57888095D02*
X85022380Y-57888095D01*
X85022380Y-57507142D01*
X85070000Y-57411904D01*
X85117619Y-57364285D01*
X85212857Y-57316666D01*
X85355714Y-57316666D01*
X85450952Y-57364285D01*
X85498571Y-57411904D01*
X85546190Y-57507142D01*
X85546190Y-57888095D01*
X85022380Y-56459523D02*
X85022380Y-56650000D01*
X85070000Y-56745238D01*
X85117619Y-56792857D01*
X85260476Y-56888095D01*
X85450952Y-56935714D01*
X85831904Y-56935714D01*
X85927142Y-56888095D01*
X85974761Y-56840476D01*
X86022380Y-56745238D01*
X86022380Y-56554761D01*
X85974761Y-56459523D01*
X85927142Y-56411904D01*
X85831904Y-56364285D01*
X85593809Y-56364285D01*
X85498571Y-56411904D01*
X85450952Y-56459523D01*
X85403333Y-56554761D01*
X85403333Y-56745238D01*
X85450952Y-56840476D01*
X85498571Y-56888095D01*
X85593809Y-56935714D01*
X86022380Y-63603095D02*
X85022380Y-63603095D01*
X85022380Y-63222142D01*
X85070000Y-63126904D01*
X85117619Y-63079285D01*
X85212857Y-63031666D01*
X85355714Y-63031666D01*
X85450952Y-63079285D01*
X85498571Y-63126904D01*
X85546190Y-63222142D01*
X85546190Y-63603095D01*
X85022380Y-62126904D02*
X85022380Y-62603095D01*
X85498571Y-62650714D01*
X85450952Y-62603095D01*
X85403333Y-62507857D01*
X85403333Y-62269761D01*
X85450952Y-62174523D01*
X85498571Y-62126904D01*
X85593809Y-62079285D01*
X85831904Y-62079285D01*
X85927142Y-62126904D01*
X85974761Y-62174523D01*
X86022380Y-62269761D01*
X86022380Y-62507857D01*
X85974761Y-62603095D01*
X85927142Y-62650714D01*
X86022380Y-69318095D02*
X85022380Y-69318095D01*
X85022380Y-68937142D01*
X85070000Y-68841904D01*
X85117619Y-68794285D01*
X85212857Y-68746666D01*
X85355714Y-68746666D01*
X85450952Y-68794285D01*
X85498571Y-68841904D01*
X85546190Y-68937142D01*
X85546190Y-69318095D01*
X85355714Y-67889523D02*
X86022380Y-67889523D01*
X84974761Y-68127619D02*
X85689047Y-68365714D01*
X85689047Y-67746666D01*
X103322380Y-54585952D02*
X102846190Y-54919285D01*
X103322380Y-55157380D02*
X102322380Y-55157380D01*
X102322380Y-54776428D01*
X102370000Y-54681190D01*
X102417619Y-54633571D01*
X102512857Y-54585952D01*
X102655714Y-54585952D01*
X102750952Y-54633571D01*
X102798571Y-54681190D01*
X102846190Y-54776428D01*
X102846190Y-55157380D01*
X102798571Y-54157380D02*
X102798571Y-53824047D01*
X103322380Y-53681190D02*
X103322380Y-54157380D01*
X102322380Y-54157380D01*
X102322380Y-53681190D01*
X103322380Y-52776428D02*
X103322380Y-53252619D01*
X102322380Y-53252619D01*
X103036666Y-52490714D02*
X103036666Y-52014523D01*
X103322380Y-52585952D02*
X102322380Y-52252619D01*
X103322380Y-51919285D01*
X102846190Y-51395476D02*
X103322380Y-51395476D01*
X102322380Y-51728809D02*
X102846190Y-51395476D01*
X102322380Y-51062142D01*
X103322380Y-50205000D02*
X103322380Y-50776428D01*
X103322380Y-50490714D02*
X102322380Y-50490714D01*
X102465238Y-50585952D01*
X102560476Y-50681190D01*
X102608095Y-50776428D01*
X103322380Y-62840952D02*
X102846190Y-63174285D01*
X103322380Y-63412380D02*
X102322380Y-63412380D01*
X102322380Y-63031428D01*
X102370000Y-62936190D01*
X102417619Y-62888571D01*
X102512857Y-62840952D01*
X102655714Y-62840952D01*
X102750952Y-62888571D01*
X102798571Y-62936190D01*
X102846190Y-63031428D01*
X102846190Y-63412380D01*
X102798571Y-62412380D02*
X102798571Y-62079047D01*
X103322380Y-61936190D02*
X103322380Y-62412380D01*
X102322380Y-62412380D01*
X102322380Y-61936190D01*
X103322380Y-61031428D02*
X103322380Y-61507619D01*
X102322380Y-61507619D01*
X103036666Y-60745714D02*
X103036666Y-60269523D01*
X103322380Y-60840952D02*
X102322380Y-60507619D01*
X103322380Y-60174285D01*
X102846190Y-59650476D02*
X103322380Y-59650476D01*
X102322380Y-59983809D02*
X102846190Y-59650476D01*
X102322380Y-59317142D01*
X102322380Y-58793333D02*
X102322380Y-58698095D01*
X102370000Y-58602857D01*
X102417619Y-58555238D01*
X102512857Y-58507619D01*
X102703333Y-58460000D01*
X102941428Y-58460000D01*
X103131904Y-58507619D01*
X103227142Y-58555238D01*
X103274761Y-58602857D01*
X103322380Y-58698095D01*
X103322380Y-58793333D01*
X103274761Y-58888571D01*
X103227142Y-58936190D01*
X103131904Y-58983809D01*
X102941428Y-59031428D01*
X102703333Y-59031428D01*
X102512857Y-58983809D01*
X102417619Y-58936190D01*
X102370000Y-58888571D01*
X102322380Y-58793333D01*
X78402380Y-63603095D02*
X77402380Y-63603095D01*
X77402380Y-63222142D01*
X77450000Y-63126904D01*
X77497619Y-63079285D01*
X77592857Y-63031666D01*
X77735714Y-63031666D01*
X77830952Y-63079285D01*
X77878571Y-63126904D01*
X77926190Y-63222142D01*
X77926190Y-63603095D01*
X77402380Y-62698333D02*
X77402380Y-62079285D01*
X77783333Y-62412619D01*
X77783333Y-62269761D01*
X77830952Y-62174523D01*
X77878571Y-62126904D01*
X77973809Y-62079285D01*
X78211904Y-62079285D01*
X78307142Y-62126904D01*
X78354761Y-62174523D01*
X78402380Y-62269761D01*
X78402380Y-62555476D01*
X78354761Y-62650714D01*
X78307142Y-62698333D01*
X78402380Y-69318095D02*
X77402380Y-69318095D01*
X77402380Y-68937142D01*
X77450000Y-68841904D01*
X77497619Y-68794285D01*
X77592857Y-68746666D01*
X77735714Y-68746666D01*
X77830952Y-68794285D01*
X77878571Y-68841904D01*
X77926190Y-68937142D01*
X77926190Y-69318095D01*
X77497619Y-68365714D02*
X77450000Y-68318095D01*
X77402380Y-68222857D01*
X77402380Y-67984761D01*
X77450000Y-67889523D01*
X77497619Y-67841904D01*
X77592857Y-67794285D01*
X77688095Y-67794285D01*
X77830952Y-67841904D01*
X78402380Y-68413333D01*
X78402380Y-67794285D01*
X37243095Y-53792380D02*
X37243095Y-52792380D01*
X37671666Y-52887619D02*
X37719285Y-52840000D01*
X37814523Y-52792380D01*
X38052619Y-52792380D01*
X38147857Y-52840000D01*
X38195476Y-52887619D01*
X38243095Y-52982857D01*
X38243095Y-53078095D01*
X38195476Y-53220952D01*
X37624047Y-53792380D01*
X38243095Y-53792380D01*
X39243095Y-53697142D02*
X39195476Y-53744761D01*
X39052619Y-53792380D01*
X38957380Y-53792380D01*
X38814523Y-53744761D01*
X38719285Y-53649523D01*
X38671666Y-53554285D01*
X38624047Y-53363809D01*
X38624047Y-53220952D01*
X38671666Y-53030476D01*
X38719285Y-52935238D01*
X38814523Y-52840000D01*
X38957380Y-52792380D01*
X39052619Y-52792380D01*
X39195476Y-52840000D01*
X39243095Y-52887619D01*
X40909761Y-53792380D02*
X40433571Y-53792380D01*
X40433571Y-52792380D01*
X41814523Y-53697142D02*
X41766904Y-53744761D01*
X41624047Y-53792380D01*
X41528809Y-53792380D01*
X41385952Y-53744761D01*
X41290714Y-53649523D01*
X41243095Y-53554285D01*
X41195476Y-53363809D01*
X41195476Y-53220952D01*
X41243095Y-53030476D01*
X41290714Y-52935238D01*
X41385952Y-52840000D01*
X41528809Y-52792380D01*
X41624047Y-52792380D01*
X41766904Y-52840000D01*
X41814523Y-52887619D01*
X42243095Y-53792380D02*
X42243095Y-52792380D01*
X42481190Y-52792380D01*
X42624047Y-52840000D01*
X42719285Y-52935238D01*
X42766904Y-53030476D01*
X42814523Y-53220952D01*
X42814523Y-53363809D01*
X42766904Y-53554285D01*
X42719285Y-53649523D01*
X42624047Y-53744761D01*
X42481190Y-53792380D01*
X42243095Y-53792380D01*
X65207380Y-47156666D02*
X64731190Y-47490000D01*
X65207380Y-47728095D02*
X64207380Y-47728095D01*
X64207380Y-47347142D01*
X64255000Y-47251904D01*
X64302619Y-47204285D01*
X64397857Y-47156666D01*
X64540714Y-47156666D01*
X64635952Y-47204285D01*
X64683571Y-47251904D01*
X64731190Y-47347142D01*
X64731190Y-47728095D01*
X64302619Y-46775714D02*
X64255000Y-46728095D01*
X64207380Y-46632857D01*
X64207380Y-46394761D01*
X64255000Y-46299523D01*
X64302619Y-46251904D01*
X64397857Y-46204285D01*
X64493095Y-46204285D01*
X64635952Y-46251904D01*
X65207380Y-46823333D01*
X65207380Y-46204285D01*
X45593095Y-52157380D02*
X45593095Y-52966904D01*
X45640714Y-53062142D01*
X45688333Y-53109761D01*
X45783571Y-53157380D01*
X45974047Y-53157380D01*
X46069285Y-53109761D01*
X46116904Y-53062142D01*
X46164523Y-52966904D01*
X46164523Y-52157380D01*
X46593095Y-52252619D02*
X46640714Y-52205000D01*
X46735952Y-52157380D01*
X46974047Y-52157380D01*
X47069285Y-52205000D01*
X47116904Y-52252619D01*
X47164523Y-52347857D01*
X47164523Y-52443095D01*
X47116904Y-52585952D01*
X46545476Y-53157380D01*
X47164523Y-53157380D01*
X73378333Y-58217142D02*
X73330714Y-58264761D01*
X73187857Y-58312380D01*
X73092619Y-58312380D01*
X72949761Y-58264761D01*
X72854523Y-58169523D01*
X72806904Y-58074285D01*
X72759285Y-57883809D01*
X72759285Y-57740952D01*
X72806904Y-57550476D01*
X72854523Y-57455238D01*
X72949761Y-57360000D01*
X73092619Y-57312380D01*
X73187857Y-57312380D01*
X73330714Y-57360000D01*
X73378333Y-57407619D01*
X73711666Y-57312380D02*
X74330714Y-57312380D01*
X73997380Y-57693333D01*
X74140238Y-57693333D01*
X74235476Y-57740952D01*
X74283095Y-57788571D01*
X74330714Y-57883809D01*
X74330714Y-58121904D01*
X74283095Y-58217142D01*
X74235476Y-58264761D01*
X74140238Y-58312380D01*
X73854523Y-58312380D01*
X73759285Y-58264761D01*
X73711666Y-58217142D01*
X79093333Y-53772142D02*
X79045714Y-53819761D01*
X78902857Y-53867380D01*
X78807619Y-53867380D01*
X78664761Y-53819761D01*
X78569523Y-53724523D01*
X78521904Y-53629285D01*
X78474285Y-53438809D01*
X78474285Y-53295952D01*
X78521904Y-53105476D01*
X78569523Y-53010238D01*
X78664761Y-52915000D01*
X78807619Y-52867380D01*
X78902857Y-52867380D01*
X79045714Y-52915000D01*
X79093333Y-52962619D01*
X79474285Y-52962619D02*
X79521904Y-52915000D01*
X79617142Y-52867380D01*
X79855238Y-52867380D01*
X79950476Y-52915000D01*
X79998095Y-52962619D01*
X80045714Y-53057857D01*
X80045714Y-53153095D01*
X79998095Y-53295952D01*
X79426666Y-53867380D01*
X80045714Y-53867380D01*
X73378333Y-49327142D02*
X73330714Y-49374761D01*
X73187857Y-49422380D01*
X73092619Y-49422380D01*
X72949761Y-49374761D01*
X72854523Y-49279523D01*
X72806904Y-49184285D01*
X72759285Y-48993809D01*
X72759285Y-48850952D01*
X72806904Y-48660476D01*
X72854523Y-48565238D01*
X72949761Y-48470000D01*
X73092619Y-48422380D01*
X73187857Y-48422380D01*
X73330714Y-48470000D01*
X73378333Y-48517619D01*
X74330714Y-49422380D02*
X73759285Y-49422380D01*
X74045000Y-49422380D02*
X74045000Y-48422380D01*
X73949761Y-48565238D01*
X73854523Y-48660476D01*
X73759285Y-48708095D01*
X46017380Y-65531904D02*
X46826904Y-65531904D01*
X46922142Y-65484285D01*
X46969761Y-65436666D01*
X47017380Y-65341428D01*
X47017380Y-65150952D01*
X46969761Y-65055714D01*
X46922142Y-65008095D01*
X46826904Y-64960476D01*
X46017380Y-64960476D01*
X46017380Y-64579523D02*
X46017380Y-63960476D01*
X46398333Y-64293809D01*
X46398333Y-64150952D01*
X46445952Y-64055714D01*
X46493571Y-64008095D01*
X46588809Y-63960476D01*
X46826904Y-63960476D01*
X46922142Y-64008095D01*
X46969761Y-64055714D01*
X47017380Y-64150952D01*
X47017380Y-64436666D01*
X46969761Y-64531904D01*
X46922142Y-64579523D01*
X77978095Y-32647380D02*
X77978095Y-33456904D01*
X78025714Y-33552142D01*
X78073333Y-33599761D01*
X78168571Y-33647380D01*
X78359047Y-33647380D01*
X78454285Y-33599761D01*
X78501904Y-33552142D01*
X78549523Y-33456904D01*
X78549523Y-32647380D01*
X79549523Y-33647380D02*
X78978095Y-33647380D01*
X79263809Y-33647380D02*
X79263809Y-32647380D01*
X79168571Y-32790238D01*
X79073333Y-32885476D01*
X78978095Y-32933095D01*
X39822619Y-59412380D02*
X39489285Y-58936190D01*
X39251190Y-59412380D02*
X39251190Y-58412380D01*
X39632142Y-58412380D01*
X39727380Y-58460000D01*
X39775000Y-58507619D01*
X39822619Y-58602857D01*
X39822619Y-58745714D01*
X39775000Y-58840952D01*
X39727380Y-58888571D01*
X39632142Y-58936190D01*
X39251190Y-58936190D01*
X40251190Y-58888571D02*
X40584523Y-58888571D01*
X40727380Y-59412380D02*
X40251190Y-59412380D01*
X40251190Y-58412380D01*
X40727380Y-58412380D01*
X41108333Y-59364761D02*
X41251190Y-59412380D01*
X41489285Y-59412380D01*
X41584523Y-59364761D01*
X41632142Y-59317142D01*
X41679761Y-59221904D01*
X41679761Y-59126666D01*
X41632142Y-59031428D01*
X41584523Y-58983809D01*
X41489285Y-58936190D01*
X41298809Y-58888571D01*
X41203571Y-58840952D01*
X41155952Y-58793333D01*
X41108333Y-58698095D01*
X41108333Y-58602857D01*
X41155952Y-58507619D01*
X41203571Y-58460000D01*
X41298809Y-58412380D01*
X41536904Y-58412380D01*
X41679761Y-58460000D01*
X42108333Y-58888571D02*
X42441666Y-58888571D01*
X42584523Y-59412380D02*
X42108333Y-59412380D01*
X42108333Y-58412380D01*
X42584523Y-58412380D01*
X42870238Y-58412380D02*
X43441666Y-58412380D01*
X43155952Y-59412380D02*
X43155952Y-58412380D01*
X71417380Y-69318095D02*
X70417380Y-69318095D01*
X70417380Y-68937142D01*
X70465000Y-68841904D01*
X70512619Y-68794285D01*
X70607857Y-68746666D01*
X70750714Y-68746666D01*
X70845952Y-68794285D01*
X70893571Y-68841904D01*
X70941190Y-68937142D01*
X70941190Y-69318095D01*
X70417380Y-68127619D02*
X70417380Y-68032380D01*
X70465000Y-67937142D01*
X70512619Y-67889523D01*
X70607857Y-67841904D01*
X70798333Y-67794285D01*
X71036428Y-67794285D01*
X71226904Y-67841904D01*
X71322142Y-67889523D01*
X71369761Y-67937142D01*
X71417380Y-68032380D01*
X71417380Y-68127619D01*
X71369761Y-68222857D01*
X71322142Y-68270476D01*
X71226904Y-68318095D01*
X71036428Y-68365714D01*
X70798333Y-68365714D01*
X70607857Y-68318095D01*
X70512619Y-68270476D01*
X70465000Y-68222857D01*
X70417380Y-68127619D01*
X71417380Y-63603095D02*
X70417380Y-63603095D01*
X70417380Y-63222142D01*
X70465000Y-63126904D01*
X70512619Y-63079285D01*
X70607857Y-63031666D01*
X70750714Y-63031666D01*
X70845952Y-63079285D01*
X70893571Y-63126904D01*
X70941190Y-63222142D01*
X70941190Y-63603095D01*
X71417380Y-62079285D02*
X71417380Y-62650714D01*
X71417380Y-62365000D02*
X70417380Y-62365000D01*
X70560238Y-62460238D01*
X70655476Y-62555476D01*
X70703095Y-62650714D01*
X65207380Y-38266666D02*
X64731190Y-38600000D01*
X65207380Y-38838095D02*
X64207380Y-38838095D01*
X64207380Y-38457142D01*
X64255000Y-38361904D01*
X64302619Y-38314285D01*
X64397857Y-38266666D01*
X64540714Y-38266666D01*
X64635952Y-38314285D01*
X64683571Y-38361904D01*
X64731190Y-38457142D01*
X64731190Y-38838095D01*
X65207380Y-37314285D02*
X65207380Y-37885714D01*
X65207380Y-37600000D02*
X64207380Y-37600000D01*
X64350238Y-37695238D01*
X64445476Y-37790476D01*
X64493095Y-37885714D01*
M02*
