G04 #@! TF.GenerationSoftware,KiCad,Pcbnew,(5.1.5-0-10_14)*
G04 #@! TF.CreationDate,2020-05-21T14:15:11-05:00*
G04 #@! TF.ProjectId,esp12e-oven,65737031-3265-42d6-9f76-656e2e6b6963,rev?*
G04 #@! TF.SameCoordinates,Original*
G04 #@! TF.FileFunction,Copper,L1,Top*
G04 #@! TF.FilePolarity,Positive*
%FSLAX46Y46*%
G04 Gerber Fmt 4.6, Leading zero omitted, Abs format (unit mm)*
G04 Created by KiCad (PCBNEW (5.1.5-0-10_14)) date 2020-05-21 14:15:11*
%MOMM*%
%LPD*%
G04 APERTURE LIST*
%ADD10O,1.400000X1.400000*%
%ADD11C,1.400000*%
%ADD12C,0.100000*%
%ADD13R,3.500000X3.500000*%
%ADD14O,1.350000X1.350000*%
%ADD15R,1.350000X1.350000*%
%ADD16R,1.000000X2.500000*%
%ADD17R,1.800000X1.000000*%
%ADD18C,1.200000*%
%ADD19R,1.200000X1.200000*%
%ADD20O,1.600000X1.600000*%
%ADD21R,1.600000X1.600000*%
%ADD22O,1.905000X2.000000*%
%ADD23R,1.905000X2.000000*%
%ADD24C,1.778000*%
%ADD25C,0.250000*%
G04 APERTURE END LIST*
D10*
X66675000Y-52705000D03*
D11*
X66675000Y-57785000D03*
G04 #@! TA.AperFunction,ComponentPad*
D12*
G36*
X92860765Y-36734213D02*
G01*
X92945704Y-36746813D01*
X93028999Y-36767677D01*
X93109848Y-36796605D01*
X93187472Y-36833319D01*
X93261124Y-36877464D01*
X93330094Y-36928616D01*
X93393718Y-36986282D01*
X93451384Y-37049906D01*
X93502536Y-37118876D01*
X93546681Y-37192528D01*
X93583395Y-37270152D01*
X93612323Y-37351001D01*
X93633187Y-37434296D01*
X93645787Y-37519235D01*
X93650000Y-37605000D01*
X93650000Y-39355000D01*
X93645787Y-39440765D01*
X93633187Y-39525704D01*
X93612323Y-39608999D01*
X93583395Y-39689848D01*
X93546681Y-39767472D01*
X93502536Y-39841124D01*
X93451384Y-39910094D01*
X93393718Y-39973718D01*
X93330094Y-40031384D01*
X93261124Y-40082536D01*
X93187472Y-40126681D01*
X93109848Y-40163395D01*
X93028999Y-40192323D01*
X92945704Y-40213187D01*
X92860765Y-40225787D01*
X92775000Y-40230000D01*
X91025000Y-40230000D01*
X90939235Y-40225787D01*
X90854296Y-40213187D01*
X90771001Y-40192323D01*
X90690152Y-40163395D01*
X90612528Y-40126681D01*
X90538876Y-40082536D01*
X90469906Y-40031384D01*
X90406282Y-39973718D01*
X90348616Y-39910094D01*
X90297464Y-39841124D01*
X90253319Y-39767472D01*
X90216605Y-39689848D01*
X90187677Y-39608999D01*
X90166813Y-39525704D01*
X90154213Y-39440765D01*
X90150000Y-39355000D01*
X90150000Y-37605000D01*
X90154213Y-37519235D01*
X90166813Y-37434296D01*
X90187677Y-37351001D01*
X90216605Y-37270152D01*
X90253319Y-37192528D01*
X90297464Y-37118876D01*
X90348616Y-37049906D01*
X90406282Y-36986282D01*
X90469906Y-36928616D01*
X90538876Y-36877464D01*
X90612528Y-36833319D01*
X90690152Y-36796605D01*
X90771001Y-36767677D01*
X90854296Y-36746813D01*
X90939235Y-36734213D01*
X91025000Y-36730000D01*
X92775000Y-36730000D01*
X92860765Y-36734213D01*
G37*
G04 #@! TD.AperFunction*
G04 #@! TA.AperFunction,ComponentPad*
G36*
X95723513Y-41433611D02*
G01*
X95796318Y-41444411D01*
X95867714Y-41462295D01*
X95937013Y-41487090D01*
X96003548Y-41518559D01*
X96066678Y-41556398D01*
X96125795Y-41600242D01*
X96180330Y-41649670D01*
X96229758Y-41704205D01*
X96273602Y-41763322D01*
X96311441Y-41826452D01*
X96342910Y-41892987D01*
X96367705Y-41962286D01*
X96385589Y-42033682D01*
X96396389Y-42106487D01*
X96400000Y-42180000D01*
X96400000Y-44180000D01*
X96396389Y-44253513D01*
X96385589Y-44326318D01*
X96367705Y-44397714D01*
X96342910Y-44467013D01*
X96311441Y-44533548D01*
X96273602Y-44596678D01*
X96229758Y-44655795D01*
X96180330Y-44710330D01*
X96125795Y-44759758D01*
X96066678Y-44803602D01*
X96003548Y-44841441D01*
X95937013Y-44872910D01*
X95867714Y-44897705D01*
X95796318Y-44915589D01*
X95723513Y-44926389D01*
X95650000Y-44930000D01*
X94150000Y-44930000D01*
X94076487Y-44926389D01*
X94003682Y-44915589D01*
X93932286Y-44897705D01*
X93862987Y-44872910D01*
X93796452Y-44841441D01*
X93733322Y-44803602D01*
X93674205Y-44759758D01*
X93619670Y-44710330D01*
X93570242Y-44655795D01*
X93526398Y-44596678D01*
X93488559Y-44533548D01*
X93457090Y-44467013D01*
X93432295Y-44397714D01*
X93414411Y-44326318D01*
X93403611Y-44253513D01*
X93400000Y-44180000D01*
X93400000Y-42180000D01*
X93403611Y-42106487D01*
X93414411Y-42033682D01*
X93432295Y-41962286D01*
X93457090Y-41892987D01*
X93488559Y-41826452D01*
X93526398Y-41763322D01*
X93570242Y-41704205D01*
X93619670Y-41649670D01*
X93674205Y-41600242D01*
X93733322Y-41556398D01*
X93796452Y-41518559D01*
X93862987Y-41487090D01*
X93932286Y-41462295D01*
X94003682Y-41444411D01*
X94076487Y-41433611D01*
X94150000Y-41430000D01*
X95650000Y-41430000D01*
X95723513Y-41433611D01*
G37*
G04 #@! TD.AperFunction*
D13*
X88900000Y-43180000D03*
D14*
X89630000Y-51435000D03*
D15*
X87630000Y-51435000D03*
D14*
X89630000Y-57150000D03*
D15*
X87630000Y-57150000D03*
D14*
X89630000Y-62865000D03*
D15*
X87630000Y-62865000D03*
D14*
X89630000Y-68580000D03*
D15*
X87630000Y-68580000D03*
D14*
X93980000Y-50610000D03*
X93980000Y-52610000D03*
D15*
X93980000Y-54610000D03*
D14*
X93980000Y-58865000D03*
X93980000Y-60865000D03*
D15*
X93980000Y-62865000D03*
D14*
X82010000Y-62865000D03*
D15*
X80010000Y-62865000D03*
D14*
X82010000Y-68580000D03*
D15*
X80010000Y-68580000D03*
D14*
X44735000Y-55880000D03*
X42735000Y-55880000D03*
X40735000Y-55880000D03*
D15*
X38735000Y-55880000D03*
D10*
X66675000Y-43815000D03*
D11*
X66675000Y-48895000D03*
D16*
X46030000Y-34945000D03*
X48030000Y-34945000D03*
X50030000Y-34945000D03*
X52030000Y-34945000D03*
X54030000Y-34945000D03*
X56030000Y-34945000D03*
X58030000Y-34945000D03*
X60030000Y-34945000D03*
D17*
X61530000Y-37545000D03*
X61530000Y-39545000D03*
X61530000Y-41545000D03*
X61530000Y-43545000D03*
X61530000Y-45545000D03*
X61530000Y-47545000D03*
D16*
X60030000Y-50145000D03*
X58030000Y-50145000D03*
X56030000Y-50145000D03*
X54030000Y-50145000D03*
X52030000Y-50145000D03*
X50030000Y-50145000D03*
X48030000Y-50145000D03*
X46030000Y-50145000D03*
D18*
X72795000Y-54610000D03*
D19*
X74295000Y-54610000D03*
D18*
X78510000Y-50165000D03*
D19*
X80010000Y-50165000D03*
D18*
X72795000Y-45720000D03*
D19*
X74295000Y-45720000D03*
D20*
X48895000Y-60960000D03*
X66675000Y-68580000D03*
X51435000Y-60960000D03*
X64135000Y-68580000D03*
X53975000Y-60960000D03*
X61595000Y-68580000D03*
X56515000Y-60960000D03*
X59055000Y-68580000D03*
X59055000Y-60960000D03*
X56515000Y-68580000D03*
X61595000Y-60960000D03*
X53975000Y-68580000D03*
X64135000Y-60960000D03*
X51435000Y-68580000D03*
X66675000Y-60960000D03*
D21*
X48895000Y-68580000D03*
D22*
X81280000Y-37465000D03*
X78740000Y-37465000D03*
D23*
X76200000Y-37465000D03*
D24*
X38735000Y-68580000D03*
X41275000Y-68580000D03*
X43815000Y-68580000D03*
X43815000Y-60960000D03*
X38735000Y-60960000D03*
D15*
X72390000Y-68580000D03*
D14*
X74390000Y-68580000D03*
X74390000Y-62865000D03*
D15*
X72390000Y-62865000D03*
D11*
X66675000Y-40005000D03*
D10*
X66675000Y-34925000D03*
D25*
X66675000Y-43815000D02*
X65649700Y-43815000D01*
X46030000Y-50145000D02*
X46030000Y-48569700D01*
X46030000Y-48569700D02*
X50059700Y-44540000D01*
X50059700Y-44540000D02*
X64924700Y-44540000D01*
X64924700Y-44540000D02*
X65649700Y-43815000D01*
X43815000Y-60960000D02*
X46030000Y-58745000D01*
X46030000Y-58745000D02*
X46030000Y-50145000D01*
X66675000Y-43815000D02*
X67700300Y-43815000D01*
X72795000Y-45720000D02*
X69605300Y-45720000D01*
X69605300Y-45720000D02*
X67700300Y-43815000D01*
X60030000Y-50145000D02*
X60030000Y-51720300D01*
X72795000Y-54610000D02*
X62919700Y-54610000D01*
X62919700Y-54610000D02*
X60030000Y-51720300D01*
X89630000Y-61864700D02*
X84010600Y-61864700D01*
X84010600Y-61864700D02*
X83010300Y-62865000D01*
X90130200Y-57150000D02*
X90130200Y-61364500D01*
X90130200Y-61364500D02*
X89630000Y-61864700D01*
X82010000Y-62865000D02*
X83010300Y-62865000D01*
X89630000Y-62865000D02*
X89630000Y-61864700D01*
X90130200Y-57150000D02*
X90630300Y-57150000D01*
X89630000Y-57150000D02*
X90130200Y-57150000D01*
X89630000Y-51435000D02*
X90630300Y-51435000D01*
X90630300Y-51435000D02*
X90630300Y-52260600D01*
X90630300Y-52260600D02*
X92979700Y-54610000D01*
X93980000Y-54610000D02*
X92979700Y-54610000D01*
X92979700Y-54610000D02*
X90630300Y-56959400D01*
X90630300Y-56959400D02*
X90630300Y-57150000D01*
X74295000Y-45720000D02*
X71120000Y-48895000D01*
X71120000Y-48895000D02*
X66675000Y-48895000D01*
X60030000Y-33556300D02*
X61398700Y-34925000D01*
X61398700Y-34925000D02*
X65649700Y-34925000D01*
X60030000Y-34945000D02*
X60030000Y-33556300D01*
X80010000Y-50165000D02*
X80010000Y-49239700D01*
X76200000Y-37465000D02*
X76200000Y-45429700D01*
X76200000Y-45429700D02*
X80010000Y-49239700D01*
X80010000Y-50165000D02*
X80935300Y-50165000D01*
X93980000Y-50610000D02*
X92979700Y-50610000D01*
X93980000Y-50610000D02*
X94980300Y-51610300D01*
X94980300Y-51610300D02*
X94980300Y-56864400D01*
X94980300Y-56864400D02*
X93980000Y-57864700D01*
X92979700Y-50610000D02*
X92336400Y-49966700D01*
X92336400Y-49966700D02*
X81133600Y-49966700D01*
X81133600Y-49966700D02*
X80935300Y-50165000D01*
X41375100Y-60240200D02*
X48589500Y-67454700D01*
X48589500Y-67454700D02*
X59625800Y-67454700D01*
X59625800Y-67454700D02*
X60469700Y-68298600D01*
X60469700Y-68298600D02*
X60469700Y-68580000D01*
X38735000Y-60960000D02*
X39655000Y-60960000D01*
X39655000Y-60960000D02*
X40374800Y-60240200D01*
X40374800Y-60240200D02*
X41375000Y-60240200D01*
X41375000Y-60240200D02*
X41375100Y-60240200D01*
X44735000Y-56880300D02*
X41375100Y-60240200D01*
X44735000Y-55880000D02*
X44735000Y-56880300D01*
X61595000Y-68580000D02*
X60469700Y-68580000D01*
X61595000Y-68580000D02*
X63009700Y-68580000D01*
X64135000Y-68580000D02*
X63009700Y-68580000D01*
X93980000Y-58865000D02*
X93980000Y-57864700D01*
X66675000Y-68580000D02*
X64135000Y-68580000D01*
X66675000Y-34925000D02*
X65649700Y-34925000D01*
X64135000Y-59834700D02*
X58030000Y-53729700D01*
X58030000Y-53729700D02*
X58030000Y-50145000D01*
X64135000Y-60960000D02*
X64135000Y-59834700D01*
X61595000Y-60960000D02*
X61595000Y-59834700D01*
X61595000Y-59834700D02*
X56030000Y-54269700D01*
X56030000Y-54269700D02*
X56030000Y-50145000D01*
X54030000Y-50145000D02*
X54030000Y-48569700D01*
X66675000Y-60960000D02*
X66675000Y-59834700D01*
X66675000Y-59834700D02*
X59125700Y-52285400D01*
X59125700Y-52285400D02*
X59125700Y-49020800D01*
X59125700Y-49020800D02*
X58674600Y-48569700D01*
X58674600Y-48569700D02*
X54030000Y-48569700D01*
X52030000Y-34945000D02*
X52030000Y-39131200D01*
X52030000Y-39131200D02*
X38735000Y-52426200D01*
X38735000Y-52426200D02*
X38735000Y-55880000D01*
X40735000Y-55880000D02*
X40735000Y-51558000D01*
X40735000Y-51558000D02*
X54030000Y-38263000D01*
X54030000Y-38263000D02*
X54030000Y-34945000D01*
X65649700Y-52705000D02*
X61514400Y-48569700D01*
X61514400Y-48569700D02*
X59762700Y-48569700D01*
X59762700Y-48569700D02*
X59307600Y-48114600D01*
X59307600Y-48114600D02*
X53848200Y-48114600D01*
X53848200Y-48114600D02*
X53204600Y-48758200D01*
X53204600Y-48758200D02*
X53204600Y-51210300D01*
X53204600Y-51210300D02*
X52694600Y-51720300D01*
X52694600Y-51720300D02*
X48030000Y-51720300D01*
X48030000Y-50145000D02*
X48030000Y-51720300D01*
X66675000Y-52705000D02*
X65649700Y-52705000D01*
X56515000Y-60960000D02*
X57640300Y-60960000D01*
X72390000Y-68580000D02*
X72390000Y-67579700D01*
X72390000Y-67579700D02*
X75434600Y-64535100D01*
X75434600Y-64535100D02*
X75434600Y-62440100D01*
X75434600Y-62440100D02*
X74859200Y-61864700D01*
X74859200Y-61864700D02*
X71580200Y-61864700D01*
X71580200Y-61864700D02*
X70861300Y-62583600D01*
X70861300Y-62583600D02*
X58982600Y-62583600D01*
X58982600Y-62583600D02*
X57640300Y-61241300D01*
X57640300Y-61241300D02*
X57640300Y-60960000D01*
X72390000Y-62865000D02*
X71389700Y-62865000D01*
X53975000Y-60960000D02*
X55100300Y-60960000D01*
X55100300Y-60960000D02*
X55100300Y-61241300D01*
X55100300Y-61241300D02*
X56893000Y-63034000D01*
X56893000Y-63034000D02*
X71220700Y-63034000D01*
X71220700Y-63034000D02*
X71389700Y-62865000D01*
X80010000Y-68580000D02*
X79009700Y-68580000D01*
X51435000Y-60960000D02*
X52560300Y-60960000D01*
X52560300Y-60960000D02*
X52560300Y-61241300D01*
X52560300Y-61241300D02*
X55184400Y-63865400D01*
X55184400Y-63865400D02*
X64945500Y-63865400D01*
X64945500Y-63865400D02*
X70660400Y-69580300D01*
X70660400Y-69580300D02*
X78009400Y-69580300D01*
X78009400Y-69580300D02*
X79009700Y-68580000D01*
X79009700Y-62865000D02*
X77555100Y-61410400D01*
X77555100Y-61410400D02*
X68383800Y-61410400D01*
X68383800Y-61410400D02*
X67665700Y-62128500D01*
X67665700Y-62128500D02*
X61067500Y-62128500D01*
X61067500Y-62128500D02*
X60180300Y-61241300D01*
X60180300Y-61241300D02*
X60180300Y-60960000D01*
X80010000Y-62865000D02*
X79009700Y-62865000D01*
X59055000Y-60960000D02*
X60180300Y-60960000D01*
X50020300Y-68580000D02*
X50020300Y-68861300D01*
X50020300Y-68861300D02*
X51682500Y-70523500D01*
X51682500Y-70523500D02*
X84686200Y-70523500D01*
X84686200Y-70523500D02*
X86629700Y-68580000D01*
X87630000Y-68580000D02*
X86629700Y-68580000D01*
X48895000Y-68580000D02*
X50020300Y-68580000D01*
X59055000Y-68580000D02*
X60547400Y-70072400D01*
X60547400Y-70072400D02*
X81949800Y-70072400D01*
X81949800Y-70072400D02*
X87630000Y-64392200D01*
X87630000Y-64392200D02*
X87630000Y-62865000D01*
X93980000Y-52610000D02*
X92979700Y-52610000D01*
X52030000Y-50145000D02*
X52030000Y-48569700D01*
X52030000Y-48569700D02*
X53880100Y-46719600D01*
X53880100Y-46719600D02*
X62620300Y-46719600D01*
X62620300Y-46719600D02*
X67040100Y-51139400D01*
X67040100Y-51139400D02*
X83102000Y-51139400D01*
X83102000Y-51139400D02*
X83806800Y-50434600D01*
X83806800Y-50434600D02*
X90804300Y-50434600D01*
X90804300Y-50434600D02*
X92979700Y-52610000D01*
X58030000Y-34945000D02*
X58030000Y-36520300D01*
X58030000Y-36520300D02*
X67319700Y-36520300D01*
X67319700Y-36520300D02*
X67716400Y-36123600D01*
X67716400Y-36123600D02*
X85836800Y-36123600D01*
X85836800Y-36123600D02*
X92274000Y-42560800D01*
X92274000Y-42560800D02*
X92274000Y-45433100D01*
X92274000Y-45433100D02*
X95457900Y-48617000D01*
X95457900Y-48617000D02*
X95457900Y-59387100D01*
X95457900Y-59387100D02*
X93980000Y-60865000D01*
M02*
