M48
; DRILL file {KiCad (5.1.5-0-10_14)} date Thursday, May 21, 2020 at 02:15:14 PM
; FORMAT={-:-/ absolute / inch / decimal}
; #@! TF.CreationDate,2020-05-21T14:15:14-05:00
; #@! TF.GenerationSoftware,Kicad,Pcbnew,(5.1.5-0-10_14)
; #@! TF.FileFunction,Plated,1,2,PTH
FMAT,2
INCH
T1C0.0236
T2C0.0276
T3C0.0315
T4C0.0394
T5C0.0433
T6C0.0450
%
G90
G05
T1
X2.8659Y-2.15
X2.925Y-2.15
X3.0909Y-1.975
X3.15Y-1.975
X2.8659Y-1.8
X2.925Y-1.8
T2
X2.625Y-1.375
X2.625Y-1.575
X2.625Y-2.075
X2.625Y-2.275
X2.625Y-1.725
X2.625Y-1.925
T3
X2.85Y-2.7
X2.9287Y-2.7
X2.85Y-2.475
X2.9287Y-2.475
X1.525Y-2.2
X1.6037Y-2.2
X1.6825Y-2.2
X1.7612Y-2.2
X3.7Y-2.3175
X3.7Y-2.3963
X3.7Y-2.475
X3.7Y-1.9925
X3.7Y-2.0713
X3.7Y-2.15
X3.15Y-2.7
X3.2287Y-2.7
X3.45Y-2.25
X3.5287Y-2.25
X1.925Y-2.4
X1.925Y-2.7
X2.025Y-2.4
X2.025Y-2.7
X2.125Y-2.4
X2.125Y-2.7
X2.225Y-2.4
X2.225Y-2.7
X2.325Y-2.4
X2.325Y-2.7
X2.425Y-2.4
X2.425Y-2.7
X2.525Y-2.4
X2.525Y-2.7
X2.625Y-2.4
X2.625Y-2.7
X3.45Y-2.475
X3.5287Y-2.475
X3.45Y-2.025
X3.5287Y-2.025
X3.45Y-2.7
X3.5287Y-2.7
X3.15Y-2.475
X3.2287Y-2.475
T5
X3.0Y-1.475
X3.1Y-1.475
X3.2Y-1.475
T6
X1.525Y-2.4
X1.525Y-2.7
X1.625Y-2.7
X1.725Y-2.4
X1.725Y-2.7
T4
G00X3.5Y-1.7394
M15
G01X3.5Y-1.6606
M16
G05
G00X3.6575Y-1.515
M15
G01X3.5787Y-1.515
M16
G05
G00X3.7362Y-1.7394
M15
G01X3.7362Y-1.6606
M16
G05
T0
M30
