G04 #@! TF.GenerationSoftware,KiCad,Pcbnew,(5.1.5-0-10_14)*
G04 #@! TF.CreationDate,2020-05-21T14:15:11-05:00*
G04 #@! TF.ProjectId,esp12e-oven,65737031-3265-42d6-9f76-656e2e6b6963,rev?*
G04 #@! TF.SameCoordinates,Original*
G04 #@! TF.FileFunction,Soldermask,Bot*
G04 #@! TF.FilePolarity,Negative*
%FSLAX46Y46*%
G04 Gerber Fmt 4.6, Leading zero omitted, Abs format (unit mm)*
G04 Created by KiCad (PCBNEW (5.1.5-0-10_14)) date 2020-05-21 14:15:11*
%MOMM*%
%LPD*%
G04 APERTURE LIST*
%ADD10O,1.400000X1.400000*%
%ADD11C,1.400000*%
%ADD12C,2.500000*%
%ADD13C,0.100000*%
%ADD14R,3.500000X3.500000*%
%ADD15O,1.350000X1.350000*%
%ADD16R,1.350000X1.350000*%
%ADD17C,1.200000*%
%ADD18R,1.200000X1.200000*%
%ADD19O,1.600000X1.600000*%
%ADD20R,1.600000X1.600000*%
%ADD21O,1.905000X2.000000*%
%ADD22R,1.905000X2.000000*%
%ADD23C,1.778000*%
G04 APERTURE END LIST*
D10*
X66675000Y-52705000D03*
D11*
X66675000Y-57785000D03*
D12*
X100330000Y-68580000D03*
X100330000Y-34925000D03*
D13*
G36*
X92860765Y-36734213D02*
G01*
X92945704Y-36746813D01*
X93028999Y-36767677D01*
X93109848Y-36796605D01*
X93187472Y-36833319D01*
X93261124Y-36877464D01*
X93330094Y-36928616D01*
X93393718Y-36986282D01*
X93451384Y-37049906D01*
X93502536Y-37118876D01*
X93546681Y-37192528D01*
X93583395Y-37270152D01*
X93612323Y-37351001D01*
X93633187Y-37434296D01*
X93645787Y-37519235D01*
X93650000Y-37605000D01*
X93650000Y-39355000D01*
X93645787Y-39440765D01*
X93633187Y-39525704D01*
X93612323Y-39608999D01*
X93583395Y-39689848D01*
X93546681Y-39767472D01*
X93502536Y-39841124D01*
X93451384Y-39910094D01*
X93393718Y-39973718D01*
X93330094Y-40031384D01*
X93261124Y-40082536D01*
X93187472Y-40126681D01*
X93109848Y-40163395D01*
X93028999Y-40192323D01*
X92945704Y-40213187D01*
X92860765Y-40225787D01*
X92775000Y-40230000D01*
X91025000Y-40230000D01*
X90939235Y-40225787D01*
X90854296Y-40213187D01*
X90771001Y-40192323D01*
X90690152Y-40163395D01*
X90612528Y-40126681D01*
X90538876Y-40082536D01*
X90469906Y-40031384D01*
X90406282Y-39973718D01*
X90348616Y-39910094D01*
X90297464Y-39841124D01*
X90253319Y-39767472D01*
X90216605Y-39689848D01*
X90187677Y-39608999D01*
X90166813Y-39525704D01*
X90154213Y-39440765D01*
X90150000Y-39355000D01*
X90150000Y-37605000D01*
X90154213Y-37519235D01*
X90166813Y-37434296D01*
X90187677Y-37351001D01*
X90216605Y-37270152D01*
X90253319Y-37192528D01*
X90297464Y-37118876D01*
X90348616Y-37049906D01*
X90406282Y-36986282D01*
X90469906Y-36928616D01*
X90538876Y-36877464D01*
X90612528Y-36833319D01*
X90690152Y-36796605D01*
X90771001Y-36767677D01*
X90854296Y-36746813D01*
X90939235Y-36734213D01*
X91025000Y-36730000D01*
X92775000Y-36730000D01*
X92860765Y-36734213D01*
G37*
G36*
X95723513Y-41433611D02*
G01*
X95796318Y-41444411D01*
X95867714Y-41462295D01*
X95937013Y-41487090D01*
X96003548Y-41518559D01*
X96066678Y-41556398D01*
X96125795Y-41600242D01*
X96180330Y-41649670D01*
X96229758Y-41704205D01*
X96273602Y-41763322D01*
X96311441Y-41826452D01*
X96342910Y-41892987D01*
X96367705Y-41962286D01*
X96385589Y-42033682D01*
X96396389Y-42106487D01*
X96400000Y-42180000D01*
X96400000Y-44180000D01*
X96396389Y-44253513D01*
X96385589Y-44326318D01*
X96367705Y-44397714D01*
X96342910Y-44467013D01*
X96311441Y-44533548D01*
X96273602Y-44596678D01*
X96229758Y-44655795D01*
X96180330Y-44710330D01*
X96125795Y-44759758D01*
X96066678Y-44803602D01*
X96003548Y-44841441D01*
X95937013Y-44872910D01*
X95867714Y-44897705D01*
X95796318Y-44915589D01*
X95723513Y-44926389D01*
X95650000Y-44930000D01*
X94150000Y-44930000D01*
X94076487Y-44926389D01*
X94003682Y-44915589D01*
X93932286Y-44897705D01*
X93862987Y-44872910D01*
X93796452Y-44841441D01*
X93733322Y-44803602D01*
X93674205Y-44759758D01*
X93619670Y-44710330D01*
X93570242Y-44655795D01*
X93526398Y-44596678D01*
X93488559Y-44533548D01*
X93457090Y-44467013D01*
X93432295Y-44397714D01*
X93414411Y-44326318D01*
X93403611Y-44253513D01*
X93400000Y-44180000D01*
X93400000Y-42180000D01*
X93403611Y-42106487D01*
X93414411Y-42033682D01*
X93432295Y-41962286D01*
X93457090Y-41892987D01*
X93488559Y-41826452D01*
X93526398Y-41763322D01*
X93570242Y-41704205D01*
X93619670Y-41649670D01*
X93674205Y-41600242D01*
X93733322Y-41556398D01*
X93796452Y-41518559D01*
X93862987Y-41487090D01*
X93932286Y-41462295D01*
X94003682Y-41444411D01*
X94076487Y-41433611D01*
X94150000Y-41430000D01*
X95650000Y-41430000D01*
X95723513Y-41433611D01*
G37*
D14*
X88900000Y-43180000D03*
D15*
X89630000Y-51435000D03*
D16*
X87630000Y-51435000D03*
D15*
X89630000Y-57150000D03*
D16*
X87630000Y-57150000D03*
D15*
X89630000Y-62865000D03*
D16*
X87630000Y-62865000D03*
D15*
X89630000Y-68580000D03*
D16*
X87630000Y-68580000D03*
D15*
X93980000Y-50610000D03*
X93980000Y-52610000D03*
D16*
X93980000Y-54610000D03*
D15*
X93980000Y-58865000D03*
X93980000Y-60865000D03*
D16*
X93980000Y-62865000D03*
D12*
X34925000Y-68580000D03*
X34925000Y-34925000D03*
D15*
X82010000Y-62865000D03*
D16*
X80010000Y-62865000D03*
D15*
X82010000Y-68580000D03*
D16*
X80010000Y-68580000D03*
D15*
X44735000Y-55880000D03*
X42735000Y-55880000D03*
X40735000Y-55880000D03*
D16*
X38735000Y-55880000D03*
D10*
X66675000Y-43815000D03*
D11*
X66675000Y-48895000D03*
D17*
X72795000Y-54610000D03*
D18*
X74295000Y-54610000D03*
D17*
X78510000Y-50165000D03*
D18*
X80010000Y-50165000D03*
D17*
X72795000Y-45720000D03*
D18*
X74295000Y-45720000D03*
D19*
X48895000Y-60960000D03*
X66675000Y-68580000D03*
X51435000Y-60960000D03*
X64135000Y-68580000D03*
X53975000Y-60960000D03*
X61595000Y-68580000D03*
X56515000Y-60960000D03*
X59055000Y-68580000D03*
X59055000Y-60960000D03*
X56515000Y-68580000D03*
X61595000Y-60960000D03*
X53975000Y-68580000D03*
X64135000Y-60960000D03*
X51435000Y-68580000D03*
X66675000Y-60960000D03*
D20*
X48895000Y-68580000D03*
D21*
X81280000Y-37465000D03*
X78740000Y-37465000D03*
D22*
X76200000Y-37465000D03*
D23*
X38735000Y-68580000D03*
X41275000Y-68580000D03*
X43815000Y-68580000D03*
X43815000Y-60960000D03*
X38735000Y-60960000D03*
D16*
X72390000Y-68580000D03*
D15*
X74390000Y-68580000D03*
X74390000Y-62865000D03*
D16*
X72390000Y-62865000D03*
D11*
X66675000Y-40005000D03*
D10*
X66675000Y-34925000D03*
M02*
